<svg height="193" viewBox="0 0 193 193" width="193" xmlns="http://www.w3.org/2000/svg" xmlns:xlink="http://www.w3.org/1999/xlink"><defs><path id="a" d="m119.276993 23.2774066v16.5263645l11.686455-11.685394c9.084088-9.0855742 23.834511-9.0855742 32.918812 0 9.084088 9.0834519 9.084088 23.8334497 0 32.9190239l-11.686456 11.685394h16.527002c12.846929 0 23.277194 10.4311136 23.277194 23.2774066 0 12.8462934-10.430265 23.2774064-23.277194 23.2774064h-16.527002l11.686456 11.685394c9.084088 9.085574 9.084088 23.835572 0 32.919024-9.084301 9.085574-23.834724 9.085574-32.918812 0l-11.686455-11.685394v16.526365c0 12.846293-10.430053 23.277406-23.2769824 23.277406-12.847142 0-23.2771944-10.431113-23.2771944-23.277406v-16.526365l-11.6862429 11.685394c-9.0843008 9.085574-23.8347231 9.085574-32.9188116 0-9.0843008-9.083452-9.0843008-23.83345 0-32.919024l11.6862428-11.685394h-16.5267889c-12.847142 0-23.2772156-10.431113-23.2772156-23.2774064 0-12.846293 10.4300736-23.2774066 23.2772156-23.2774066h16.5267889l-11.6862428-11.685394c-9.0843008-9.0855742-9.0843008-23.835572 0-32.9190239 9.0840885-9.0855742 23.8345108-9.0855742 32.9188116 0l11.6862429 11.685394v-16.5263645c0-12.846293 10.4300524-23.2774066 23.2771944-23.2774066 12.8469294 0 23.2769824 10.4311136 23.2769824 23.2774066z"/></defs><g fill="none" fill-rule="evenodd" transform="translate(.4498 .24)" xlink:href="#a"><path d="m39.8040045 119.277608h-16.5267889c-12.847142 0-23.2772156-10.431113-23.2772156-23.2774064 0-12.846293 10.4300736-23.2774066 23.2772156-23.2774066h16.5267889l-11.6862428-11.685394c-9.0843008-9.0855742-9.0843008-23.835572 0-32.9190239 9.0840885-9.0855742 23.8345108-9.0855742 32.9188116 0l11.6862429 11.685394v-16.5263645c0-12.846293 10.4300524-23.2774066 23.2771944-23.2774066 12.8469294 0 23.2769824 10.4311136 23.2769824 23.2774066v16.5263645l11.686455-11.685394c9.084088-9.0855742 23.834511-9.0855742 32.918812 0 9.084088 9.0834519 9.084088 23.8334497 0 32.9190239l-11.686456 11.685394h16.527002c12.846929 0 23.277194 10.4311136 23.277194 23.2774066 0 12.8462934-10.430265 23.2774064-23.277194 23.2774064h-16.527002l11.686456 11.685394c9.084088 9.085574 9.084088 23.835572 0 32.919024-9.084301 9.085574-23.834724 9.085574-32.918812 0l-11.686455-11.685394v16.526365c0 12.846293-10.430053 23.277406-23.2769824 23.277406-12.847142 0-23.2771944-10.431113-23.2771944-23.277406v-16.526365l-11.6862429 11.685394c-9.0843008 9.085574-23.8347231 9.085574-32.9188116 0-9.0843008-9.083452-9.0843008-23.83345 0-32.919024z" fill="#ff8000"/><path d="m97.3026795 50.5171508c23.8935105 0 43.2921985 19.3978389 43.2921985 43.2928353 0 23.8928739-19.398688 43.2928349-43.2921985 43.2928349-23.8937231 0-43.2924109-19.399961-43.2924109-43.2928349 0-23.8949964 19.3986878-43.2928353 43.2924109-43.2928353z" fill="#ffc266"/><g fill="#000"><path d="m74.8296253 85.3568579c-1.4505934-.7788848-1.9962372-2.5892083-1.2177768-4.0387404.778248-1.4516545 2.5879348-1.9970861 4.0385281-1.2182013l13.0360269 6.9951069c.9732876.5220862 1.5783559 1.5407911 1.5722477 2.6443881-.0062012 1.1057192-.6223054 2.1159349-1.6015355 2.6274097l-12.8864045 6.7319414c-1.4590826.7640287-3.2626147.1973741-4.0247333-1.2627696-.7623308-1.4580214-.1965251-3.2619779 1.2625574-4.0238843l7.8934773-4.1236325z"/><path d="m116.95477 80.0999162c1.450593-.7788848 3.26028-.2334532 4.038528 1.2182013.778461 1.4495321.232817 3.2598556-1.217777 4.0387404l-8.072387 4.331618 7.893477 4.1236325c1.459083.7619064 2.024889 2.5658629 1.262558 4.0238843-.762119 1.4601437-2.565651 2.0267983-4.024733 1.2627696l-12.886405-6.7319414c-.97923-.5114748-1.595334-1.5216905-1.601535-2.6274097-.006109-1.103597.59896-2.1223019 1.572247-2.6443881z"/></g></g></svg>