<svg height="224" viewBox="0 0 224 224" width="224" xmlns="http://www.w3.org/2000/svg" xmlns:xlink="http://www.w3.org/1999/xlink"><defs><path d="m133.8532 44.176v15.574l11.013-11.012c8.5606-8.562 22.461-8.562 31.0218 0 8.5606 8.56 8.5606 22.46 0 31.022l-11.013 11.012h15.5746c12.1066 0 21.9358 9.83 21.9358 21.936s-9.8292 21.936-21.9358 21.936h-15.5746l11.013 11.012c8.5606 8.562 8.5606 22.462 0 31.022-8.5608 8.562-22.4612 8.562-31.0218 0l-11.013-11.012v15.574c0 12.106-9.829 21.936-21.9356 21.936-12.1068 0-21.9358-9.83-21.9358-21.936v-15.574l-11.0128 11.012c-8.5608 8.562-22.4612 8.562-31.0218 0-8.5608-8.56-8.5608-22.46 0-31.022l11.0128-11.012h-15.5744c-12.1068 0-21.93582-9.83-21.93582-21.936s9.82902-21.936 21.93582-21.936h15.5744l-11.0128-11.012c-8.5608-8.562-8.5608-22.462 0-31.022 8.5606-8.562 22.461-8.562 31.0218 0l11.0128 11.012v-15.574c0-12.106 9.829-21.936 21.9358-21.936 12.1066 0 21.9356 9.83 21.9356 21.936z"/><path id="a" d="m112.40342 21.936v15.574l11.013-11.012c8.5606-8.562 22.461-8.562 31.0218 0 8.5606 8.56 8.5606 22.46 0 31.022l-11.013 11.012h15.5746c12.1066 0 21.9358 9.83 21.9358 21.936s-9.8292 21.936-21.9358 21.936h-15.5746l11.013 11.012c8.5606 8.562 8.5606 22.462 0 31.022-8.5608 8.562-22.4612 8.562-31.0218 0l-11.013-11.012v15.574c0 12.106-9.829 21.936-21.9356 21.936-12.1068 0-21.9358-9.83-21.9358-21.936v-15.574l-11.0128 11.012c-8.5608 8.562-22.4612 8.562-31.0218 0-8.5608-8.56-8.5608-22.46 0-31.022l11.0128-11.012h-15.5744c-12.1068 0-21.93582-9.83-21.93582-21.936s9.82902-21.936 21.93582-21.936h15.5744l-11.0128-11.012c-8.5608-8.562-8.5608-22.462 0-31.022 8.5606-8.562 22.461-8.562 31.0218 0l11.0128 11.012v-15.574c0-12.106 9.829-21.936 21.9358-21.936 12.1066 0 21.9356 9.83 21.9356 21.936z"/></defs><g fill="none" fill-rule="evenodd" transform="translate(21.4498 22.24)" xlink:href="#a"><path d="m37.51022 112.404h-15.5744c-12.1068 0-21.93582-9.83-21.93582-21.936s9.82902-21.936 21.93582-21.936h15.5744l-11.0128-11.012c-8.5608-8.562-8.5608-22.462 0-31.022 8.5606-8.562 22.461-8.562 31.0218 0l11.0128 11.012v-15.574c0-12.106 9.829-21.936 21.9358-21.936 12.1066 0 21.9356 9.83 21.9356 21.936v15.574l11.013-11.012c8.5606-8.562 22.461-8.562 31.0218 0 8.5606 8.56 8.5606 22.46 0 31.022l-11.013 11.012h15.5746c12.1066 0 21.9358 9.83 21.9358 21.936s-9.8292 21.936-21.9358 21.936h-15.5746l11.013 11.012c8.5606 8.562 8.5606 22.462 0 31.022-8.5608 8.562-22.4612 8.562-31.0218 0l-11.013-11.012v15.574c0 12.106-9.829 21.936-21.9356 21.936-12.1068 0-21.9358-9.83-21.9358-21.936v-15.574l-11.0128 11.012c-8.5608 8.562-22.4612 8.562-31.0218 0-8.5608-8.56-8.5608-22.46 0-31.022z" fill="#ff8000"/><path d="m91.69542 47.606c22.5166 0 40.7974 18.28 40.7974 40.798 0 22.516-18.2808 40.798-40.7974 40.798-22.5168 0-40.7976-18.282-40.7976-40.798 0-22.518 18.2808-40.798 40.7976-40.798z" fill="#ffc266"/><g fill="#000"><path d="m70.51742 80.438c-1.367-.734-1.8812-2.44-1.1476-3.806.7334-1.368 2.4388-1.882 3.8058-1.148l12.2848 6.592c.9172.492 1.4874 1.452 1.4816438 2.492-.0058438 1.042-.5864438 1.994-1.5092438 2.476l-12.1438 6.344c-1.375.72-3.0746.186-3.7928-1.19-.7184-1.374-.1852-3.074 1.1898-3.792l7.4386-3.886z"/><path d="m110.21502 75.484c1.367-.734 3.0724-.22 3.8058 1.148.7336 1.366.2194 3.072-1.1476 3.806l-7.6072 4.082 7.4386 3.886c1.375.718 1.9082 2.418 1.1898 3.792-.7182 1.376-2.4178 1.91-3.7928 1.19l-12.1438-6.344c-.9228-.482-1.5034-1.434-1.5092438-2.476-.0057562-1.04.5644438-2 1.4816438-2.492z"/></g></g></svg>