<svg height="97" viewBox="0 0 97 97" width="97" xmlns="http://www.w3.org/2000/svg" xmlns:xlink="http://www.w3.org/1999/xlink"><defs><path id="a" d="m59.6384964 11.6387033v8.2631822l5.8432275-5.8426969c4.5420443-4.54278713 11.9172555-4.54278713 16.4594059 0 4.5420443 4.5417259 4.5420443 11.9167248 0 16.4595119l-5.8432276 5.842697h8.2635006c6.4234649 0 11.6385972 5.2155568 11.6385972 11.6387033s-5.2151323 11.6387033-11.6385972 11.6387033h-8.2635006l5.8432276 5.842697c4.5420443 4.5427871 4.5420443 11.917786 0 16.459512-4.5421504 4.542787-11.9173616 4.542787-16.4594059 0l-5.8432275-5.842697v8.2631822c0 6.4231465-5.2150262 11.6387033-11.6384964 11.6387033-6.4235657 0-11.6385919-5.2155568-11.6385919-11.6387033v-8.2631822l-5.8431214 5.842697c-4.5421504 4.542787-11.9173616 4.542787-16.4594059 0-4.54215037-4.541726-4.54215037-11.9167249 0-16.459512l5.8431215-5.842697h-8.2633945c-6.42357098 0-11.6386078-5.2155568-11.6386078-11.6387033s5.21503682-11.6387033 11.6386078-11.6387033h8.2633945l-5.8431215-5.842697c-4.54215037-4.5427871-4.54215037-11.917786 0-16.4595119 4.5420443-4.54278713 11.9172555-4.54278713 16.4594059 0l5.8431214 5.8426969v-8.2631822c0-6.42314652 5.2150262-11.6387033 11.6385919-11.6387033 6.4234702 0 11.6384964 5.21555678 11.6384964 11.6387033z"/></defs><g fill="none" fill-rule="evenodd" transform="translate(.4498 .24)" xlink:href="#a"><path d="m19.9020023 59.6388041h-8.2633945c-6.42357098 0-11.6386078-5.2155568-11.6386078-11.6387033s5.21503682-11.6387033 11.6386078-11.6387033h8.2633945l-5.8431215-5.842697c-4.54215037-4.5427871-4.54215037-11.917786 0-16.4595119 4.5420443-4.54278713 11.9172555-4.54278713 16.4594059 0l5.8431214 5.8426969v-8.2631822c0-6.42314652 5.2150262-11.6387033 11.6385919-11.6387033 6.4234702 0 11.6384964 5.21555678 11.6384964 11.6387033v8.2631822l5.8432275-5.8426969c4.5420443-4.54278713 11.9172555-4.54278713 16.4594059 0 4.5420443 4.5417259 4.5420443 11.9167248 0 16.4595119l-5.8432276 5.842697h8.2635006c6.4234649 0 11.6385972 5.2155568 11.6385972 11.6387033s-5.2151323 11.6387033-11.6385972 11.6387033h-8.2635006l5.8432276 5.842697c4.5420443 4.5427871 4.5420443 11.917786 0 16.459512-4.5421504 4.542787-11.9173616 4.542787-16.4594059 0l-5.8432275-5.842697v8.2631822c0 6.4231465-5.2150262 11.6387033-11.6384964 11.6387033-6.4235657 0-11.6385919-5.2155568-11.6385919-11.6387033v-8.2631822l-5.8431214 5.842697c-4.5421504 4.542787-11.9173616 4.542787-16.4594059 0-4.54215037-4.541726-4.54215037-11.9167249 0-16.459512z" fill="#ff8000"/><path d="m48.6513397 25.2585754c11.9467555 0 21.6460994 9.6989194 21.6460994 21.6464177 0 11.946437-9.6993439 21.6464176-21.6460994 21.6464176-11.9468615 0-21.6462054-9.6999806-21.6462054-21.6464176 0-11.9474983 9.6993439-21.6464177 21.6462054-21.6464177z" fill="#ffc266"/></g></svg>