<svg height="96" viewBox="0 0 96 96" width="96" xmlns="http://www.w3.org/2000/svg" xmlns:xlink="http://www.w3.org/1999/xlink"><defs><path id="a" d="m51.3672297 81.4403003c.771012.7712891 1.2043309 1.8173986 1.2043309 2.9081796v7.5387509c0 1.0907764-.4333189 2.1368766-1.2043309 2.9081704-.771474.7712915-1.8173524 1.2045988-2.908503 1.2045988h-.9174534c-1.0906886 0-2.1369828-.4333073-2.908272-1.2045988-.7712892-.7712938-1.2046081-1.817394-1.2046081-2.9081704v-7.5387509c0-1.090781.4333189-2.1368905 1.2046081-2.9081796.7712892-.7712892 1.8175834-1.2046081 2.908272-1.2046081h.9174534c1.0911506 0 2.137029.4333189 2.908503 1.2046081zm-19.8824542-5.7527934c.264149.1524931.530654.3063721.7947568.4588191.9446629.5453905 1.6339541 1.4437188 1.9162581 2.4973119.282304 1.0535932.1345229 2.1762033-.4108676 3.1208662l-3.7693663 6.5287484c-.5453905.9446629-1.4437188 1.6339541-2.4973119 1.9162581-1.0535932.282304-2.1762033.1345229-3.1208662-.4108676-.2641028-.1524932-.5306078-.3063722-.7947568-.4588653-.9446167-.5453905-1.6339079-1.4436726-1.9162119-2.4972658-.2823502-1.0536394-.1345229-2.1762494.4108676-3.1208662l3.7693663-6.5287483c.5453905-.944663 1.4436726-1.6339541 2.4973119-1.9162582 1.0535932-.282304 2.1762033-.1345228 3.12082.4108677zm36.1513152-.4108677c1.0537317.2823041 1.9517828.9715952 2.4973581 1.9162582 1.1613686 2.0113757 2.6082287 4.5173726 3.7691353 6.5287483.5455753.9446168.6934026 2.0672268.4111448 3.1208662-.2822578 1.0535932-.9715028 1.9518753-1.9162119 2.4972658-.2642414.1524931-.5307926.3063721-.795034.4588653-.9442471.5453905-2.067273.6931716-3.1205428.4108676-1.0537317-.282304-1.9522448-.9715952-2.4973581-1.9162581-1.1613686-2.0113758-2.6082287-4.5173726-3.7695973-6.5287484-.5451133-.9446629-.6929406-2.067273-.4106828-3.1208662.2822578-1.0535931.9715028-1.9519214 1.9162119-2.4973119.2642414-.152447.5307926-.306326.794572-.4588191.9447091-.5453905 2.067273-.6931717 3.1210048-.4108677zm8.9167605-27.2766392c0 15.7394081-12.7787499 28.5178346-28.5182042 28.5178346-15.7392233 0-28.5176497-12.7784265-28.5176497-28.5178346 0-15.7394543 12.7784264-28.5177422 28.5176497-28.5177422 15.7394543 0 28.5182042 12.7782879 28.5182042 28.5177422zm-59.1964891 13.8042096c1.0535931.282304 1.9519214.9715952 2.4973119 1.9162581.152447.2641028.306326.5306078.4588191.7947568.5453905.9446167.6931717 2.0672268.4108677 3.12082-.2823041 1.0536393-.9715952 1.9519214-1.9162582 2.4973119l-6.5287483 3.7693663c-.9446168.5453905-2.0672268.6932178-3.12086621.4108676-1.05359319-.282304-1.95187527-.9715952-2.49726577-1.9162119-.15249314-.264149-.30637217-.530654-.45886531-.7947568-.5453905-.9446629-.69317165-2.067273-.41086762-3.1208662.28230403-1.0535931.97159521-1.9519214 1.91625812-2.4973119l6.52874839-3.7693663c.9446629-.5453905 2.067273-.6931716 3.1208662-.4108676zm64.4083268.4108676c2.0113758 1.1612762 4.5170492 2.6080901 6.528425 3.7693663.9447091.5453905 1.6339541 1.4437188 1.9166739 2.4973119.2822578 1.0535932.1344305 2.1762033-.4111448 3.1208662-.152447.2641028-.3062798.5306078-.4587267.7947568-.5455753.9446167-1.4436264 1.6339079-2.4973582 1.9162119-1.0537318.2823502-2.1762956.1345229-3.1210048-.4108676-2.0113757-1.1612762-4.5170492-2.6080901-6.528425-3.7693663-.9447091-.5453905-1.6339541-1.4436726-1.9166738-2.4973119-.2822579-1.0535932-.1344305-2.1762033.4111447-3.12082.152447-.264149.3062798-.530654.4587268-.7947568.5455753-.9446629 1.4436264-1.6339541 2.4973581-1.9162581 1.0537318-.282304 2.1762957-.1345229 3.1210048.4108676zm-67.2049892-17.5823069c.7712892.771474 1.2046081 1.8173524 1.2046081 2.908503v.9174534c0 1.0906886-.4333189 2.1369828-1.2046081 2.908272-.7712891.7712892-1.8173986 1.2046081-2.9081796 1.2046081h-7.53875094c-1.09077638 0-2.13687657-.4333189-2.90817034-1.2046081-.77129147-.7712892-1.20459882-1.8175834-1.20459882-2.908272v-.9174534c0-1.0911506.43330735-2.137029 1.20459882-2.908503.77129377-.771012 1.81739396-1.2043309 2.90817034-1.2043309h7.53875094c1.090781 0 2.1368905.4333189 2.9081796 1.2043309zm80.2359694 0c.771012.771474 1.2043309 1.8173524 1.2043309 2.908503v.9174534c0 1.0906886-.4333189 2.1369828-1.2043309 2.908272-.7714739.7712892-1.8178143 1.2046081-2.9085029 1.2046081h-7.5387325c-1.0906886 0-2.1365671-.4333189-2.908041-1.2046081-.771474-.7712892-1.2047929-1.8175834-1.2047929-2.908272v-.9174534c0-1.0911506.4333189-2.137029 1.2047929-2.908503.7714739-.771012 1.8173524-1.2043309 2.908041-1.2043309h7.5387325c1.0906886 0 2.137029.4333189 2.9085029 1.2043309zm-82.5173148-22.5353544c2.0113757 1.1609066 4.5173726 2.6077667 6.5287483 3.7691353.944663.5455753 1.6339541 1.4436264 1.9162582 2.4973581.282304 1.0537318.1345228 2.1762957-.4108677 3.1210048-.1524931.2637794-.3063721.5303306-.4588191.794572-.5453905.9447091-1.4437188 1.6339541-2.4973119 1.9162119-1.0535932.2822578-2.1762033.1344305-3.1208662-.4106828-2.0113758-1.1613686-4.51737261-2.6082287-6.52874839-3.7695973-.94466291-.5451133-1.63395409-1.4436264-1.91625812-2.4973581-.28230403-1.0532698-.13452288-2.1762957.41086762-3.1205428.15249314-.2642414.30637217-.5307926.45886531-.795034.5453905-.9447091 1.44367258-1.6339541 2.49726577-1.9162119 1.05363941-.2822578 2.17624941-.1344305 3.12086621.4111448zm74.5642038-.4111448c1.0537318.2822578 1.9517829.9715028 2.4973582 1.9162119.1524469.2642414.3062797.5307926.4587267.795034.5455753.9442471.6934026 2.067273.4111448 3.1205428-.2827198 1.0537317-.9719648 1.9522448-1.9166739 2.4973581-2.0113758 1.1613686-4.5170492 2.6082287-6.528425 3.7695973-.9447091.5451133-2.067273.6929406-3.1210048.4106828-1.0537317-.2822578-1.9517828-.9715028-2.4973581-1.9162119-.152447-.2642414-.3062798-.5307926-.4587268-.794572-.5455752-.9447091-.6934026-2.067273-.4111447-3.1210048.2827197-1.0537317.9719647-1.9517828 1.9166738-2.4973581 2.0113758-1.1613686 4.5170493-2.6082287 6.528425-3.7691353.9447092-.5455753 2.067273-.6934026 3.1210048-.4111448zm-59.3243135-15.89605889c1.0535931.2827198 1.9519214.97196478 2.4973119 1.91667389 1.1612762 2.01137577 2.6080901 4.5170492 3.7693663 6.528425.5453905.9447091.6931716 2.067273.4108676 3.1210048-.282304 1.0537317-.9715952 1.9517828-1.9162581 2.4973581-.2641028.152447-.5306078.3062798-.7947568.4587268-.9446167.5455752-2.0672268.6934026-3.12082.4111447-1.0536393-.2827197-1.9519214-.9719647-2.4973119-1.9166738-1.1612762-2.0113758-2.6080901-4.5170493-3.7693663-6.528425-.5453905-.9447092-.6932178-2.067273-.4108676-3.12100481.282304-1.05373177.9715952-1.95178287 1.9162119-2.49735816.264149-.15244695.530654-.30627977.7947568-.45872672.9446629-.54557529 2.067273-.69340263 3.1208662-.4111448zm44.0842384.4111448c.2642414.15244695.5307926.30627977.795034.45872672.9447091.54557529 1.6339541 1.44362639 1.9162119 2.49735816.2822578 1.05373181.1344305 2.17629561-.4111448 3.12100481-1.1609066 2.0113757-2.6077667 4.5170492-3.7691353 6.528425-.5455753.9447091-1.4436264 1.6339541-2.4973581 1.9166738-1.0537318.2822579-2.1762957.1344305-3.1210048-.4111447-.2637794-.152447-.5303306-.3062798-.794572-.4587268-.9447091-.5455753-1.6339541-1.4436264-1.9162119-2.4973581-.2822578-1.0537318-.1344305-2.1762957.4106828-3.1210048 1.1613686-2.0113758 2.6082287-4.51704923 3.7695973-6.528425.5451133-.94470911 1.4436264-1.63395409 2.4973581-1.91667389 1.0532698-.28225783 2.1762957-.13443049 3.1205428.4111448zm-20.2352533-4.99702613c.771012.77147394 1.2043309 1.81781435 1.2043309 2.90850296v7.53873246c0 1.0906886-.4333189 2.1365671-1.2043309 2.908041-.771474.771474-1.8173524 1.2047929-2.908503 1.2047929h-.9174534c-1.0906886 0-2.1369828-.4333189-2.908272-1.2047929-.7712892-.7714739-1.2046081-1.8173524-1.2046081-2.908041v-7.53873246c0-1.09068861.4333189-2.13702902 1.2046081-2.90850296.7712892-.77101198 1.8175834-1.20433088 2.908272-1.20433088h.9174534c1.0911506 0 2.137029.4333189 2.908503 1.20433088z"/></defs><g fill="#ffd33b" fill-rule="evenodd" xlink:href="#a"><path d="m48.034647 19.4822578c15.7394543 0 28.5182042 12.7782879 28.5182042 28.5177422 0 15.7394081-12.7787499 28.5178346-28.5182042 28.5178346-15.7392233 0-28.5176497-12.7784265-28.5176497-28.5178346 0-15.7394543 12.7784264-28.5177422 28.5176497-28.5177422z"/><path d="m48.4587267 0c1.0911506 0 2.137029.4333189 2.908503 1.20433088.771012.77147394 1.2043309 1.81781435 1.2043309 2.90850296v7.53873246c0 1.0906886-.4333189 2.1365671-1.2043309 2.908041-.771474.771474-1.8173524 1.2047929-2.908503 1.2047929h-.9174534c-1.0906886 0-2.1369828-.4333189-2.908272-1.2047929-.7712892-.7714739-1.2046081-1.8173524-1.2046081-2.908041v-7.53873246c0-1.09068861.4333189-2.13702902 1.2046081-2.90850296.7712892-.77101198 1.8175834-1.20433088 2.908272-1.20433088z"/><path d="m24.3973784 6.20135701c.9446629-.54557529 2.067273-.69340263 3.1208662-.4111448 1.0535931.2827198 1.9519214.97196478 2.4973119 1.91667389 1.1612762 2.01137577 2.6080901 4.5170492 3.7693663 6.528425.5453905.9447091.6931716 2.067273.4108676 3.1210048-.282304 1.0537317-.9715952 1.9517828-1.9162581 2.4973581-.2641028.152447-.5306078.3062798-.7947568.4587268-.9446167.5455752-2.0672268.6934026-3.12082.4111447-1.0536393-.2827197-1.9519214-.9719647-2.4973119-1.9166738-1.1612762-2.0113758-2.6080901-4.5170493-3.7693663-6.528425-.5453905-.9447092-.6932178-2.067273-.4108676-3.12100481.282304-1.05373177.9715952-1.95178287 1.9162119-2.49735816.264149-.15244695.530654-.30627977.7947568-.45872672z"/><path d="m6.66022232 23.602483c.5453905-.9447091 1.44367258-1.6339541 2.49726577-1.9162119 1.05363941-.2822578 2.17624941-.1344305 3.12086621.4111448 2.0113757 1.1609066 4.5173726 2.6077667 6.5287483 3.7691353.944663.5455753 1.6339541 1.4436264 1.9162582 2.4973581.282304 1.0537318.1345228 2.1762957-.4108677 3.1210048-.1524931.2637794-.3063721.5303306-.4588191.794572-.5453905.9447091-1.4437188 1.6339541-2.4973119 1.9162119-1.0535932.2822578-2.1762033.1344305-3.1208662-.4106828-2.0113758-1.1613686-4.51737261-2.6082287-6.52874839-3.7695973-.94466291-.5451133-1.63395409-1.4436264-1.91625812-2.4973581-.28230403-1.0532698-.13452288-2.1762957.41086762-3.1205428.15249314-.2642414.30637217-.5307926.45886531-.795034z"/><path d="m0 47.5412733c0-1.0911506.43330735-2.137029 1.20459882-2.908503.77129377-.771012 1.81739396-1.2043309 2.90817034-1.2043309h7.53875094c1.090781 0 2.1368905.4333189 2.9081796 1.2043309.7712892.771474 1.2046081 1.8173524 1.2046081 2.908503v.9174534c0 1.0906886-.4333189 2.1369828-1.2046081 2.908272-.7712891.7712892-1.8173986 1.2046081-2.9081796 1.2046081h-7.53875094c-1.09077638 0-2.13687657-.4333189-2.90817034-1.2046081-.77129147-.7712892-1.20459882-1.8175834-1.20459882-2.908272z"/><path d="m6.20135701 71.6026216c-.5453905-.9446629-.69317165-2.067273-.41086762-3.1208662.28230403-1.0535931.97159521-1.9519214 1.91625812-2.4973119l6.52874839-3.7693663c.9446629-.5453905 2.067273-.6931716 3.1208662-.4108676 1.0535931.282304 1.9519214.9715952 2.4973119 1.9162581.152447.2641028.306326.5306078.4588191.7947568.5453905.9446167.6931717 2.0672268.4108677 3.12082-.2823041 1.0536393-.9715952 1.9519214-1.9162582 2.4973119l-6.5287483 3.7693663c-.9446168.5453905-2.0672268.6932178-3.12086621.4108676-1.05359319-.282304-1.95187527-.9715952-2.49726577-1.9162119-.15249314-.264149-.30637217-.530654-.45886531-.7947568z"/><path d="m23.6026216 89.3397777c-.9446167-.5453905-1.6339079-1.4436726-1.9162119-2.4972658-.2823502-1.0536394-.1345229-2.1762494.4108676-3.1208662l3.7693663-6.5287483c.5453905-.944663 1.4436726-1.6339541 2.4973119-1.9162582 1.0535932-.282304 2.1762033-.1345228 3.12082.4108677.264149.1524931.530654.3063721.7947568.4588191.9446629.5453905 1.6339541 1.4437188 1.9162581 2.4973119.282304 1.0535932.1345229 2.1762033-.4108676 3.1208662l-3.7693663 6.5287484c-.5453905.9446629-1.4437188 1.6339541-2.4973119 1.9162581-1.0535932.282304-2.1762033.1345229-3.1208662-.4108676-.2641028-.1524932-.5306078-.3063722-.7947568-.4588653z"/><path d="m47.5412733 96c-1.0906886 0-2.1369828-.4333073-2.908272-1.2045988-.7712892-.7712938-1.2046081-1.817394-1.2046081-2.9081704v-7.5387509c0-1.090781.4333189-2.1368905 1.2046081-2.9081796.7712892-.7712892 1.8175834-1.2046081 2.908272-1.2046081h.9174534c1.0911506 0 2.137029.4333189 2.908503 1.2046081.771012.7712891 1.2043309 1.8173986 1.2043309 2.9081796v7.5387509c0 1.0907764-.4333189 2.1368766-1.2043309 2.9081704-.771474.7712915-1.8173524 1.2045988-2.908503 1.2045988z"/><path d="m71.602483 89.798643c-.9442471.5453905-2.067273.6931716-3.1205428.4108676-1.0537317-.282304-1.9522448-.9715952-2.4973581-1.9162581-1.1613686-2.0113758-2.6082287-4.5173726-3.7695973-6.5287484-.5451133-.9446629-.6929406-2.067273-.4106828-3.1208662.2822578-1.0535931.9715028-1.9519214 1.9162119-2.4973119.2642414-.152447.5307926-.306326.794572-.4588191.9447091-.5453905 2.067273-.6931717 3.1210048-.4108677 1.0537317.2823041 1.9517828.9715952 2.4973581 1.9162582 1.1613686 2.0113757 2.6082287 4.5173726 3.7691353 6.5287483.5455753.9446168.6934026 2.0672268.4111448 3.1208662-.2822578 1.0535932-.9715028 1.9518753-1.9162119 2.4972658-.2642414.1524931-.5307926.3063721-.795034.4588653z"/><path d="m89.3399163 72.3973784c-.5455753.9446167-1.4436264 1.6339079-2.4973582 1.9162119-1.0537318.2823502-2.1762956.1345229-3.1210048-.4108676-2.0113757-1.1612762-4.5170492-2.6080901-6.528425-3.7693663-.9447091-.5453905-1.6339541-1.4436726-1.9166738-2.4973119-.2822579-1.0535932-.1344305-2.1762033.4111447-3.12082.152447-.264149.3062798-.530654.4587268-.7947568.5455753-.9446629 1.4436264-1.6339541 2.4973581-1.9162581 1.0537318-.282304 2.1762957-.1345229 3.1210048.4108676 2.0113758 1.1612762 4.5170492 2.6080901 6.528425 3.7693663.9447091.5453905 1.6339541 1.4437188 1.9166739 2.4973119.2822578 1.0535932.1344305 2.1762033-.4111448 3.1208662-.152447.2641028-.3062798.5306078-.4587267.7947568z"/><path d="m96 48.4587267c0 1.0906886-.4333189 2.1369828-1.2043309 2.908272-.7714739.7712892-1.8178143 1.2046081-2.9085029 1.2046081h-7.5387325c-1.0906886 0-2.1365671-.4333189-2.908041-1.2046081-.771474-.7712892-1.2047929-1.8175834-1.2047929-2.908272v-.9174534c0-1.0911506.4333189-2.137029 1.2047929-2.908503.7714739-.771012 1.8173524-1.2043309 2.908041-1.2043309h7.5387325c1.0906886 0 2.137029.4333189 2.9085029 1.2043309.771012.771474 1.2043309 1.8173524 1.2043309 2.908503z"/><path d="m89.798643 24.397517c.5455753.9442471.6934026 2.067273.4111448 3.1205428-.2827198 1.0537317-.9719648 1.9522448-1.9166739 2.4973581-2.0113758 1.1613686-4.5170492 2.6082287-6.528425 3.7695973-.9447091.5451133-2.067273.6929406-3.1210048.4106828-1.0537317-.2822578-1.9517828-.9715028-2.4973581-1.9162119-.152447-.2642414-.3062798-.5307926-.4587268-.794572-.5455752-.9447091-.6934026-2.067273-.4111447-3.1210048.2827197-1.0537317.9719647-1.9517828 1.9166738-2.4973581 2.0113758-1.1613686 4.5170493-2.6082287 6.528425-3.7691353.9447092-.5455753 2.067273-.6934026 3.1210048-.4111448s1.9517829.9715028 2.4973582 1.9162119c.1524469.2642414.3062797.5307926.4587267.795034z"/><path d="m72.397517 6.66008373c.9447091.54557529 1.6339541 1.44362639 1.9162119 2.49735816.2822578 1.05373181.1344305 2.17629561-.4111448 3.12100481-1.1609066 2.0113757-2.6077667 4.5170492-3.7691353 6.528425-.5455753.9447091-1.4436264 1.6339541-2.4973581 1.9166738-1.0537318.2822579-2.1762957.1344305-3.1210048-.4111447-.2637794-.152447-.5303306-.3062798-.794572-.4587268-.9447091-.5455753-1.6339541-1.4436264-1.9162119-2.4973581-.2822578-1.0537318-.1344305-2.1762957.4106828-3.1210048 1.1613686-2.0113758 2.6082287-4.51704923 3.7695973-6.528425.5451133-.94470911 1.4436264-1.63395409 2.4973581-1.91667389 1.0532698-.28225783 2.1762957-.13443049 3.1205428.4111448.2642414.15244695.5307926.30627977.795034.45872672z"/></g></svg>