<svg height="187" viewBox="0 0 193 187" width="193" xmlns="http://www.w3.org/2000/svg" xmlns:xlink="http://www.w3.org/1999/xlink"><defs><path id="a" d="m129.659508 33.6583219v9.6408364c0 4.7569639-.989254 9.285492-2.773168 13.3909908 3.352507-2.965435 7.353729-5.3069019 11.87845-6.7769285l9.16789-2.9781259c17.668027-5.7405069 36.672828 3.9426326 42.413335 21.610449 5.740718 17.6678164-3.942633 36.6724053-21.610661 42.4129123l-9.16789 2.980241c-4.52472 1.470026-9.13722 1.929013-13.592141 1.499638 3.8557 2.271667 7.317772 5.355551 10.114206 9.203002l5.666054 7.798544c10.919443 15.030229 7.582799 36.097085-7.446584 47.01547-15.029171 10.9205-36.096027 7.582799-47.01547-7.445315l-5.666054-7.798544c-2.7964344-3.849566-4.6579746-8.094664-5.6275576-12.464556-.9693715 4.369892-2.8309117 8.61499-5.6273466 12.464556l-5.6660537 7.798544c-10.9194423 15.028114-31.9862987 18.365815-47.0156817 7.445315-15.0291715-10.918385-18.3658147-31.985241-7.4463723-47.01547l5.6660537-7.798544c2.7964348-3.847451 6.2585062-6.931335 10.1142062-9.203002-4.454921.429375-9.0674203-.029612-13.5921411-1.499638l-9.1678898-2.980241c-17.66796449-5.740507-27.35140002-24.7450959-21.61074511-42.4129123s24.74539181-27.3509559 42.41341971-21.610449l9.1678898 2.9781259c4.5247208 1.4700266 8.5259429 3.8114935 11.8782381 6.7769285-1.7837028-4.1054988-2.7729566-8.6340269-2.7729566-13.3909908v-9.6408364c0-18.5773293 15.0822616-33.6583219 33.6593794-33.6583219 18.5773296 0 33.6595906 15.0809926 33.6595906 33.6583219z"/></defs><g fill="none" fill-rule="evenodd" transform="translate(.2864 .942)" xlink:href="#a"><path d="m46.024723 115.438335c-4.454921.429375-9.0674203-.029612-13.5921411-1.499638l-9.1678898-2.980241c-17.66796449-5.740507-27.35140002-24.7450959-21.61074511-42.4129123s24.74539181-27.3509559 42.41341971-21.610449l9.1678898 2.9781259c4.5247208 1.4700266 8.5259429 3.8114935 11.8782381 6.7769285-1.7837028-4.1054988-2.7729566-8.6340269-2.7729566-13.3909908v-9.6408364c0-18.5773293 15.0822616-33.6583219 33.6593794-33.6583219 18.5773296 0 33.6595906 15.0809926 33.6595906 33.6583219v9.6408364c0 4.7569639-.989254 9.285492-2.773168 13.3909908 3.352507-2.965435 7.353729-5.3069019 11.87845-6.7769285l9.16789-2.9781259c17.668027-5.7405069 36.672828 3.9426326 42.413335 21.610449 5.740718 17.6678164-3.942633 36.6724053-21.610661 42.4129123l-9.16789 2.980241c-4.52472 1.470026-9.13722 1.929013-13.592141 1.499638 3.8557 2.271667 7.317772 5.355551 10.114206 9.203002l5.666054 7.798544c10.919443 15.030229 7.582799 36.097085-7.446584 47.01547-15.029171 10.9205-36.096027 7.582799-47.01547-7.445315l-5.666054-7.798544c-2.7964344-3.849566-4.6579746-8.094664-5.6275576-12.464556-.9693715 4.369892-2.8309117 8.61499-5.6273466 12.464556l-5.6660537 7.798544c-10.9194423 15.028114-31.9862987 18.365815-47.0156817 7.445315-15.0291715-10.918385-18.3658147-31.985241-7.4463723-47.01547l5.6660537-7.798544c2.7964348-3.847451 6.2585062-6.931335 10.1142062-9.203002z" fill="#ff6c89"/><path d="m95.9999174 54.8393961c23.8131626 0 43.1464446 19.3324365 43.1464446 43.1468678 0 23.8123161-19.333282 43.1468681-43.1464446 43.1468681-23.8129508 0-43.1462333-19.334552-43.1462333-43.1468681 0-23.8144313 19.3332825-43.1468678 43.1462333-43.1468678z" fill="#ffc9c4"/><g fill="#000"><path d="m74.6927804 97.1698175c0 1.7999894-1.4622006 3.2636705-3.2632476 3.2636705-1.8008355 0-3.2630361-1.4636811-3.2630361-3.2636705 0-6.4702323 5.2523311-11.7221404 11.7219289-11.7221404 6.4693862 0 11.7219288 5.2519081 11.7219288 11.7221404 0 1.7999894-1.4622006 3.2636705-3.2632476 3.2636705s-3.2632476-1.4636811-3.2632476-3.2636705c0-2.8681383-2.3279299-5.1947991-5.1954336-5.1947991-2.8675038 0-5.1956452 2.3266608-5.1956452 5.1947991z"/><path d="m106.997832 97.1698175c0 1.7999894-1.462201 3.2636705-3.263036 3.2636705-1.801047 0-3.263248-1.4636811-3.263248-3.2636705 0-6.4702323 5.252331-11.7221404 11.721929-11.7221404s11.721929 5.2519081 11.721929 11.7221404c0 1.7999894-1.462201 3.2636705-3.263248 3.2636705s-3.263247-1.4636811-3.263247-3.2636705c0-2.8681383-2.32793-5.1947991-5.195434-5.1947991s-5.195645 2.3266608-5.195645 5.1947991z"/></g></g></svg>