<svg height="177" viewBox="0 0 820 177" width="820" xmlns="http://www.w3.org/2000/svg" xmlns:xlink="http://www.w3.org/1999/xlink"><defs><path id="a" d="m122.600988 31.826v9.116c0 4.498-.9354 8.78-2.6222 12.662 3.17-2.804 6.9534-5.018 11.2318-6.408l8.6688-2.816c16.7062-5.428 34.6764 3.728 40.1044 20.434 5.4282 16.706-3.728 34.676-20.4342 40.104l-8.6688 2.818c-4.2784 1.39-8.6398 1.824-12.8522 1.418 3.6458 2.148 6.9194 5.064 9.5636 8.702l5.3576 7.374c10.325 14.212 7.17 34.132-7.0412 44.456-14.211 10.326-34.131 7.17-44.456-7.04l-5.3576001-7.374c-2.6442-3.64-4.4044-7.654-5.3212-11.786-.9166 4.132-2.6768 8.146-5.321 11.786l-5.3576 7.374c-10.325 14.21-30.245 17.366-44.4562 7.04-14.211-10.324-17.366-30.244-7.041-44.456l5.3576-7.374c2.6442-3.638 5.9178-6.554 9.5636-8.702-4.2124.406-8.5738-.028-12.8522-1.418l-8.6688-2.818c-16.70613996-5.428-25.86241996-23.398-20.43427996-40.104s23.39827996-25.862 40.10447996-20.434l8.6688 2.816c4.2784 1.39 8.0618 3.604 11.2316 6.408-1.6866-3.882-2.622-8.164-2.622-12.662v-9.116c0-17.566 14.2612-31.826 31.827-31.826 17.5660001 0 31.8272001 14.26 31.8272001 31.826zm300.6306 75.792v18.102c0 6.144 2.16 7.306 7.806 7.14v23.25c-4.65 1.162-7.14 1.826-13.95 1.826-11.79 0-18.766-4.816-21.92-12.122-4.816 7.14-13.452 12.288-27.734 12.288-18.1 0-30.058-8.802-30.058-24.412 0-17.934 15.112-26.57 41.184-29.726l12.788-1.494v-1.66c0-6.976-2.658-10.462-9.632-10.462-6.144 0-9.632 2.988-9.964 9.464h-31.386c0-21.92 15.444-30.058 42.18-30.058 31.554 0 40.686 17.936 40.686 37.864zm191.974 0v18.102c0 6.144 2.158 7.306 7.806 7.14v23.25c-4.65 1.162-7.142 1.826-13.95 1.826-11.792 0-18.766-4.816-21.922-12.122-4.816 7.14-13.45 12.288-27.732 12.288-18.102 0-30.058-8.802-30.058-24.412 0-17.934 15.112-26.57 41.184-29.726l12.788-1.494v-1.66c0-6.976-2.658-10.462-9.632-10.462-6.146 0-9.632 2.988-9.964 9.464h-31.388c0-21.92 15.444-30.058 42.182-30.058 31.552 0 40.686 17.936 40.686 37.864zm-89.012-2.99v51.482h-33.214v-43.51c0-10.96-3.486-15.776-10.794-15.776-7.804 0-13.95 5.646-13.95 17.104v42.182h-33.212v-84.362h28.896l1.826 11.624c7.14-9.466 16.938-13.618 29.892-13.618 20.758 0 30.556 13.618 30.556 34.874zm-262.22-18.432h36.038v-43.012h34.542v112.926h-34.542v-40.686h-36.038v40.686h-34.542v-112.926h34.542zm512.15 18.432v51.482h-33.212v-43.51c0-10.96-3.488-15.776-10.796-15.776-7.97 0-13.948 5.646-13.948 17.104v42.182h-33.214v-43.51c0-10.96-3.488-15.776-10.794-15.776-7.806 0-13.95 5.646-13.95 17.104v42.182h-33.214v-84.362h28.896l1.826 11.624c7.308-9.3 16.94-13.618 29.892-13.618 12.622 0 21.258 4.982 26.074 13.784 8.302-9.798 18.598-13.784 31.884-13.784 20.758 0 30.556 13.618 30.556 34.874zm40.6874 51.482h-33.2134v-84.3618h33.2134zm-433.2694-35.372c-9.798 1.162-13.616 4.15-13.616 8.634 0 4.318 2.656 6.81 8.302 6.81 7.64 0 13.12-6.146 13.12-14.946v-1.33zm191.974 0c-9.798 1.162-13.618 4.15-13.618 8.634 0 4.318 2.658 6.81 8.304 6.81 7.638 0 13.12-6.146 13.12-14.946v-1.33zm243.62-75.562c0 9.964-7.806 16.11-18.932 16.11s-18.932-6.146-18.932-16.11c0-10.13 7.806-16.108 18.932-16.108s18.932 5.978 18.932 16.108z"/></defs><g fill="none" fill-rule="evenodd" xlink:href="#a"><g transform="translate(.2864 .942)"><path d="m43.5191879 109.154c-4.2124.406-8.5738-.028-12.8522-1.418l-8.6688-2.818c-16.70613996-5.428-25.86241996-23.398-20.43427996-40.104s23.39827996-25.862 40.10447996-20.434l8.6688 2.816c4.2784 1.39 8.0618 3.604 11.2316 6.408-1.6866-3.882-2.622-8.164-2.622-12.662v-9.116c0-17.566 14.2612-31.826 31.827-31.826 17.5660001 0 31.8272001 14.26 31.8272001 31.826v9.116c0 4.498-.9354 8.78-2.6222 12.662 3.17-2.804 6.9534-5.018 11.2318-6.408l8.6688-2.816c16.7062-5.428 34.6764 3.728 40.1044 20.434 5.4282 16.706-3.728 34.676-20.4342 40.104l-8.6688 2.818c-4.2784 1.39-8.6398 1.824-12.8522 1.418 3.6458 2.148 6.9194 5.064 9.5636 8.702l5.3576 7.374c10.325 14.212 7.17 34.132-7.0412 44.456-14.211 10.326-34.131 7.17-44.456-7.04l-5.3576001-7.374c-2.6442-3.64-4.4044-7.654-5.3212-11.786-.9166 4.132-2.6768 8.146-5.321 11.786l-5.3576 7.374c-10.325 14.21-30.245 17.366-44.4562 7.04-14.211-10.324-17.366-30.244-7.041-44.456l5.3576-7.374c2.6442-3.638 5.9178-6.554 9.5636-8.702z" fill="#ff6c89"/><path d="m90.7737879 51.854c22.5168001 0 40.7976001 18.28 40.7976001 40.798 0 22.516-18.2808 40.798-40.7976001 40.798-22.5166 0-40.7974-18.282-40.7974-40.798 0-22.518 18.2808-40.798 40.7974-40.798z" fill="#ffc9c4"/><g fill="#000"><path d="m70.6265879 91.88c0 1.702-1.3826 3.086-3.0856 3.086-1.7028 0-3.0854-1.384-3.0854-3.086 0-6.118 4.9664-11.084 11.0838-11.084 6.1172 0 11.0838 4.966 11.0838 11.084 0 1.702-1.3826 3.086-3.0856 3.086s-3.0856-1.384-3.0856-3.086c0-2.712-2.2012-4.912-4.9126-4.912s-4.9128 2.2-4.9128 4.912z"/><path d="m101.172988 91.88c0 1.702-1.3826001 3.086-3.0854001 3.086-1.703 0-3.0856-1.384-3.0856-3.086 0-6.118 4.9664-11.084 11.0838001-11.084 6.1174 0 11.0838 4.966 11.0838 11.084 0 1.702-1.3826 3.086-3.0856 3.086s-3.0856-1.384-3.0856-3.086c0-2.712-2.2012-4.912-4.9126-4.912s-4.9128 2.2-4.9128 4.912z"/></g></g><g fill="#ff6c89" transform="translate(229.718 30.01)"><path d="m70.58 127.042h34.542v-112.926h-34.542v43.012h-36.038v-43.012h-34.542v112.926h34.542v-40.686h36.038z"/><path d="m138.002 129.034c14.282 0 22.918-5.148 27.734-12.288 3.154 7.306 10.13 12.122 21.92 12.122 6.81 0 9.3-.664 13.95-1.826v-23.25c-5.646.166-7.806-.996-7.806-7.14v-18.102c0-19.928-9.132-37.864-40.686-37.864-26.736 0-42.18 8.138-42.18 30.058h31.386c.332-6.476 3.82-9.464 9.964-9.464 6.974 0 9.632 3.486 9.632 10.462v1.66l-12.788 1.494c-26.072 3.156-41.184 11.792-41.184 29.726 0 15.61 11.958 24.412 30.058 24.412zm2.492-28.73c0-4.484 3.818-7.472 13.616-8.634l7.806-.832v1.33c0 8.8-5.48 14.946-13.12 14.946-5.646 0-8.302-2.492-8.302-6.81z"/><path d="m205.592 127.042h33.212v-42.182c0-11.458 6.146-17.104 13.95-17.104 7.308 0 10.794 4.816 10.794 15.776v43.51h33.214v-51.482c0-21.256-9.798-34.874-30.556-34.874-12.954 0-22.752 4.152-29.892 13.618l-1.826-11.624h-28.896z"/><path d="m329.976 129.034c14.282 0 22.916-5.148 27.732-12.288 3.156 7.306 10.13 12.122 21.922 12.122 6.808 0 9.3-.664 13.95-1.826v-23.25c-5.648.166-7.806-.996-7.806-7.14v-18.102c0-19.928-9.134-37.864-40.686-37.864-26.738 0-42.182 8.138-42.182 30.058h31.388c.332-6.476 3.818-9.464 9.964-9.464 6.974 0 9.632 3.486 9.632 10.462v1.66l-12.788 1.494c-26.072 3.156-41.184 11.792-41.184 29.726 0 15.61 11.956 24.412 30.058 24.412zm2.49-28.73c0-4.484 3.82-7.472 13.618-8.634l7.806-.832v1.33c0 8.8-5.482 14.946-13.12 14.946-5.646 0-8.304-2.492-8.304-6.81z"/><path d="m397.564 127.042h33.214v-42.182c0-11.458 6.144-17.104 13.95-17.104 7.306 0 10.794 4.816 10.794 15.776v43.51h33.214v-42.182c0-11.458 5.978-17.104 13.948-17.104 7.308 0 10.796 4.816 10.796 15.776v43.51h33.212v-51.482c0-21.256-9.798-34.874-30.556-34.874-13.286 0-23.582 3.986-31.884 13.784-4.816-8.802-13.452-13.784-26.074-13.784-12.952 0-22.584 4.318-29.892 13.618l-1.826-11.624h-28.896z"/><path d="m554.166 127.042h33.2134v-84.3618h-33.2134zm16.606-94.824c11.126 0 18.932-6.146 18.932-16.11 0-10.13-7.806-16.108-18.932-16.108s-18.932 5.978-18.932 16.108c0 9.964 7.806 16.11 18.932 16.11z"/></g></g></svg>