<svg height="109" viewBox="0 0 97 109" width="97" xmlns="http://www.w3.org/2000/svg" xmlns:xlink="http://www.w3.org/1999/xlink"><defs><path id="a" d="m63.3652013 24.7425157c0 .9043644-.030192 1.7974648-.0890662 2.6768627.7321542-.4906188 1.4905522-.9633547 2.2738004-1.4155369 11.8261775-6.8279041 24.8700186-6.4088169 29.1102423.9353691 4.2401077 7.3441861-1.918813 18.8500969-13.7451066 25.6778849-.7832482.4522982-1.571722.8726627-2.3627505 1.2613257.7910285.3887791 1.5795023.8091437 2.3627505 1.2613258 11.8262936 6.8279041 17.9852143 18.3338149 13.7451066 25.678001-4.2402237 7.3440699-17.2840648 7.7632732-29.1102423.9353691-.7832482-.4521822-1.5416462-.9249181-2.2738004-1.4155369.0588742.8793979.0890662 1.7724983.0890662 2.6768626 0 13.6557734-6.8849204 24.7425162-15.3652519 24.7425162-8.4802153 0-15.3651357-11.0867428-15.3651357-24.7425162 0-.9043643.0301919-1.7974647.0889501-2.6768626-.7320381.4906188-1.4904361.9633547-2.2736843 1.4155369-11.8261775 6.8279041-24.87013471 6.4087008-29.11024238-.9353691-4.2401425-7.3441861 1.91881303-18.8500969 13.74499048-25.678001.7832483-.4521821 1.5718382-.8725467 2.3628666-1.2613258-.7910284-.388663-1.5796183-.8090275-2.3628666-1.2613257-11.82617745-6.827788-17.98513298-18.3336988-13.74499048-25.6778849 4.24010767-7.344186 17.28406488-7.7632732 29.11024238-.9353691.7832482.4521822 1.5416462.9249181 2.2736843 1.4155369-.0587582-.8793979-.0889501-1.7724983-.0889501-2.6768627 0-13.6558082 6.8849204-24.7425157 15.3651357-24.7425157 8.4803315 0 15.3652519 11.0867075 15.3652519 24.7425157z"/></defs><g fill="none" fill-rule="evenodd" transform="translate(.7964 .9286)" xlink:href="#a"><path d="m17.4476942 53.8784212c-.7910284-.388663-1.5796183-.8090275-2.3628666-1.2613257-11.82617745-6.827788-17.98513298-18.3336988-13.74499048-25.6778849 4.24010767-7.344186 17.28406488-7.7632732 29.11024238-.9353691.7832482.4521822 1.5416462.9249181 2.2736843 1.4155369-.0587582-.8793979-.0889501-1.7724983-.0889501-2.6768627 0-13.6558082 6.8849204-24.7425157 15.3651357-24.7425157 8.4803315 0 15.3652519 11.0867075 15.3652519 24.7425157 0 .9043644-.030192 1.7974648-.0890662 2.6768627.7321542-.4906188 1.4905522-.9633547 2.2738004-1.4155369 11.8261775-6.8279041 24.8700186-6.4088169 29.1102423.9353691 4.2401077 7.3441861-1.918813 18.8500969-13.7451066 25.6778849-.7832482.4522982-1.571722.8726627-2.3627505 1.2613257.7910285.3887791 1.5795023.8091437 2.3627505 1.2613258 11.8262936 6.8279041 17.9852143 18.3338149 13.7451066 25.678001-4.2402237 7.3440699-17.2840648 7.7632732-29.1102423.9353691-.7832482-.4521822-1.5416462-.9249181-2.2738004-1.4155369.0588742.8793979.0890662 1.7724983.0890662 2.6768626 0 13.6557734-6.8849204 24.7425162-15.3652519 24.7425162-8.4802153 0-15.3651357-11.0867428-15.3651357-24.7425162 0-.9043643.0301919-1.7974647.0889501-2.6768626-.7320381.4906188-1.4904361.9633547-2.2736843 1.4155369-11.8261775 6.8279041-24.87013471 6.4087008-29.11024238-.9353691-4.2401425-7.3441861 1.91881303-18.8500969 13.74499048-25.678001.7832483-.4521821 1.5718382-.8725467 2.3628666-1.2613258z" fill="#0063ff"/><path d="m47.9999494 30.1908811c13.0735685 0 23.6876563 10.6140877 23.6876563 23.6875401 0 13.0735686-10.6140878 23.6876563-23.6876563 23.6876563-13.0734524 0-23.6875401-10.6140877-23.6875401-23.6876563 0-13.0734524 10.6140877-23.6875401 23.6875401-23.6875401z" fill="#9cf"/></g></svg>