<svg height="224" viewBox="0 0 224 224" width="224" xmlns="http://www.w3.org/2000/svg" xmlns:xlink="http://www.w3.org/1999/xlink"><defs><path d="m138.9312 61.543c0 1.5576-.052 3.0958-.1534 4.6104 1.261-.845 2.5672-1.6592 3.9162-2.438 20.3684-11.7598 42.834-11.038 50.137 1.611 7.3028 12.649-3.3048 32.4658-23.6734 44.2254-1.349.779-2.707 1.503-4.0694 2.1724 1.3624.6696 2.7204 1.3936 4.0694 2.1724 20.3686 11.7598 30.9762 31.5766 23.6734 44.2256-7.303 12.6488-29.7686 13.3708-50.137 1.611-1.349-.7788-2.6552-1.593-3.9162-2.438.1014 1.5146.1534 3.0528.1534 4.6104 0 23.51954-11.858 42.6144-26.4638 42.6144-14.6056 0-26.4636-19.09486-26.4636-42.6144 0-1.5576.052-3.0958.1532-4.6104-1.2608.845-2.567 1.6592-3.916 2.438-20.3684 11.7598-42.8342 11.0378-50.137-1.611-7.30286-12.649 3.3048-32.4658 23.6732-44.2256 1.349-.7788 2.7072-1.5028 4.0696-2.1724-1.3624-.6694-2.7206-1.3934-4.0696-2.1724-20.3684-11.7596-30.97606-31.5764-23.6732-44.2254 7.3028-12.649 29.7686-13.3708 50.137-1.611 1.349.7788 2.6552 1.593 3.916 2.438-.1012-1.5146-.1532-3.0528-.1532-4.6104 0-23.5196 11.858-42.6144 26.4636-42.6144 14.6058 0 26.4638 19.0948 26.4638 42.6144z"/><path id="a" d="m109.134821 42.6144c0 1.5576-.052 3.0958-.1534 4.6104 1.261-.845 2.5672-1.6592 3.9162-2.438 20.3684-11.7598 42.834-11.038 50.137 1.611 7.3028 12.649-3.3048 32.4658-23.6734 44.2254-1.349.779-2.707 1.503-4.0694 2.1724 1.3624.6696 2.7204 1.3936 4.0694 2.1724 20.3686 11.7598 30.9762 31.5766 23.6734 44.2256-7.303 12.6488-29.7686 13.3708-50.137 1.611-1.349-.7788-2.6552-1.593-3.9162-2.438.1014 1.5146.1534 3.0528.1534 4.6104 0 23.51954-11.8579998 42.6144-26.4637998 42.6144-14.6056 0-26.4636-19.09486-26.4636-42.6144 0-1.5576.052-3.0958.1532-4.6104-1.2608.845-2.567 1.6592-3.916 2.438-20.3684 11.7598-42.83419995 11.0378-50.13699995-1.611-7.30286-12.649 3.3048-32.4658 23.67319995-44.2256 1.349-.7788 2.7072-1.5028 4.0696-2.1724-1.3624-.6694-2.7206-1.3934-4.0696-2.1724-20.36839995-11.7596-30.97605995-31.5764-23.67319995-44.2254 7.3028-12.649 29.76859995-13.3708 50.13699995-1.611 1.349.7788 2.6552 1.593 3.916 2.438-.1012-1.5146-.1532-3.0528-.1532-4.6104 0-23.5196 11.858-42.6144 26.4636-42.6144 14.6058 0 26.4637998 19.0948 26.4637998 42.6144z"/></defs><g fill="none" fill-rule="evenodd" transform="translate(29.7964 18.9286)" xlink:href="#a"><path d="m30.0504212 92.7956c-1.3624-.6694-2.7206-1.3934-4.0696-2.1724-20.36839995-11.7596-30.97605995-31.5764-23.67319995-44.2254 7.3028-12.649 29.76859995-13.3708 50.13699995-1.611 1.349.7788 2.6552 1.593 3.916 2.438-.1012-1.5146-.1532-3.0528-.1532-4.6104 0-23.5196 11.858-42.6144 26.4636-42.6144 14.6058 0 26.4637998 19.0948 26.4637998 42.6144 0 1.5576-.052 3.0958-.1534 4.6104 1.261-.845 2.5672-1.6592 3.9162-2.438 20.3684-11.7598 42.834-11.038 50.137 1.611 7.3028 12.649-3.3048 32.4658-23.6734 44.2254-1.349.779-2.707 1.503-4.0694 2.1724 1.3624.6696 2.7204 1.3936 4.0694 2.1724 20.3686 11.7598 30.9762 31.5766 23.6734 44.2256-7.303 12.6488-29.7686 13.3708-50.137 1.611-1.349-.7788-2.6552-1.593-3.9162-2.438.1014 1.5146.1534 3.0528.1534 4.6104 0 23.51954-11.8579998 42.6144-26.4637998 42.6144-14.6056 0-26.4636-19.09486-26.4636-42.6144 0-1.5576.052-3.0958.1532-4.6104-1.2608.845-2.567 1.6592-3.916 2.438-20.3684 11.7598-42.83419995 11.0378-50.13699995-1.611-7.30286-12.649 3.3048-32.4658 23.67319995-44.2256 1.349-.7788 2.7072-1.5028 4.0696-2.1724z" fill="#0063ff"/><path d="m82.6710212 51.9982c22.5167998 0 40.7975998 18.2808 40.7975998 40.7974 0 22.5168-18.2808 40.7976-40.7975998 40.7976-22.5166 0-40.7974-18.2808-40.7974-40.7976 0-22.5166 18.2808-40.7974 40.7974-40.7974z" fill="#9cf"/><g fill="#000"><path d="m68.4264212 76.303c3.411 0 6.1806 4.8426 6.1806 10.8074s-2.7696 10.8076-6.1806 10.8076c-3.4112 0-6.1806-4.8428-6.1806-10.8076s2.7694-10.8074 6.1806-10.8074z"/><path d="m96.9158212 76.303c3.4111998 0 6.1805998 4.8426 6.1805998 10.8074s-2.7694 10.8076-6.1805998 10.8076c-3.4112 0-6.1806-4.8428-6.1806-10.8076s2.7694-10.8074 6.1806-10.8074z"/></g></g></svg>