<svg height="187" viewBox="0 0 572 187" width="572" xmlns="http://www.w3.org/2000/svg" xmlns:xlink="http://www.w3.org/1999/xlink"><defs><path id="a" d="m109.134821 42.6144c0 1.5576-.052 3.0958-.1534 4.6104 1.261-.845 2.5672-1.6592 3.9162-2.438 20.3684-11.7598 42.834-11.038 50.137 1.611 7.3028 12.649-3.3048 32.4658-23.6734 44.2254-1.349.779-2.707 1.503-4.0694 2.1724 1.3624.6696 2.7204 1.3936 4.0694 2.1724 20.3686 11.7598 30.9762 31.5766 23.6734 44.2256-7.303 12.6488-29.7686 13.3708-50.137 1.611-1.349-.7788-2.6552-1.593-3.9162-2.438.1014 1.5146.1534 3.0528.1534 4.6104 0 23.51954-11.8579998 42.6144-26.4637998 42.6144-14.6056 0-26.4636-19.09486-26.4636-42.6144 0-1.5576.052-3.0958.1532-4.6104-1.2608.845-2.567 1.6592-3.916 2.438-20.3684 11.7598-42.83419995 11.0378-50.13699995-1.611-7.30286-12.649 3.3048-32.4658 23.67319995-44.2256 1.349-.7788 2.7072-1.5028 4.0696-2.1724-1.3624-.6694-2.7206-1.3934-4.0696-2.1724-20.36839995-11.7596-30.97605995-31.5764-23.67319995-44.2254 7.3028-12.649 29.76859995-13.3708 50.13699995-1.611 1.349.7788 2.6552 1.593 3.916 2.438-.1012-1.5146-.1532-3.0528-.1532-4.6104 0-23.5196 11.858-42.6144 26.4636-42.6144 14.6058 0 26.4637998 19.0948 26.4637998 42.6144zm306.4028 63.4666c0 25.7404-17.934 44.1738-49.488 44.1738-30.722 0-49.488-18.4334-49.488-44.1738 0-25.5742 18.766-44.1738 49.488-44.1738 31.554 0 49.488 18.5996 49.488 44.1738zm-98.642-31.7188c0 14.1158-7.142 25.0762-17.438 32.051 1.66 1.4946 2.99 3.4874 4.484 5.9784l21.09 35.8704h-39.524l-14.78-25.5744c-2.656-4.6498-4.318-6.4766-10.628-6.4766h-8.636v32.051h-34.542v-112.9254h47.496c32.216 0 52.478 11.7908 52.478 39.0256zm253.416 22.419v51.4808h-33.212v-43.5096c0-10.9604-3.488-15.7762-10.794-15.7762-7.972 0-13.95 5.6462-13.95 17.1048v42.181h-33.214v-43.5096c0-10.9604-3.488-15.7762-10.794-15.7762-7.806 0-13.95 5.6462-13.95 17.1048v42.181h-33.214v-84.362h28.896l1.828 11.6248c7.306-9.2998 16.938-13.6176 29.892-13.6176 12.62 0 21.256 4.982 26.072 13.7836 8.304-9.798 18.6-13.7836 31.884-13.7836 20.758 0 30.556 13.6176 30.556 34.874zm-219.706 9.2998c0 11.7908 7.308 18.1012 15.444 18.1012 8.138 0 15.446-6.3104 15.446-18.1012 0-11.6246-7.308-17.9352-15.446-17.9352-8.136 0-15.444 6.3106-15.444 17.9352zm-99.142-45.5022v30.224h13.12c10.462 0 16.606-5.8122 16.606-15.278s-5.978-14.946-16.938-14.946z"/></defs><g fill="none" fill-rule="evenodd" xlink:href="#a"><g transform="translate(.7964 .9286)"><path d="m30.0504212 92.7956c-1.3624-.6694-2.7206-1.3934-4.0696-2.1724-20.36839995-11.7596-30.97605995-31.5764-23.67319995-44.2254 7.3028-12.649 29.76859995-13.3708 50.13699995-1.611 1.349.7788 2.6552 1.593 3.916 2.438-.1012-1.5146-.1532-3.0528-.1532-4.6104 0-23.5196 11.858-42.6144 26.4636-42.6144 14.6058 0 26.4637998 19.0948 26.4637998 42.6144 0 1.5576-.052 3.0958-.1534 4.6104 1.261-.845 2.5672-1.6592 3.9162-2.438 20.3684-11.7598 42.834-11.038 50.137 1.611 7.3028 12.649-3.3048 32.4658-23.6734 44.2254-1.349.779-2.707 1.503-4.0694 2.1724 1.3624.6696 2.7204 1.3936 4.0694 2.1724 20.3686 11.7598 30.9762 31.5766 23.6734 44.2256-7.303 12.6488-29.7686 13.3708-50.137 1.611-1.349-.7788-2.6552-1.593-3.9162-2.438.1014 1.5146.1534 3.0528.1534 4.6104 0 23.51954-11.8579998 42.6144-26.4637998 42.6144-14.6056 0-26.4636-19.09486-26.4636-42.6144 0-1.5576.052-3.0958.1532-4.6104-1.2608.845-2.567 1.6592-3.916 2.438-20.3684 11.7598-42.83419995 11.0378-50.13699995-1.611-7.30286-12.649 3.3048-32.4658 23.67319995-44.2256 1.349-.7788 2.7072-1.5028 4.0696-2.1724z" fill="#0063ff"/><path d="m82.6710212 51.9982c22.5167998 0 40.7975998 18.2808 40.7975998 40.7974 0 22.5168-18.2808 40.7976-40.7975998 40.7976-22.5166 0-40.7974-18.2808-40.7974-40.7976 0-22.5166 18.2808-40.7974 40.7974-40.7974z" fill="#9cf"/><g fill="#000"><path d="m68.4264212 76.303c3.411 0 6.1806 4.8426 6.1806 10.8074s-2.7696 10.8076-6.1806 10.8076c-3.4112 0-6.1806-4.8428-6.1806-10.8076s2.7694-10.8074 6.1806-10.8074z"/><path d="m96.9158212 76.303c3.4111998 0 6.1805998 4.8426 6.1805998 10.8074s-2.7694 10.8076-6.1805998 10.8076c-3.4112 0-6.1806-4.8428-6.1806-10.8076s2.7694-10.8074 6.1806-10.8074z"/></g></g><g fill="#0063ff" transform="translate(217.718 36.2652)"><path d="m0 112.9254h34.542v-32.051h8.636c6.31 0 7.972 1.8268 10.628 6.4766l14.78 25.5744h39.524l-21.09-35.8704c-1.494-2.491-2.824-4.4838-4.484-5.9784 10.296-6.9748 17.438-17.9352 17.438-32.051 0-27.2348-20.262-39.0256-52.478-39.0256h-47.496zm34.542-57.4592v-30.224h12.788c10.96 0 16.938 5.4802 16.938 14.946s-6.144 15.278-16.606 15.278z"/><path d="m149.128 114.9182c31.554 0 49.488-18.4334 49.488-44.1738 0-25.5742-17.934-44.1738-49.488-44.1738-30.722 0-49.488 18.5996-49.488 44.1738 0 25.7404 18.766 44.1738 49.488 44.1738zm0-26.0726c-8.136 0-15.444-6.3104-15.444-18.1012 0-11.6246 7.308-17.9352 15.444-17.9352 8.138 0 15.446 6.3106 15.446 17.9352 0 11.7908-7.308 18.1012-15.446 18.1012z"/><path d="m204.262 112.9254h33.214v-42.181c0-11.4586 6.144-17.1048 13.95-17.1048 7.306 0 10.794 4.8158 10.794 15.7762v43.5096h33.214v-42.181c0-11.4586 5.978-17.1048 13.95-17.1048 7.306 0 10.794 4.8158 10.794 15.7762v43.5096h33.212v-51.4808c0-21.2564-9.798-34.874-30.556-34.874-13.284 0-23.58 3.9856-31.884 13.7836-4.816-8.8016-13.452-13.7836-26.072-13.7836-12.954 0-22.586 4.3178-29.892 13.6176l-1.828-11.6248h-28.896z"/></g></g></svg>