<svg height="183" viewBox="0 0 505 183" width="505" xmlns="http://www.w3.org/2000/svg" xmlns:xlink="http://www.w3.org/1999/xlink"><defs><path id="a" d="m458.75822 107.426 15.778-43.01h29.558l-35.372 85.192c-10.13 24.08-20.26 32.382-38.526 32.382-9.466 0-13.618-.664-20.26-1.826v-26.57c7.14.83 9.964 1.162 16.108 1.162 8.302 0 12.454-2.326 15.112-8.47l.332-.996-37.034-80.874h37.366zm-346.3548-85.49v15.574l11.013-11.012c8.5606-8.562 22.461-8.562 31.0218 0 8.5606 8.56 8.5606 22.46 0 31.022l-11.013 11.012h15.5746c12.1066 0 21.9358 9.83 21.9358 21.936s-9.8292 21.936-21.9358 21.936h-15.5746l11.013 11.012c8.5606 8.562 8.5606 22.462 0 31.022-8.5608 8.562-22.4612 8.562-31.0218 0l-11.013-11.012v15.574c0 12.106-9.829 21.936-21.9356 21.936-12.1068 0-21.9358-9.83-21.9358-21.936v-15.574l-11.0128 11.012c-8.5608 8.562-22.4612 8.562-31.0218 0-8.5608-8.56-8.5608-22.46 0-31.022l11.0128-11.012h-15.5744c-12.1068 0-21.93582-9.83-21.93582-21.936s9.82902-21.936 21.93582-21.936h15.5744l-11.0128-11.012c-8.5608-8.562-8.5608-22.462 0-31.022 8.5606-8.562 22.461-8.562 31.0218 0l11.0128 11.012v-15.574c0-12.106 9.829-21.936 21.9358-21.936 12.1066 0 21.9356 9.83 21.9356 21.936zm223.7988 69.714c0 32.882-21.922 57.128-66.096 57.128h-44.838v-112.926h44.838c44.174 0 66.096 22.918 66.096 55.798zm65.43-27.234v28.728c-1.826-.664-4.318-1.162-7.474-1.162-12.288 0-21.588 7.308-21.588 24.578v32.218h-33.214v-84.362h27.236l1.494 16.274c4.982-12.29 13.452-17.936 24.246-17.936 3.986 0 6.808.498 9.3 1.662zm-141.822-1.994v59.784h10.464c16.44 0 30.224-10.13 30.224-29.726s-13.618-30.058-30.224-30.058z"/></defs><g fill="none" fill-rule="evenodd" xlink:href="#a"><g transform="translate(.4498 .24)"><path d="m37.51022 112.404h-15.5744c-12.1068 0-21.93582-9.83-21.93582-21.936s9.82902-21.936 21.93582-21.936h15.5744l-11.0128-11.012c-8.5608-8.562-8.5608-22.462 0-31.022 8.5606-8.562 22.461-8.562 31.0218 0l11.0128 11.012v-15.574c0-12.106 9.829-21.936 21.9358-21.936 12.1066 0 21.9356 9.83 21.9356 21.936v15.574l11.013-11.012c8.5606-8.562 22.461-8.562 31.0218 0 8.5606 8.56 8.5606 22.46 0 31.022l-11.013 11.012h15.5746c12.1066 0 21.9358 9.83 21.9358 21.936s-9.8292 21.936-21.9358 21.936h-15.5746l11.013 11.012c8.5606 8.562 8.5606 22.462 0 31.022-8.5608 8.562-22.4612 8.562-31.0218 0l-11.013-11.012v15.574c0 12.106-9.829 21.936-21.9356 21.936-12.1068 0-21.9358-9.83-21.9358-21.936v-15.574l-11.0128 11.012c-8.5608 8.562-22.4612 8.562-31.0218 0-8.5608-8.56-8.5608-22.46 0-31.022z" fill="#ff8000"/><path d="m91.69542 47.606c22.5166 0 40.7974 18.28 40.7974 40.798 0 22.516-18.2808 40.798-40.7974 40.798-22.5168 0-40.7976-18.282-40.7976-40.798 0-22.518 18.2808-40.798 40.7976-40.798z" fill="#ffc266"/><g fill="#000"><path d="m70.51742 80.438c-1.367-.734-1.8812-2.44-1.1476-3.806.7334-1.368 2.4388-1.882 3.8058-1.148l12.2848 6.592c.9172.492 1.4874 1.452 1.4816438 2.492-.0058438 1.042-.5864438 1.994-1.5092438 2.476l-12.1438 6.344c-1.375.72-3.0746.186-3.7928-1.19-.7184-1.374-.1852-3.074 1.1898-3.792l7.4386-3.886z"/><path d="m110.21502 75.484c1.367-.734 3.0724-.22 3.8058 1.148.7336 1.366.2194 3.072-1.1476 3.806l-7.6072 4.082 7.4386 3.886c1.375.718 1.9082 2.418 1.1898 3.792-.7182 1.376-2.4178 1.91-3.7928 1.19l-12.1438-6.344c-.9228-.482-1.5034-1.434-1.5092438-2.476-.0057562-1.04.5644438-2 1.4816438-2.492z"/></g></g><g fill="#ff8000" transform="translate(225.718 36.092)"><path d="m0 112.926h44.838c44.174 0 66.096-24.246 66.096-57.128 0-32.88-21.922-55.798-66.096-55.798h-44.838zm34.542-26.572v-59.784h10.464c16.606 0 30.224 10.462 30.224 30.058s-13.784 29.726-30.224 29.726z"/><path d="m114.088 112.926h33.214v-32.218c0-17.27 9.3-24.578 21.588-24.578 3.156 0 5.648.498 7.474 1.162v-28.728c-2.492-1.164-5.314-1.662-9.3-1.662-10.794 0-19.264 5.646-24.246 17.936l-1.494-16.274h-27.236z"/><path d="m204.928 146.138c18.266 0 28.396-8.302 38.526-32.382l35.372-85.192h-29.558l-15.778 43.01-16.938-43.01h-37.366l37.034 80.874-.332.996c-2.658 6.144-6.81 8.47-15.112 8.47-6.144 0-8.968-.332-16.108-1.162v26.57c6.642 1.162 10.794 1.826 20.26 1.826z"/></g></g></svg>