<svg height="192" viewBox="0 0 192 192" width="192" xmlns="http://www.w3.org/2000/svg" xmlns:xlink="http://www.w3.org/1999/xlink"><defs><path id="a" d="m102.853542 175.219845v9.927895c0 3.784122-3.0679402 6.852063-6.8526542 6.852063-3.7862923 0-6.85443-3.067941-6.85443-6.852063v-9.927895c0-3.786095 3.0681377-6.854035 6.8526544-6.854035h.0017756c3.784714 0 6.8526542 3.06794 6.8526542 6.854035zm-34.5479687-12.362517c3.498044 1.45012 5.1584804 5.457185 3.7101363 8.953256-1.1942279 2.884456-2.6046913 6.289771-3.7991165 9.172254-1.4483441 3.498044-5.4567908 5.157297-8.9534537 3.70915-3.498044-1.448147-5.1584805-5.457185-3.7101364-8.953256 1.1944252-2.884456 2.6046914-6.289771 3.7991165-9.172254 1.4483441-3.496071 5.4567908-5.157297 8.9534538-3.70915zm64.3423067 3.70915c1.194426 2.882483 2.604889 6.287798 3.799117 9.172254 1.448344 3.496071-.212092 7.505109-3.708558 8.953256-3.498044 1.448147-7.506688-.211106-8.955032-3.70915-1.194228-2.882483-2.604691-6.287798-3.799117-9.172254-1.448344-3.496071.212093-7.503136 3.708558-8.953256 3.498242-1.448147 7.506688.213079 8.955032 3.70915zm-87.8198444-19.396092c2.6774933 2.677296 2.6774933 7.015818.0013811 9.691141-2.2069442 2.207733-4.8130165 4.814003-7.0199607 7.019763-2.6761122 2.677296-7.0150284 2.677296-9.6911405 0-2.677296-2.677296-2.677296-7.015818-.0011838-9.691141 2.2069442-2.207733 4.8130165-4.814003 7.0199607-7.019763 2.6761122-2.677296 7.0148311-2.677296 9.6909432 0zm112.0350694 0c2.206747 2.20576 4.813016 4.81203 7.019763 7.019763 2.676112 2.675323 2.676112 7.013845 0 9.691141-2.677296 2.677296-7.016212 2.677296-9.692324 0-2.206747-2.20576-4.813017-4.81203-7.019763-7.019763-2.676113-2.675323-2.676113-7.013845 0-9.691141 2.677296-2.677296 7.016212-2.677296 9.692324 0zm6.639378-51.1704846c0 37.2098756-30.209842 67.4197176-67.4201123 67.4197176-37.2102704 0-67.4201123-30.209842-67.4201123-67.4197176 0-37.2098759 30.2098419-67.4216908 67.4201123-67.4216908 37.2102703 0 67.4201123 30.2118149 67.4201123 67.4216908zm-134.3613892 27.6923546c1.4491333 3.498044-.2113031 7.507083-3.7077688 8.95523-2.8834694 1.193636-6.2886071 2.604297-9.1720568 3.797933-3.4965051 1.450119-7.50505047-.211106-8.95335512-3.707177-1.44897545-3.498044.21142154-7.507083 3.70792662-8.95523 2.88343-1.193636 6.2885282-2.604296 9.1719977-3.799905 3.4964656-1.448147 7.5051096.213078 8.9532564 3.709149zm142.6710692-3.709149c2.883469 1.195609 6.288587 2.606269 9.172056 3.799905 3.496466 1.448147 5.156903 5.457186 3.708558 8.953257-1.448936 3.498044-5.457382 5.159269-8.954045 3.70915-2.88347-1.193636-6.28839-2.604297-9.17186-3.797933-3.496465-1.448147-5.156902-5.457186-3.708755-8.953257 1.449133-3.498044 5.45758-5.159269 8.954046-3.711122zm-148.179354-23.9851786c0 3.786095-3.0679405 6.8540356-6.8525163 6.8540356h-9.92767777c-3.78459556 0-6.85261493-3.0679406-6.85261493-6.8520626 0-3.7860951 3.06801937-6.8540355 6.85261493-6.8540355h9.92767777c3.7845758 0 6.8525163 3.0679404 6.8525163 6.8520625zm168.367191 0c0 3.786095-3.06794 6.8540356-6.852457 6.8540356h-9.927698c-3.784714 0-6.852654-3.0679406-6.852654-6.8520626 0-3.7860951 3.06794-6.8540355 6.852654-6.8540355h9.927698c3.784517 0 6.852457 3.0679404 6.852457 6.8520625zm-175.7387318-40.4455172c2.8834497 1.193636 6.2885874 2.6042967 9.1720568 3.7999056 3.4964657 1.4481468 5.1569021 5.4552125 3.708558 8.9532565-1.448936 3.498044-5.45758 5.1572967-8.9540456 3.7091499-2.8834695-1.193636-6.2885677-2.6042968-9.1719977-3.7979328-3.49650508-1.4501197-5.15690207-5.4571854-3.70861715-8.9552294 1.44899518-3.498044 5.45754055-5.1572966 8.95404565-3.7091498zm168.4309178 3.7091498c1.448936 3.498044-.211501 7.5051097-3.707967 8.9552294-2.883469 1.193636-6.288587 2.6042968-9.172056 3.7979328-3.496466 1.4481468-7.504913-.2111059-8.953257-3.7091499-1.448936-3.498044.211501-7.5051097 3.707966-8.9532565 2.88347-1.1956089 6.28839-2.6062696 9.17186-3.7999056 3.496663-1.4481468 7.505109.2111058 8.953454 3.7091498zm-20.810501-31.1450212c2.677295 2.677296 2.677295 7.0158175.001183 9.6931135-2.206747 2.2057604-4.813016 4.8120301-7.019763 7.0197634-2.676112 2.675323-7.015028 2.675323-9.691141 0-2.677296-2.6772959-2.677296-7.0177905-.001183-9.6931135 2.206746-2.2077333 4.813016-4.81203 7.019763-7.0197634 2.676112-2.675323 7.015028-2.675323 9.691141 0zm-126.072229 0c2.2069442 2.2077334 4.8130165 4.8120301 7.0199607 7.0197634 2.6761122 2.675323 2.6761122 7.0158176 0 9.6911406-2.6774932 2.6772959-7.0162121 2.6772959-9.6923243.0019729-2.2069442-2.2077333-4.8130165-4.814003-7.0199607-7.0197634-2.6761122-2.677296-2.6761122-7.0158175 0-9.6911405 2.6772959-2.677296 7.0162121-2.677296 9.6923243-.001973zm30.4071371-17.1015484c1.1944252 2.8844559 2.6048886 6.2877982 3.7991165 9.1722541 1.4483441 3.496071-.2120923 7.5051096-3.708558 8.9532564-3.4982413 1.4481468-7.506688-.2111058-8.9550321-3.7071769-1.1944251-2.8844559-2.6046913-6.2897712-3.7991165-9.1722541-1.4483441-3.4960711.2120924-7.50510966 3.708558-8.95325647 3.4982413-1.45011976 7.506688.21110587 8.9550321 3.70717697zm64.5202679-3.70914992c3.498044 1.45011976 5.15848 5.45915832 3.710136 8.95522942-1.194228 2.8824829-2.604691 6.2877982-3.799117 9.1722541-1.448344 3.4960711-5.45679 5.1553237-8.953256 3.7071769-3.498241-1.4481468-5.158678-5.4571854-3.710334-8.9532564 1.194426-2.8844559 2.604889-6.2877982 3.799117-9.1722541 1.448344-3.4960711 5.456988-5.15729673 8.953454-3.70914992zm-29.883319-.45377897v9.92789479c0 3.784122-3.0679402 6.8520625-6.8526542 6.8520625-3.7862923 0-6.85443-3.0679405-6.85443-6.8520625v-9.92789479c0-3.78412206 3.0681377-6.85206251 6.8526544-6.85206251h.0017756c3.784714 0 6.8526542 3.06794045 6.8526542 6.85206251z"/></defs><g fill="none" fill-rule="evenodd" xlink:href="#a"><path d="m96.0823707 28.5782106c37.2102703 0 67.4201123 30.2118149 67.4201123 67.4216908 0 37.2098756-30.209842 67.4197176-67.4201123 67.4197176-37.2102704 0-67.4201123-30.209842-67.4201123-67.4197176 0-37.2098759 30.2098419-67.4216908 67.4201123-67.4216908z" fill="#ffd33b"/><path d="m53.8201593 88.7571943c3.0758322 0 5.5729976 2.4957844 5.5729976 5.5716167 0 3.0758322-2.4971654 5.5735895-5.5729976 5.5735895-3.0758323 0-5.5729977-2.4977573-5.5729977-5.5735895 0-3.0758323 2.4971654-5.5716167 5.5729977-5.5716167z" fill="#ffea89"/><path d="m138.344582 88.7571943c3.075833 0 5.572998 2.4957844 5.572998 5.5716167 0 3.0758322-2.497165 5.5735895-5.572998 5.5735895-3.075832 0-5.572997-2.4977573-5.572997-5.5735895 0-3.0758323 2.497165-5.5716167 5.572997-5.5716167z" fill="#ffea89"/><path d="m73.5707904 75.1852571c3.9113775 0 7.0868438 3.1764528 7.0868438 7.0868438 0 3.912364-3.1754663 7.0868438-7.0868438 7.0868438-3.9113774 0-7.0868438-3.1744798-7.0868438-7.0868438 0-3.910391 3.1754664-7.0868438 7.0868438-7.0868438z" fill="#000"/><path d="m118.593951 75.1852571c3.911378 0 7.086844 3.1764528 7.086844 7.0868438 0 3.912364-3.175466 7.0868438-7.086844 7.0868438-3.911377 0-7.086844-3.1744798-7.086844-7.0868438 0-3.910391 3.175467-7.0868438 7.086844-7.0868438z" fill="#000"/><path d="m111.715254 102.609291c.891577-1.74409 3.031638-2.436596 4.775925-1.544822 1.744287.891775 2.436596 3.032428 1.544821 4.776517-4.020679 7.86616-12.205668 13.254292-21.6387461 13.254292-10.0529799 0-18.6881965-6.120097-22.3768277-14.836599-.7637297-1.803279.0810883-3.888689 1.8851557-4.6522213 1.8040674-.7635324 3.8886885.0808911 4.652221 1.8861423 2.6113993 6.169421 8.7230129 10.503997 15.839451 10.503997 6.6782451 0 12.4712271-3.817663 15.3180001-9.387306z" fill="#000"/><g fill="#ffd33b"><path d="m96.0008878 0c3.784714 0 6.8526542 3.06794045 6.8526542 6.85206251v9.92789479c0 3.784122-3.0679402 6.8520625-6.8526542 6.8520625h-.0017756c-3.7845167 0-6.8526544-3.0679405-6.8526544-6.8520625v-9.92789479c0-3.78412206 3.0681377-6.85206251 6.8526544-6.85206251z"/><path d="m59.2631394 7.30584148c3.4966629-1.44814681 7.5051096.21307882 8.9534537 3.70914992 1.1944252 2.8844559 2.6048886 6.2877982 3.7991165 9.1722541 1.4483441 3.496071-.2120923 7.5051096-3.708558 8.9532564h-.0015783c-3.496663 1.4481468-7.5051097-.2111058-8.9534538-3.7071769-1.1944251-2.8844559-2.6046913-6.2897712-3.7991165-9.1722541-1.4483441-3.4960711.2120924-7.50510966 3.708558-8.95325647.0005919 0 .0011838-.00197295.0015784-.00197295z"/><path d="m28.1183155 28.1165398c2.6761121-2.675323 7.0150283-2.675323 9.6911405 0 2.2069442 2.2077334 4.8130165 4.8120301 7.0199607 7.0197634 2.6761122 2.675323 2.6761122 7.0158176 0 9.6911406-.0003946 0-.0007892 0-.0013811.0019729-2.6761121 2.675323-7.014831 2.675323-9.6909432 0-2.2069442-2.2077333-4.8130165-4.814003-7.0199607-7.0197634-2.6761122-2.677296-2.6761122-7.0158175 0-9.6911405.0003946-.001973.0007892-.001973.0011838-.001973z"/><path d="m7.30791308 59.261561c1.44830465-3.498044 5.45685002-5.1572966 8.95335512-3.7091498 2.8834497 1.193636 6.2885874 2.6042967 9.1720568 3.7999056 3.4964657 1.4481468 5.1569021 5.4552125 3.708558 8.9532565h-.0007892c-1.4481468 3.498044-5.4567908 5.1572967-8.9532564 3.7091499-2.8834695-1.193636-6.2885677-2.6042968-9.1719977-3.7979328-3.49650508-1.4501197-5.15690207-5.4571854-3.70861715-8.9552294z"/><path d="m0 95.9979284c0-3.7841221 3.06801937-6.8520625 6.85261493-6.8520625h9.92767777c3.7845758 0 6.8525163 3.0679404 6.8525163 6.8520625v.001973c0 3.784122-3.0679405 6.8520626-6.8525163 6.8520626h-9.92767777c-3.78459556 0-6.85261493-3.0679406-6.85261493-6.8520626z"/><path d="m7.30722255 132.736269c-1.44828492-3.496071.21211207-7.50511 3.70861715-8.953257 2.88343-1.193636 6.2885282-2.604296 9.1719977-3.799905 3.4964656-1.448147 7.5051096.213078 8.9532564 3.709149.0003946 0 .0005919.001973.0007892.001973 1.4483441 3.496071-.2120923 7.50511-3.708558 8.953257-2.8834694 1.193636-6.2886071 2.604297-9.1720568 3.797933-3.4965051 1.450119-7.50505047-.211106-8.95335512-3.707177-.00023676-.001973-.00045378-.001973-.00069053-.001973z"/><path d="m28.1171317 163.88129c-2.6761122-2.677296-2.6761122-7.015818 0-9.691141 2.2069442-2.207733 4.8130165-4.814003 7.0199607-7.019763 2.6761122-2.677296 7.0148311-2.677296 9.6909432 0h.0013811c2.6761122 2.677296 2.6761122 7.015818 0 9.691141-2.2069442 2.207733-4.8130165 4.814003-7.0199607 7.019763-2.6761122 2.677296-7.0150284 2.677296-9.6911405 0z"/><path d="m59.261561 184.691988c-3.4964656-1.448147-5.1569021-5.457185-3.708558-8.953256 1.1944252-2.884456 2.6046914-6.289771 3.7991165-9.172254 1.4483441-3.496071 5.4567908-5.157297 8.9534538-3.70915h.0015783c3.4964657 1.45012 5.1569021 5.457185 3.708558 8.953256-1.1942279 2.884456-2.6046913 6.289771-3.7991165 9.172254-1.4483441 3.498044-5.4567908 5.157297-8.9534537 3.70915z"/><path d="m95.9991122 191.999803c-3.7845167 0-6.8526544-3.067941-6.8526544-6.852063v-9.927895c0-3.786095 3.0681377-6.854035 6.8526544-6.854035h.0017756c3.784714 0 6.8526542 3.06794 6.8526542 6.854035v9.927895c0 3.784122-3.0679402 6.852063-6.8526542 6.852063z"/><path d="m132.736861 184.691988c-3.496466 1.448147-7.50511-.211106-8.953454-3.70915-1.194228-2.882483-2.604691-6.287798-3.799117-9.172254-1.448344-3.496071.212093-7.503136 3.708558-8.953256h.001776c3.496466-1.448147 7.504912.213079 8.953256 3.70915 1.194426 2.882483 2.604889 6.287798 3.799117 9.172254 1.448344 3.496071-.212092 7.505109-3.708558 8.953256z"/><path d="m163.881685 163.88129c-2.676113 2.677296-7.015029 2.677296-9.691141 0-2.206747-2.20576-4.813017-4.81203-7.019763-7.019763-2.676113-2.675323-2.676113-7.013845 0-9.691141h.001183c2.676113-2.677296 7.015029-2.677296 9.691141 0 2.206747 2.20576 4.813016 4.81203 7.019763 7.019763 2.676112 2.675323 2.676112 7.013845 0 9.691141z"/><path d="m184.692186 132.738242c-1.448345 3.496071-5.456791 5.157296-8.953454 3.707177-2.88347-1.193636-6.28839-2.604297-9.17186-3.797933-3.496465-1.448147-5.156902-5.457186-3.708755-8.953257.000395 0 .000592-.001973.000789-.001973 1.448344-3.496071 5.456791-5.157296 8.953257-3.709149 2.883469 1.195609 6.288587 2.606269 9.172056 3.799905 3.496466 1.448147 5.156903 5.457186 3.708558 8.953257-.000197 0-.000394 0-.000591.001973z"/><path d="m192 95.9999014c0 3.784122-3.06794 6.8520626-6.852457 6.8520626h-9.927698c-3.784714 0-6.852654-3.0679406-6.852654-6.8520626v-.001973c0-3.7841221 3.06794-6.8520625 6.852654-6.8520625h9.927698c3.784517 0 6.852457 3.0679404 6.852457 6.8520625z"/><path d="m184.692777 59.261561c1.448345 3.498044-.212092 7.5051097-3.708558 8.9552294-2.883469 1.193636-6.288587 2.6042968-9.172056 3.7979328-3.496466 1.4481468-7.504913-.2111059-8.953257-3.7091499h-.000789c-1.448147-3.498044.21229-7.5051097 3.708755-8.9532565 2.88347-1.1956089 6.28839-2.6062696 9.17186-3.7999056 3.496663-1.4481468 7.505109.2111058 8.953454 3.7091498z"/><path d="m163.882868 28.1185128c2.676112 2.675323 2.676112 7.0138445 0 9.6911405-2.206747 2.2057604-4.813016 4.8120301-7.019763 7.0197634-2.676112 2.675323-7.015028 2.675323-9.691141 0-.000394-.0019729-.000789-.0019729-.001183-.0019729-2.676113-2.675323-2.676113-7.0158176 0-9.6911406 2.206746-2.2077333 4.813016-4.81203 7.019763-7.0197634 2.676112-2.675323 7.015028-2.675323 9.691141 0 .000394 0 .000789 0 .001183.001973z"/><path d="m132.738439 7.30781443c3.496466 1.44814681 5.156902 5.45718537 3.708558 8.95325647-1.194228 2.8824829-2.604691 6.2877982-3.799117 9.1722541-1.448344 3.4960711-5.45679 5.1553237-8.953256 3.7071769h-.001776c-3.496465-1.4481468-5.156902-5.4571854-3.708558-8.9532564 1.194426-2.8844559 2.604889-6.2877982 3.799117-9.1722541 1.448344-3.4960711 5.456988-5.15729673 8.953454-3.70914992.000591 0 .000986.00197295.001578.00197295z"/></g></g></svg>