<?xml version="1.0" encoding="UTF-8"?>
<svg width="859px" height="195px" viewBox="0 0 859 195" version="1.1" xmlns="http://www.w3.org/2000/svg" xmlns:xlink="http://www.w3.org/1999/xlink">
    <title>hanakai_logo_light</title>
    <defs>
        <path d="M104.2636,177.622 L104.2636,187.686 C104.2636,191.522 101.1536,194.632 97.317,194.632 C93.4788,194.632 90.3686,191.522 90.3686,187.686 L90.3686,177.622 C90.3686,173.784 93.4788,170.674 97.3152,170.674 L97.317,170.674 C101.1536,170.674 104.2636,173.784 104.2636,177.622 Z M69.242,165.09 C72.788,166.56 74.4712,170.622 73.003,174.166 C71.7924,177.09 70.3626,180.542 69.1518,183.464 C67.6836,187.01 63.6202,188.692 60.0756,187.224 C56.5296,185.756 54.8464,181.692 56.3146,178.148 C57.5254,175.224 58.955,171.772 60.1658,168.85 C61.634,165.306 65.6974,163.622 69.242,165.09 Z M134.4664,168.85 C135.6772,171.772 137.107,175.224 138.3176,178.148 C139.7858,181.692 138.1026,185.756 134.5582,187.224 C131.0122,188.692 126.9486,187.01 125.4804,183.464 C124.2698,180.542 122.84,177.09 121.6292,174.166 C120.161,170.622 121.8442,166.56 125.3886,165.09 C128.9348,163.622 132.9982,165.306 134.4664,168.85 Z M45.4426,149.188 C48.1568,151.902 48.1568,156.3 45.444,159.012 C43.2068,161.25 40.565,163.892 38.3278,166.128 C35.615,168.842 31.2166,168.842 28.5038,166.128 C25.7898,163.414 25.7898,159.016 28.5026,156.304 C30.7398,154.066 33.3816,151.424 35.6188,149.188 C38.3316,146.474 42.7298,146.474 45.4426,149.188 Z M159.0136,149.188 C161.2506,151.424 163.8926,154.066 166.1296,156.304 C168.8424,159.016 168.8424,163.414 166.1296,166.128 C163.4156,168.842 159.0172,168.842 156.3044,166.128 C154.0674,163.892 151.4254,161.25 149.1884,159.012 C146.4756,156.3 146.4756,151.902 149.1884,149.188 C151.9024,146.474 156.3008,146.474 159.0136,149.188 Z M165.744,97.316 C165.744,135.036 135.12,165.66 97.3996,165.66 C59.6792,165.66 29.0552,135.036 29.0552,97.316 C29.0552,59.596 59.6792,28.97 97.3996,28.97 C135.12,28.97 165.744,59.596 165.744,97.316 Z M810.314,105.106 L810.314,123.206 C810.314,129.352 812.472,130.514 818.118,130.348 L818.118,153.596 C813.468,154.76 810.978,155.424 804.168,155.424 C792.378,155.424 785.404,150.608 782.248,143.3 C777.432,150.442 768.796,155.59 754.514,155.59 C736.414,155.59 724.456,146.788 724.456,131.178 C724.456,113.242 739.568,104.608 765.642,101.452 L778.428,99.958 L778.428,98.296 C778.428,91.322 775.772,87.834 768.796,87.834 C762.652,87.834 759.164,90.824 758.832,97.3 L727.446,97.3 C727.446,75.38 742.89,67.242 769.626,67.242 C801.18,67.242 810.314,85.178 810.314,105.106 Z M430.518,105.106 L430.518,123.206 C430.518,129.352 432.678,130.514 438.324,130.348 L438.324,153.596 C433.674,154.76 431.184,155.424 424.374,155.424 C412.584,155.424 405.608,150.608 402.454,143.3 C397.638,150.442 389.002,155.59 374.72,155.59 C356.62,155.59 344.662,146.788 344.662,131.178 C344.662,113.242 359.774,104.608 385.846,101.452 L398.634,99.958 L398.634,98.296 C398.634,91.322 395.976,87.834 389.002,87.834 C382.858,87.834 379.37,90.824 379.038,97.3 L347.652,97.3 C347.652,75.38 363.096,67.242 389.832,67.242 C421.386,67.242 430.518,85.178 430.518,105.106 Z M622.492,105.106 L622.492,123.206 C622.492,129.352 624.65,130.514 630.298,130.348 L630.298,153.596 C625.648,154.76 623.156,155.424 616.348,155.424 C604.556,155.424 597.582,150.608 594.426,143.3 C589.61,150.442 580.976,155.59 566.694,155.59 C548.592,155.59 536.636,146.788 536.636,131.178 C536.636,113.242 551.748,104.608 577.82,101.452 L590.608,99.958 L590.608,98.296 C590.608,91.322 587.95,87.834 580.976,87.834 C574.83,87.834 571.344,90.824 571.012,97.3 L539.624,97.3 C539.624,75.38 555.068,67.242 581.806,67.242 C613.358,67.242 622.492,85.178 622.492,105.106 Z M533.48,102.116 L533.48,153.596 L500.266,153.596 L500.266,110.088 C500.266,99.126 496.78,94.312 489.472,94.312 C481.668,94.312 475.522,99.958 475.522,111.416 L475.522,153.596 L442.31,153.596 L442.31,69.234 L471.206,69.234 L473.032,80.86 C480.172,71.394 489.97,67.242 502.924,67.242 C523.682,67.242 533.48,80.86 533.48,102.116 Z M667.496,100.124 L672.146,100.124 L695.064,69.234 L728.94,69.234 L700.876,106.434 L729.938,153.596 L690.414,153.596 L672.312,121.712 L667.496,121.712 L667.496,153.596 L634.282,153.596 L634.282,29.046 L667.496,29.046 Z M856.1474,153.596 L822.934,153.596 L822.934,69.2342 L856.1474,69.2342 Z M271.26,83.682 L307.298,83.682 L307.298,40.672 L341.84,40.672 L341.84,153.596 L307.298,153.596 L307.298,112.91 L271.26,112.91 L271.26,153.596 L236.718,153.596 L236.718,40.672 L271.26,40.672 Z M29.5406,125.388 C31.0096,128.934 29.3264,132.998 25.782,134.466 C22.859,135.676 19.40718,137.106 16.4842,138.316 C12.93976,139.786 8.87626,138.102 7.4081,134.558 C5.93926,131.012 7.62242,126.948 11.16686,125.48 C14.08982,124.27 17.5416,122.84 20.4646,121.628 C24.009,120.16 28.0726,121.844 29.5406,125.388 Z M174.1676,121.628 C177.0906,122.84 180.5424,124.27 183.4654,125.48 C187.0098,126.948 188.693,131.012 187.2248,134.556 C185.756,138.102 181.6926,139.786 178.148,138.316 C175.225,137.106 171.7734,135.676 168.8504,134.466 C165.306,132.998 163.6228,128.934 165.0908,125.39 C166.5598,121.844 170.6232,120.16 174.1676,121.628 Z M770.624,118.224 C760.826,119.388 757.006,122.376 757.006,126.86 C757.006,131.178 759.662,133.668 765.31,133.668 C772.948,133.668 778.428,127.524 778.428,118.722 L778.428,117.394 Z M582.802,118.224 C573.004,119.388 569.184,122.376 569.184,126.86 C569.184,131.178 571.842,133.668 577.488,133.668 C585.126,133.668 590.608,127.524 590.608,118.722 L590.608,117.394 Z M390.828,118.224 C381.03,119.388 377.212,122.376 377.212,126.86 C377.212,131.178 379.868,133.668 385.514,133.668 C393.154,133.668 398.634,127.524 398.634,118.722 L398.634,117.394 Z M194.6322,97.314 C194.6322,101.152 191.5222,104.262 187.6858,104.262 L177.622,104.262 C173.7854,104.262 170.6754,101.152 170.6754,97.316 C170.6754,93.478 173.7854,90.368 177.622,90.368 L187.6858,90.368 C191.5222,90.368 194.6322,93.478 194.6322,97.314 Z M23.9568,97.314 C23.9568,101.152 20.8468,104.262 17.01034,104.262 L6.94656,104.262 C3.11008,104.262 0,101.152 0,97.316 C0,93.478 3.11008,90.368 6.94656,90.368 L17.01034,90.368 C20.8468,90.368 23.9568,93.478 23.9568,97.314 Z M187.2242,60.074 C188.693,63.62 187.0098,67.682 183.4654,69.152 C180.5424,70.362 177.0906,71.792 174.1676,73.002 C170.6232,74.47 166.5598,72.788 165.0916,69.242 C163.6228,65.696 165.306,61.634 168.8504,60.166 C171.7734,58.954 175.225,57.524 178.148,56.314 C181.6926,54.846 185.756,56.528 187.2242,60.074 Z M16.4842,56.314 C19.40718,57.524 22.859,58.954 25.782,60.166 C29.3264,61.634 31.0096,65.696 29.5414,69.242 C28.0726,72.788 24.009,74.47 20.4646,73.002 C17.5416,71.792 14.08982,70.362 11.16686,69.152 C7.62242,67.682 5.93926,63.62 7.4074,60.074 C8.87626,56.528 12.93976,54.846 16.4842,56.314 Z M858.472,42.664 C858.472,52.628 850.668,58.772 839.542,58.772 C828.414,58.772 820.61,52.628 820.61,42.664 C820.61,32.534 828.414,26.556 839.542,26.556 C850.668,26.556 858.472,32.534 858.472,42.664 Z M166.1284,28.502 C168.8424,31.216 168.8424,35.614 166.1296,38.328 C163.8926,40.564 161.2506,43.206 159.0136,45.444 C156.3008,48.156 151.9024,48.156 149.1896,45.444 C146.4756,42.73 146.4756,38.33 149.1884,35.618 C151.4254,33.38 154.0674,30.74 156.3044,28.502 C159.0172,25.79 163.4156,25.79 166.1284,28.502 Z M38.3278,28.502 C40.565,30.74 43.2068,33.38 45.444,35.618 C48.1568,38.33 48.1568,42.73 45.444,45.442 C42.7298,48.156 38.3316,48.156 35.6188,45.444 C33.3816,43.206 30.7398,40.564 28.5026,38.328 C25.7898,35.614 25.7898,31.216 28.5026,28.504 C31.2166,25.79 35.615,25.79 38.3278,28.502 Z M69.1518,11.166 C70.3626,14.09 71.7924,17.54 73.003,20.464 C74.4712,24.008 72.788,28.072 69.2436,29.54 C65.6974,31.008 61.634,29.326 60.1658,25.782 C58.955,22.858 57.5254,19.406 56.3146,16.484 C54.8464,12.94 56.5296,8.876 60.074,7.408 C63.6202,5.938 67.6836,7.622 69.1518,11.166 Z M134.5566,7.406 C138.1026,8.876 139.7858,12.94 138.3176,16.484 C137.107,19.406 135.6772,22.858 134.4664,25.782 C132.9982,29.326 128.9348,31.008 125.3904,29.54 C121.8442,28.072 120.161,24.008 121.6292,20.464 C122.84,17.54 124.2698,14.09 125.4804,11.166 C126.9486,7.622 131.0122,5.938 134.5566,7.406 Z M104.2636,6.946 L104.2636,17.01 C104.2636,20.846 101.1536,23.956 97.317,23.956 C93.4788,23.956 90.3686,20.846 90.3686,17.01 L90.3686,6.946 C90.3686,3.11 93.4788,0 97.3152,0 L97.317,0 C101.1536,0 104.2636,3.11 104.2636,6.946 Z" id="path-1"></path>
    </defs>
    <g id="hanakai_logo_light" stroke="none" fill="none" xlink:href="#path-1" fill-rule="evenodd" stroke-width="1">
        <g id="hanakai_icon">
            <path d="M97.3996,28.97 C135.12,28.97 165.744,59.596 165.744,97.316 C165.744,135.036 135.12,165.66 97.3996,165.66 C59.6792,165.66 29.0552,135.036 29.0552,97.316 C29.0552,59.596 59.6792,28.97 97.3996,28.97 Z" id="Fill-16" fill="#FFD33B"></path>
            <path d="M54.558,89.974 C57.676,89.974 60.2074,92.504 60.2074,95.622 C60.2074,98.74 57.676,101.272 54.558,101.272 C51.44,101.272 48.9086,98.74 48.9086,95.622 C48.9086,92.504 51.44,89.974 54.558,89.974 Z" id="Fill-17" fill="#FFEA89"></path>
            <path d="M140.2412,89.974 C143.3592,89.974 145.8906,92.504 145.8906,95.622 C145.8906,98.74 143.3592,101.272 140.2412,101.272 C137.1232,101.272 134.5918,98.74 134.5918,95.622 C134.5918,92.504 137.1232,89.974 140.2412,89.974 Z" id="Fill-18" fill="#FFEA89"></path>
            <path d="M74.5794,76.216 C78.5444,76.216 81.7634,79.436 81.7634,83.4 C81.7634,87.366 78.5444,90.584 74.5794,90.584 C70.6144,90.584 67.3954,87.366 67.3954,83.4 C67.3954,79.436 70.6144,76.216 74.5794,76.216 Z" id="Fill-19" fill="#000000"></path>
            <path d="M120.2198,76.216 C124.1848,76.216 127.4038,79.436 127.4038,83.4 C127.4038,87.366 124.1848,90.584 120.2198,90.584 C116.2548,90.584 113.0358,87.366 113.0358,83.4 C113.0358,79.436 116.2548,76.216 120.2198,76.216 Z" id="Fill-20" fill="#000000"></path>
            <path d="M113.2468,104.016 C114.1506,102.248 116.32,101.546 118.0882,102.45 C119.8564,103.354 120.5582,105.524 119.6542,107.292 C115.5784,115.266 107.2812,120.728 97.7188,120.728 C87.528,120.728 78.7744,114.524 75.0352,105.688 C74.261,103.86 75.1174,101.746 76.9462,100.972 C78.775,100.198 80.8882,101.054 81.6622,102.884 C84.3094,109.138 90.5048,113.532 97.7188,113.532 C104.4886,113.532 110.361,109.662 113.2468,104.016 Z" id="Fill-21" fill="#000000"></path>
            <path d="M97.317,0 C101.1536,0 104.2636,3.11 104.2636,6.946 L104.2636,17.01 C104.2636,20.846 101.1536,23.956 97.317,23.956 L97.3152,23.956 C93.4788,23.956 90.3686,20.846 90.3686,17.01 L90.3686,6.946 C90.3686,3.11 93.4788,0 97.3152,0 L97.317,0 Z" id="Fill-38" fill="#FFD33B"></path>
            <path d="M60.0756,7.406 C63.6202,5.938 67.6836,7.622 69.1518,11.166 C70.3626,14.09 71.7924,17.54 73.003,20.464 C74.4712,24.008 72.788,28.072 69.2436,29.54 L69.242,29.54 C65.6974,31.008 61.634,29.326 60.1658,25.782 C58.955,22.858 57.5254,19.406 56.3146,16.484 C54.8464,12.94 56.5296,8.876 60.074,7.408 C60.0746,7.408 60.0752,7.406 60.0756,7.406 Z" id="Fill-39" fill="#FFD33B"></path>
            <path d="M28.5038,28.502 C31.2166,25.79 35.615,25.79 38.3278,28.502 C40.565,30.74 43.2068,33.38 45.444,35.618 C48.1568,38.33 48.1568,42.73 45.444,45.442 C45.4436,45.442 45.4432,45.442 45.4426,45.444 C42.7298,48.156 38.3316,48.156 35.6188,45.444 C33.3816,43.206 30.7398,40.564 28.5026,38.328 C25.7898,35.614 25.7898,31.216 28.5026,28.504 C28.503,28.502 28.5034,28.502 28.5038,28.502 Z" id="Fill-40" fill="#FFD33B"></path>
            <path d="M7.4081,60.074 C8.87626,56.528 12.93976,54.846 16.4842,56.314 C19.40718,57.524 22.859,58.954 25.782,60.166 C29.3264,61.634 31.0096,65.696 29.5414,69.242 L29.5406,69.242 C28.0726,72.788 24.009,74.47 20.4646,73.002 C17.5416,71.792 14.08982,70.362 11.16686,69.152 C7.62242,67.682 5.93926,63.62 7.4074,60.074 L7.4081,60.074 Z" id="Fill-41" fill="#FFD33B"></path>
            <path d="M0,97.314 C0,93.478 3.11008,90.368 6.94656,90.368 L17.01034,90.368 C20.8468,90.368 23.9568,93.478 23.9568,97.314 L23.9568,97.316 C23.9568,101.152 20.8468,104.262 17.01034,104.262 L6.94656,104.262 C3.11008,104.262 0,101.152 0,97.316 L0,97.314 Z" id="Fill-42" fill="#FFD33B"></path>
            <path d="M7.4074,134.556 C5.93926,131.012 7.62242,126.948 11.16686,125.48 C14.08982,124.27 17.5416,122.84 20.4646,121.628 C24.009,120.16 28.0726,121.844 29.5406,125.388 C29.541,125.388 29.5412,125.39 29.5414,125.39 C31.0096,128.934 29.3264,132.998 25.782,134.466 C22.859,135.676 19.40718,137.106 16.4842,138.316 C12.93976,139.786 8.87626,138.102 7.4081,134.558 C7.40786,134.556 7.40764,134.556 7.4074,134.556 Z" id="Fill-43" fill="#FFD33B"></path>
            <path d="M28.5026,166.128 C25.7898,163.414 25.7898,159.016 28.5026,156.304 C30.7398,154.066 33.3816,151.424 35.6188,149.188 C38.3316,146.474 42.7298,146.474 45.4426,149.188 L45.444,149.188 C48.1568,151.902 48.1568,156.3 45.444,159.012 C43.2068,161.25 40.565,163.892 38.3278,166.128 C35.615,168.842 31.2166,168.842 28.5038,166.128 L28.5026,166.128 Z" id="Fill-44" fill="#FFD33B"></path>
            <path d="M60.074,187.224 C56.5296,185.756 54.8464,181.692 56.3146,178.148 C57.5254,175.224 58.955,171.772 60.1658,168.85 C61.634,165.306 65.6974,163.622 69.242,165.09 L69.2436,165.09 C72.788,166.56 74.4712,170.622 73.003,174.166 C71.7924,177.09 70.3626,180.542 69.1518,183.464 C67.6836,187.01 63.6202,188.692 60.0756,187.224 L60.074,187.224 Z" id="Fill-45" fill="#FFD33B"></path>
            <path d="M97.3152,194.632 C93.4788,194.632 90.3686,191.522 90.3686,187.686 L90.3686,177.622 C90.3686,173.784 93.4788,170.674 97.3152,170.674 L97.317,170.674 C101.1536,170.674 104.2636,173.784 104.2636,177.622 L104.2636,187.686 C104.2636,191.522 101.1536,194.632 97.317,194.632 L97.3152,194.632 Z" id="Fill-46" fill="#FFD33B"></path>
            <path d="M134.5566,187.224 C131.0122,188.692 126.9486,187.01 125.4804,183.464 C124.2698,180.542 122.84,177.09 121.6292,174.166 C120.161,170.622 121.8442,166.56 125.3886,165.09 L125.3904,165.09 C128.9348,163.622 132.9982,165.306 134.4664,168.85 C135.6772,171.772 137.107,175.224 138.3176,178.148 C139.7858,181.692 138.1026,185.756 134.5582,187.224 L134.5566,187.224 Z" id="Fill-47" fill="#FFD33B"></path>
            <path d="M166.1284,166.128 C163.4156,168.842 159.0172,168.842 156.3044,166.128 C154.0674,163.892 151.4254,161.25 149.1884,159.012 C146.4756,156.3 146.4756,151.902 149.1884,149.188 L149.1896,149.188 C151.9024,146.474 156.3008,146.474 159.0136,149.188 C161.2506,151.424 163.8926,154.066 166.1296,156.304 C168.8424,159.016 168.8424,163.414 166.1296,166.128 L166.1284,166.128 Z" id="Fill-48" fill="#FFD33B"></path>
            <path d="M187.2242,134.558 C185.756,138.102 181.6926,139.786 178.148,138.316 C175.225,137.106 171.7734,135.676 168.8504,134.466 C165.306,132.998 163.6228,128.934 165.0908,125.39 C165.0912,125.39 165.0914,125.388 165.0916,125.388 C166.5598,121.844 170.6232,120.16 174.1676,121.628 C177.0906,122.84 180.5424,124.27 183.4654,125.48 C187.0098,126.948 188.693,131.012 187.2248,134.556 C187.2246,134.556 187.2244,134.556 187.2242,134.558 Z" id="Fill-49" fill="#FFD33B"></path>
            <path d="M194.6322,97.316 C194.6322,101.152 191.5222,104.262 187.6858,104.262 L177.622,104.262 C173.7854,104.262 170.6754,101.152 170.6754,97.316 L170.6754,97.314 C170.6754,93.478 173.7854,90.368 177.622,90.368 L187.6858,90.368 C191.5222,90.368 194.6322,93.478 194.6322,97.314 L194.6322,97.316 Z" id="Fill-50" fill="#FFD33B"></path>
            <path d="M187.2248,60.074 C188.693,63.62 187.0098,67.682 183.4654,69.152 C180.5424,70.362 177.0906,71.792 174.1676,73.002 C170.6232,74.47 166.5598,72.788 165.0916,69.242 L165.0908,69.242 C163.6228,65.696 165.306,61.634 168.8504,60.166 C171.7734,58.954 175.225,57.524 178.148,56.314 C181.6926,54.846 185.756,56.528 187.2242,60.074 L187.2248,60.074 Z" id="Fill-51" fill="#FFD33B"></path>
            <path d="M166.1296,28.504 C168.8424,31.216 168.8424,35.614 166.1296,38.328 C163.8926,40.564 161.2506,43.206 159.0136,45.444 C156.3008,48.156 151.9024,48.156 149.1896,45.444 C149.1892,45.442 149.1888,45.442 149.1884,45.442 C146.4756,42.73 146.4756,38.33 149.1884,35.618 C151.4254,33.38 154.0674,30.74 156.3044,28.502 C159.0172,25.79 163.4156,25.79 166.1284,28.502 C166.1288,28.502 166.1292,28.502 166.1296,28.504 Z" id="Fill-52" fill="#FFD33B"></path>
            <path d="M134.5582,7.408 C138.1026,8.876 139.7858,12.94 138.3176,16.484 C137.107,19.406 135.6772,22.858 134.4664,25.782 C132.9982,29.326 128.9348,31.008 125.3904,29.54 L125.3886,29.54 C121.8442,28.072 120.161,24.008 121.6292,20.464 C122.84,17.54 124.2698,14.09 125.4804,11.166 C126.9486,7.622 131.0122,5.938 134.5566,7.406 C134.5572,7.406 134.5576,7.408 134.5582,7.408 Z" id="Fill-53" fill="#FFD33B"></path>
        </g>
        <g id="hanakai_text" transform="translate(236.718, 26.556)" fill="#000000">
            <polygon id="Fill-29" points="70.58 127.04 105.122 127.04 105.122 14.116 70.58 14.116 70.58 57.126 34.542 57.126 34.542 14.116 0 14.116 0 127.04 34.542 127.04 34.542 86.354 70.58 86.354"></polygon>
            <path d="M138.002,129.034 C152.284,129.034 160.92,123.886 165.736,116.744 C168.89,124.052 175.866,128.868 187.656,128.868 C194.466,128.868 196.956,128.204 201.606,127.04 L201.606,103.792 C195.96,103.958 193.8,102.796 193.8,96.65 L193.8,78.55 C193.8,58.622 184.668,40.686 153.114,40.686 C126.378,40.686 110.934,48.824 110.934,70.744 L142.32,70.744 C142.652,64.268 146.14,61.278 152.284,61.278 C159.258,61.278 161.916,64.766 161.916,71.74 L161.916,73.402 L149.128,74.896 C123.056,78.052 107.944,86.686 107.944,104.622 C107.944,120.232 119.902,129.034 138.002,129.034 Z M140.494,100.304 C140.494,95.82 144.312,92.832 154.11,91.668 L161.916,90.838 L161.916,92.166 C161.916,100.968 156.436,107.112 148.796,107.112 C143.15,107.112 140.494,104.622 140.494,100.304 Z" id="Fill-30"></path>
            <path d="M205.592,127.04 L238.804,127.04 L238.804,84.86 C238.804,73.402 244.95,67.756 252.754,67.756 C260.062,67.756 263.548,72.57 263.548,83.532 L263.548,127.04 L296.762,127.04 L296.762,75.56 C296.762,54.304 286.964,40.686 266.206,40.686 C253.252,40.686 243.454,44.838 236.314,54.304 L234.488,42.678 L205.592,42.678 L205.592,127.04 Z" id="Fill-31"></path>
            <path d="M329.976,129.034 C344.258,129.034 352.892,123.886 357.708,116.744 C360.864,124.052 367.838,128.868 379.63,128.868 C386.438,128.868 388.93,128.204 393.58,127.04 L393.58,103.792 C387.932,103.958 385.774,102.796 385.774,96.65 L385.774,78.55 C385.774,58.622 376.64,40.686 345.088,40.686 C318.35,40.686 302.906,48.824 302.906,70.744 L334.294,70.744 C334.626,64.268 338.112,61.278 344.258,61.278 C351.232,61.278 353.89,64.766 353.89,71.74 L353.89,73.402 L341.102,74.896 C315.03,78.052 299.918,86.686 299.918,104.622 C299.918,120.232 311.874,129.034 329.976,129.034 Z M332.466,100.304 C332.466,95.82 336.286,92.832 346.084,91.668 L353.89,90.838 L353.89,92.166 C353.89,100.968 348.408,107.112 340.77,107.112 C335.124,107.112 332.466,104.622 332.466,100.304 Z" id="Fill-32"></path>
            <polygon id="Fill-33" points="453.696 127.04 493.22 127.04 464.158 79.878 492.222 42.678 458.346 42.678 435.428 73.568 430.778 73.568 430.778 2.49 397.564 2.49 397.564 127.04 430.778 127.04 430.778 95.156 435.594 95.156"></polygon>
            <path d="M517.796,129.034 C532.078,129.034 540.714,123.886 545.53,116.744 C548.686,124.052 555.66,128.868 567.45,128.868 C574.26,128.868 576.75,128.204 581.4,127.04 L581.4,103.792 C575.754,103.958 573.596,102.796 573.596,96.65 L573.596,78.55 C573.596,58.622 564.462,40.686 532.908,40.686 C506.172,40.686 490.728,48.824 490.728,70.744 L522.114,70.744 C522.446,64.268 525.934,61.278 532.078,61.278 C539.054,61.278 541.71,64.766 541.71,71.74 L541.71,73.402 L528.924,74.896 C502.85,78.052 487.738,86.686 487.738,104.622 C487.738,120.232 499.696,129.034 517.796,129.034 Z M520.288,100.304 C520.288,95.82 524.108,92.832 533.906,91.668 L541.71,90.838 L541.71,92.166 C541.71,100.968 536.23,107.112 528.592,107.112 C522.944,107.112 520.288,104.622 520.288,100.304 Z" id="Fill-34"></path>
            <path d="M586.216,127.04 L619.4294,127.04 L619.4294,42.6782 L586.216,42.6782 L586.216,127.04 Z M602.824,32.216 C613.95,32.216 621.754,26.072 621.754,16.108 C621.754,5.978 613.95,0 602.824,0 C591.696,0 583.892,5.978 583.892,16.108 C583.892,26.072 591.696,32.216 602.824,32.216 Z" id="Fill-35"></path>
        </g>
    </g>
</svg>