<?xml version="1.0" encoding="UTF-8"?>
<svg width="192px" height="192px" viewBox="0 0 192 192" version="1.1" xmlns="http://www.w3.org/2000/svg" xmlns:xlink="http://www.w3.org/1999/xlink">
    <title>hanakai_icon</title>
    <defs>
        <path d="M102.853542,175.219845 L102.853542,185.14774 C102.853542,188.931862 99.7856018,191.999803 96.0008878,191.999803 C92.2145955,191.999803 89.1464578,188.931862 89.1464578,185.14774 L89.1464578,175.219845 C89.1464578,171.43375 92.2145955,168.36581 95.9991122,168.36581 L96.0008878,168.36581 C99.7856018,168.36581 102.853542,171.43375 102.853542,175.219845 Z M68.3055733,162.857328 C71.8036173,164.307448 73.4640537,168.314513 72.0157096,171.810584 C70.8214817,174.69504 69.4110183,178.100355 68.2165931,180.982838 C66.768249,184.480882 62.7598023,186.140135 59.2631394,184.691988 C55.7650954,183.243841 54.1046589,179.234803 55.553003,175.738732 C56.7474282,172.854276 58.1576944,169.448961 59.3521195,166.566478 C60.8004636,163.070407 64.8089103,161.409181 68.3055733,162.857328 Z M132.64788,166.566478 C133.842306,169.448961 135.252769,172.854276 136.446997,175.738732 C137.895341,179.234803 136.234905,183.243841 132.738439,184.691988 C129.240395,186.140135 125.231751,184.480882 123.783407,180.982838 C122.589179,178.100355 121.178716,174.69504 119.98429,171.810584 C118.535946,168.314513 120.196383,164.307448 123.692848,162.857328 C127.19109,161.409181 131.199536,163.070407 132.64788,166.566478 Z M44.8280356,147.170386 C47.5055289,149.847682 47.5055289,154.186204 44.8294167,156.861527 C42.6224725,159.06926 40.0164002,161.67553 37.809456,163.88129 C35.1333438,166.558586 30.7944276,166.558586 28.1183155,163.88129 C25.4410195,161.203994 25.4410195,156.865472 28.1171317,154.190149 C30.3240759,151.982416 32.9301482,149.376146 35.1370924,147.170386 C37.8132046,144.49309 42.1519235,144.49309 44.8280356,147.170386 Z M156.863105,147.170386 C159.069852,149.376146 161.676121,151.982416 163.882868,154.190149 C166.55898,156.865472 166.55898,161.203994 163.882868,163.88129 C161.205572,166.558586 156.866656,166.558586 154.190544,163.88129 C151.983797,161.67553 149.377527,159.06926 147.170781,156.861527 C144.494668,154.186204 144.494668,149.847682 147.170781,147.170386 C149.848077,144.49309 154.186993,144.49309 156.863105,147.170386 Z M163.502483,95.9999014 C163.502483,133.209777 133.292641,163.419619 96.0823707,163.419619 C58.8721003,163.419619 28.6622584,133.209777 28.6622584,95.9999014 C28.6622584,58.7900255 58.8721003,28.5782106 96.0823707,28.5782106 C133.292641,28.5782106 163.502483,58.7900255 163.502483,95.9999014 Z M29.1410938,123.692256 C30.5902271,127.1903 28.9297907,131.199339 25.433325,132.647486 C22.5498556,133.841122 19.1447179,135.251783 16.2612682,136.445419 C12.7647631,137.895538 8.75621773,136.234313 7.30791308,132.738242 C5.85893763,129.240198 7.51933462,125.231159 11.0158397,123.783012 C13.8992697,122.589376 17.3043679,121.178716 20.1878374,119.983107 C23.684303,118.53496 27.692947,120.196185 29.1410938,123.692256 Z M171.812163,119.983107 C174.695632,121.178716 178.10075,122.589376 180.984219,123.783012 C184.480685,125.231159 186.141122,129.240198 184.692777,132.736269 C183.243841,136.234313 179.235395,137.895538 175.738732,136.445419 C172.855262,135.251783 169.450342,133.841122 166.566872,132.647486 C163.070407,131.199339 161.40997,127.1903 162.858117,123.694229 C164.30725,120.196185 168.315697,118.53496 171.812163,119.983107 Z M23.632809,95.9979284 C23.632809,99.7840234 20.5648685,102.851964 16.7802927,102.851964 L6.85261493,102.851964 C3.06801937,102.851964 0,99.7840234 0,95.9999014 C0,92.2138063 3.06801937,89.1458659 6.85261493,89.1458659 L16.7802927,89.1458659 C20.5648685,89.1458659 23.632809,92.2138063 23.632809,95.9979284 Z M192,95.9979284 C192,99.7840234 188.93206,102.851964 185.147543,102.851964 L175.219845,102.851964 C171.435131,102.851964 168.367191,99.7840234 168.367191,95.9999014 C168.367191,92.2138063 171.435131,89.1458659 175.219845,89.1458659 L185.147543,89.1458659 C188.93206,89.1458659 192,92.2138063 192,95.9979284 Z M16.2612682,55.5524112 C19.1447179,56.7460472 22.5498556,58.1567079 25.433325,59.3523168 C28.9297907,60.8004636 30.5902271,64.8075293 29.141883,68.3055733 C27.692947,71.8036173 23.684303,73.46287 20.1878374,72.0147232 C17.3043679,70.8210872 13.8992697,69.4104264 11.0158397,68.2167904 C7.51933462,66.7666707 5.85893763,62.759605 7.30722255,59.261561 C8.75621773,55.763517 12.7647631,54.1042644 16.2612682,55.5524112 Z M184.692186,59.261561 C186.141122,62.759605 184.480685,66.7666707 180.984219,68.2167904 C178.10075,69.4104264 174.695632,70.8210872 171.812163,72.0147232 C168.315697,73.46287 164.30725,71.8036173 162.858906,68.3055733 C161.40997,64.8075293 163.070407,60.8004636 166.566872,59.3523168 C169.450342,58.1567079 172.855262,56.7460472 175.738732,55.5524112 C179.235395,54.1042644 183.243841,55.763517 184.692186,59.261561 Z M163.881685,28.1165398 C166.55898,30.7938358 166.55898,35.1323573 163.882868,37.8096533 C161.676121,40.0154137 159.069852,42.6216834 156.863105,44.8294167 C154.186993,47.5047397 149.848077,47.5047397 147.171964,44.8294167 C144.494668,42.1521208 144.494668,37.8116262 147.170781,35.1363032 C149.377527,32.9285699 151.983797,30.3242732 154.190544,28.1165398 C156.866656,25.4412168 161.205572,25.4412168 163.881685,28.1165398 Z M37.809456,28.1165398 C40.0164002,30.3242732 42.6224725,32.9285699 44.8294167,35.1363032 C47.5055289,37.8116262 47.5055289,42.1521208 44.8294167,44.8274438 C42.1519235,47.5047397 37.8132046,47.5047397 35.1370924,44.8294167 C32.9301482,42.6216834 30.3240759,40.0154137 28.1171317,37.8096533 C25.4410195,35.1323573 25.4410195,30.7938358 28.1171317,28.1185128 C30.7944276,25.4412168 35.1333438,25.4412168 37.809456,28.1165398 Z M68.2165931,11.0149914 C69.4110183,13.8994473 70.8214817,17.3027896 72.0157096,20.1872455 C73.4640537,23.6833165 71.8036173,27.6923551 68.3071516,29.1405019 C64.8089103,30.5886487 60.8004636,28.9293961 59.3521195,25.433325 C58.1576944,22.5488691 56.7474282,19.1435538 55.553003,16.2610709 C54.1046589,12.7649998 55.7650954,8.75596124 59.261561,7.30781443 C62.7598023,5.85769467 66.768249,7.5189203 68.2165931,11.0149914 Z M132.736861,7.30584148 C136.234905,8.75596124 137.895341,12.7649998 136.446997,16.2610709 C135.252769,19.1435538 133.842306,22.5488691 132.64788,25.433325 C131.199536,28.9293961 127.19109,30.5886487 123.694624,29.1405019 C120.196383,27.6923551 118.535946,23.6833165 119.98429,20.1872455 C121.178716,17.3027896 122.589179,13.8994473 123.783407,11.0149914 C125.231751,7.5189203 129.240395,5.85769467 132.736861,7.30584148 Z M102.853542,6.85206251 L102.853542,16.7799573 C102.853542,20.5640793 99.7856018,23.6320198 96.0008878,23.6320198 C92.2145955,23.6320198 89.1464578,20.5640793 89.1464578,16.7799573 L89.1464578,6.85206251 C89.1464578,3.06794045 92.2145955,0 95.9991122,0 L96.0008878,0 C99.7856018,0 102.853542,3.06794045 102.853542,6.85206251 Z" id="path-1"></path>
    </defs>
    <g id="hanakai_icon" stroke="none" fill="none" xlink:href="#path-1" fill-rule="evenodd">
        <path d="M96.0823707,28.5782106 C133.292641,28.5782106 163.502483,58.7900255 163.502483,95.9999014 C163.502483,133.209777 133.292641,163.419619 96.0823707,163.419619 C58.8721003,163.419619 28.6622584,133.209777 28.6622584,95.9999014 C28.6622584,58.7900255 58.8721003,28.5782106 96.0823707,28.5782106 Z" id="Fill-16" fill="#FFD33B"></path>
        <path d="M53.8201593,88.7571943 C56.8959915,88.7571943 59.3931569,91.2529787 59.3931569,94.328811 C59.3931569,97.4046432 56.8959915,99.9024005 53.8201593,99.9024005 C50.744327,99.9024005 48.2471616,97.4046432 48.2471616,94.328811 C48.2471616,91.2529787 50.744327,88.7571943 53.8201593,88.7571943 Z" id="Fill-17" fill="#FFEA89"></path>
        <path d="M138.344582,88.7571943 C141.420415,88.7571943 143.91758,91.2529787 143.91758,94.328811 C143.91758,97.4046432 141.420415,99.9024005 138.344582,99.9024005 C135.26875,99.9024005 132.771585,97.4046432 132.771585,94.328811 C132.771585,91.2529787 135.26875,88.7571943 138.344582,88.7571943 Z" id="Fill-18" fill="#FFEA89"></path>
        <path d="M73.5707904,75.1852571 C77.4821679,75.1852571 80.6576342,78.3617099 80.6576342,82.2721009 C80.6576342,86.1844649 77.4821679,89.3589447 73.5707904,89.3589447 C69.659413,89.3589447 66.4839466,86.1844649 66.4839466,82.2721009 C66.4839466,78.3617099 69.659413,75.1852571 73.5707904,75.1852571 Z" id="Fill-19" fill="#000000"></path>
        <path d="M118.593951,75.1852571 C122.505329,75.1852571 125.680795,78.3617099 125.680795,82.2721009 C125.680795,86.1844649 122.505329,89.3589447 118.593951,89.3589447 C114.682574,89.3589447 111.507107,86.1844649 111.507107,82.2721009 C111.507107,78.3617099 114.682574,75.1852571 118.593951,75.1852571 Z" id="Fill-20" fill="#000000"></path>
        <path d="M111.715254,102.609291 C112.606831,100.865201 114.746892,100.172695 116.491179,101.064469 C118.235466,101.956244 118.927775,104.096897 118.036,105.840986 C114.015321,113.707146 105.830332,119.095278 96.3972539,119.095278 C86.344274,119.095278 77.7090574,112.975181 74.0204262,104.258679 C73.2566965,102.4554 74.1015145,100.36999 75.9055819,99.6064577 C77.7096493,98.8429253 79.7942704,99.6873488 80.5578029,101.4926 C83.1692022,107.662021 89.2808158,111.996597 96.3972539,111.996597 C103.075499,111.996597 108.868481,108.178934 111.715254,102.609291 Z" id="Fill-21" fill="#000000"></path>
        <path d="M96.0008878,0 C99.7856018,0 102.853542,3.06794045 102.853542,6.85206251 L102.853542,16.7799573 C102.853542,20.5640793 99.7856018,23.6320198 96.0008878,23.6320198 L95.9991122,23.6320198 C92.2145955,23.6320198 89.1464578,20.5640793 89.1464578,16.7799573 L89.1464578,6.85206251 C89.1464578,3.06794045 92.2145955,0 95.9991122,0 L96.0008878,0 Z" id="Fill-38" fill="#FFD33B"></path>
        <path d="M59.2631394,7.30584148 C62.7598023,5.85769467 66.768249,7.5189203 68.2165931,11.0149914 C69.4110183,13.8994473 70.8214817,17.3027896 72.0157096,20.1872455 C73.4640537,23.6833165 71.8036173,27.6923551 68.3071516,29.1405019 L68.3055733,29.1405019 C64.8089103,30.5886487 60.8004636,28.9293961 59.3521195,25.433325 C58.1576944,22.5488691 56.7474282,19.1435538 55.553003,16.2610709 C54.1046589,12.7649998 55.7650954,8.75596124 59.261561,7.30781443 C59.2621529,7.30781443 59.2627448,7.30584148 59.2631394,7.30584148 Z" id="Fill-39" fill="#FFD33B"></path>
        <path d="M28.1183155,28.1165398 C30.7944276,25.4412168 35.1333438,25.4412168 37.809456,28.1165398 C40.0164002,30.3242732 42.6224725,32.9285699 44.8294167,35.1363032 C47.5055289,37.8116262 47.5055289,42.1521208 44.8294167,44.8274438 C44.8290221,44.8274438 44.8286275,44.8274438 44.8280356,44.8294167 C42.1519235,47.5047397 37.8132046,47.5047397 35.1370924,44.8294167 C32.9301482,42.6216834 30.3240759,40.0154137 28.1171317,37.8096533 C25.4410195,35.1323573 25.4410195,30.7938358 28.1171317,28.1185128 C28.1175263,28.1165398 28.1179209,28.1165398 28.1183155,28.1165398 Z" id="Fill-40" fill="#FFD33B"></path>
        <path d="M7.30791308,59.261561 C8.75621773,55.763517 12.7647631,54.1042644 16.2612682,55.5524112 C19.1447179,56.7460472 22.5498556,58.1567079 25.433325,59.3523168 C28.9297907,60.8004636 30.5902271,64.8075293 29.141883,68.3055733 L29.1410938,68.3055733 C27.692947,71.8036173 23.684303,73.46287 20.1878374,72.0147232 C17.3043679,70.8210872 13.8992697,69.4104264 11.0158397,68.2167904 C7.51933462,66.7666707 5.85893763,62.759605 7.30722255,59.261561 L7.30791308,59.261561 Z" id="Fill-41" fill="#FFD33B"></path>
        <path d="M0,95.9979284 C0,92.2138063 3.06801937,89.1458659 6.85261493,89.1458659 L16.7802927,89.1458659 C20.5648685,89.1458659 23.632809,92.2138063 23.632809,95.9979284 L23.632809,95.9999014 C23.632809,99.7840234 20.5648685,102.851964 16.7802927,102.851964 L6.85261493,102.851964 C3.06801937,102.851964 0,99.7840234 0,95.9999014 L0,95.9979284 Z" id="Fill-42" fill="#FFD33B"></path>
        <path d="M7.30722255,132.736269 C5.85893763,129.240198 7.51933462,125.231159 11.0158397,123.783012 C13.8992697,122.589376 17.3043679,121.178716 20.1878374,119.983107 C23.684303,118.53496 27.692947,120.196185 29.1410938,123.692256 C29.1414884,123.692256 29.1416857,123.694229 29.141883,123.694229 C30.5902271,127.1903 28.9297907,131.199339 25.433325,132.647486 C22.5498556,133.841122 19.1447179,135.251783 16.2612682,136.445419 C12.7647631,137.895538 8.75621773,136.234313 7.30791308,132.738242 C7.30767632,132.736269 7.3074593,132.736269 7.30722255,132.736269 Z" id="Fill-43" fill="#FFD33B"></path>
        <path d="M28.1171317,163.88129 C25.4410195,161.203994 25.4410195,156.865472 28.1171317,154.190149 C30.3240759,151.982416 32.9301482,149.376146 35.1370924,147.170386 C37.8132046,144.49309 42.1519235,144.49309 44.8280356,147.170386 L44.8294167,147.170386 C47.5055289,149.847682 47.5055289,154.186204 44.8294167,156.861527 C42.6224725,159.06926 40.0164002,161.67553 37.809456,163.88129 C35.1333438,166.558586 30.7944276,166.558586 28.1183155,163.88129 L28.1171317,163.88129 Z" id="Fill-44" fill="#FFD33B"></path>
        <path d="M59.261561,184.691988 C55.7650954,183.243841 54.1046589,179.234803 55.553003,175.738732 C56.7474282,172.854276 58.1576944,169.448961 59.3521195,166.566478 C60.8004636,163.070407 64.8089103,161.409181 68.3055733,162.857328 L68.3071516,162.857328 C71.8036173,164.307448 73.4640537,168.314513 72.0157096,171.810584 C70.8214817,174.69504 69.4110183,178.100355 68.2165931,180.982838 C66.768249,184.480882 62.7598023,186.140135 59.2631394,184.691988 L59.261561,184.691988 Z" id="Fill-45" fill="#FFD33B"></path>
        <path d="M95.9991122,191.999803 C92.2145955,191.999803 89.1464578,188.931862 89.1464578,185.14774 L89.1464578,175.219845 C89.1464578,171.43375 92.2145955,168.36581 95.9991122,168.36581 L96.0008878,168.36581 C99.7856018,168.36581 102.853542,171.43375 102.853542,175.219845 L102.853542,185.14774 C102.853542,188.931862 99.7856018,191.999803 96.0008878,191.999803 L95.9991122,191.999803 Z" id="Fill-46" fill="#FFD33B"></path>
        <path d="M132.736861,184.691988 C129.240395,186.140135 125.231751,184.480882 123.783407,180.982838 C122.589179,178.100355 121.178716,174.69504 119.98429,171.810584 C118.535946,168.314513 120.196383,164.307448 123.692848,162.857328 L123.694624,162.857328 C127.19109,161.409181 131.199536,163.070407 132.64788,166.566478 C133.842306,169.448961 135.252769,172.854276 136.446997,175.738732 C137.895341,179.234803 136.234905,183.243841 132.738439,184.691988 L132.736861,184.691988 Z" id="Fill-47" fill="#FFD33B"></path>
        <path d="M163.881685,163.88129 C161.205572,166.558586 156.866656,166.558586 154.190544,163.88129 C151.983797,161.67553 149.377527,159.06926 147.170781,156.861527 C144.494668,154.186204 144.494668,149.847682 147.170781,147.170386 L147.171964,147.170386 C149.848077,144.49309 154.186993,144.49309 156.863105,147.170386 C159.069852,149.376146 161.676121,151.982416 163.882868,154.190149 C166.55898,156.865472 166.55898,161.203994 163.882868,163.88129 L163.881685,163.88129 Z" id="Fill-48" fill="#FFD33B"></path>
        <path d="M184.692186,132.738242 C183.243841,136.234313 179.235395,137.895538 175.738732,136.445419 C172.855262,135.251783 169.450342,133.841122 166.566872,132.647486 C163.070407,131.199339 161.40997,127.1903 162.858117,123.694229 C162.858512,123.694229 162.858709,123.692256 162.858906,123.692256 C164.30725,120.196185 168.315697,118.53496 171.812163,119.983107 C174.695632,121.178716 178.10075,122.589376 180.984219,123.783012 C184.480685,125.231159 186.141122,129.240198 184.692777,132.736269 C184.69258,132.736269 184.692383,132.736269 184.692186,132.738242 Z" id="Fill-49" fill="#FFD33B"></path>
        <path d="M192,95.9999014 C192,99.7840234 188.93206,102.851964 185.147543,102.851964 L175.219845,102.851964 C171.435131,102.851964 168.367191,99.7840234 168.367191,95.9999014 L168.367191,95.9979284 C168.367191,92.2138063 171.435131,89.1458659 175.219845,89.1458659 L185.147543,89.1458659 C188.93206,89.1458659 192,92.2138063 192,95.9979284 L192,95.9999014 Z" id="Fill-50" fill="#FFD33B"></path>
        <path d="M184.692777,59.261561 C186.141122,62.759605 184.480685,66.7666707 180.984219,68.2167904 C178.10075,69.4104264 174.695632,70.8210872 171.812163,72.0147232 C168.315697,73.46287 164.30725,71.8036173 162.858906,68.3055733 L162.858117,68.3055733 C161.40997,64.8075293 163.070407,60.8004636 166.566872,59.3523168 C169.450342,58.1567079 172.855262,56.7460472 175.738732,55.5524112 C179.235395,54.1042644 183.243841,55.763517 184.692186,59.261561 L184.692777,59.261561 Z" id="Fill-51" fill="#FFD33B"></path>
        <path d="M163.882868,28.1185128 C166.55898,30.7938358 166.55898,35.1323573 163.882868,37.8096533 C161.676121,40.0154137 159.069852,42.6216834 156.863105,44.8294167 C154.186993,47.5047397 149.848077,47.5047397 147.171964,44.8294167 C147.17157,44.8274438 147.171175,44.8274438 147.170781,44.8274438 C144.494668,42.1521208 144.494668,37.8116262 147.170781,35.1363032 C149.377527,32.9285699 151.983797,30.3242732 154.190544,28.1165398 C156.866656,25.4412168 161.205572,25.4412168 163.881685,28.1165398 C163.882079,28.1165398 163.882474,28.1165398 163.882868,28.1185128 Z" id="Fill-52" fill="#FFD33B"></path>
        <path d="M132.738439,7.30781443 C136.234905,8.75596124 137.895341,12.7649998 136.446997,16.2610709 C135.252769,19.1435538 133.842306,22.5488691 132.64788,25.433325 C131.199536,28.9293961 127.19109,30.5886487 123.694624,29.1405019 L123.692848,29.1405019 C120.196383,27.6923551 118.535946,23.6833165 119.98429,20.1872455 C121.178716,17.3027896 122.589179,13.8994473 123.783407,11.0149914 C125.231751,7.5189203 129.240395,5.85769467 132.736861,7.30584148 C132.737452,7.30584148 132.737847,7.30781443 132.738439,7.30781443 Z" id="Fill-53" fill="#FFD33B"></path>
    </g>
</svg>