<svg height="224" viewBox="0 0 224 224" width="224" xmlns="http://www.w3.org/2000/svg" xmlns:xlink="http://www.w3.org/1999/xlink"><defs><path id="a" d="m0 0h224v224h-224z"/><path id="b" d="m122.600988 31.826v9.116c0 4.498-.9354 8.78-2.6222 12.662 3.17-2.804 6.9534-5.018 11.2318-6.408l8.6688-2.816c16.7062-5.428 34.6764 3.728 40.1044 20.434 5.4282 16.706-3.728 34.676-20.4342 40.104l-8.6688 2.818c-4.2784 1.39-8.6398 1.824-12.8522 1.418 3.6458 2.148 6.9194 5.064 9.5636 8.702l5.3576 7.374c10.325 14.212 7.17 34.132-7.0412 44.456-14.211 10.326-34.131 7.17-44.456-7.04l-5.3576001-7.374c-2.6442-3.64-4.4044-7.654-5.3212-11.786-.9166 4.132-2.6768 8.146-5.321 11.786l-5.3576 7.374c-10.325 14.21-30.245 17.366-44.4562 7.04-14.211-10.324-17.366-30.244-7.041-44.456l5.3576-7.374c2.6442-3.638 5.9178-6.554 9.5636-8.702-4.2124.406-8.5738-.028-12.8522-1.418l-8.6688-2.818c-16.70613996-5.428-25.86241996-23.398-20.43427996-40.104s23.39827996-25.862 40.10447996-20.434l8.6688 2.816c4.2784 1.39 8.0618 3.604 11.2316 6.408-1.6866-3.882-2.622-8.164-2.622-12.662v-9.116c0-17.566 14.2612-31.826 31.827-31.826 17.5660001 0 31.8272001 14.26 31.8272001 31.826z"/></defs><g fill="none" fill-rule="evenodd" xlink:href="#a"><use fill="#ffe6e1" xlink:href="#a"/><g transform="translate(21.2864 19.942)" xlink:href="#b"><path d="m43.5191879 109.154c-4.2124.406-8.5738-.028-12.8522-1.418l-8.6688-2.818c-16.70613996-5.428-25.86241996-23.398-20.43427996-40.104s23.39827996-25.862 40.10447996-20.434l8.6688 2.816c4.2784 1.39 8.0618 3.604 11.2316 6.408-1.6866-3.882-2.622-8.164-2.622-12.662v-9.116c0-17.566 14.2612-31.826 31.827-31.826 17.5660001 0 31.8272001 14.26 31.8272001 31.826v9.116c0 4.498-.9354 8.78-2.6222 12.662 3.17-2.804 6.9534-5.018 11.2318-6.408l8.6688-2.816c16.7062-5.428 34.6764 3.728 40.1044 20.434 5.4282 16.706-3.728 34.676-20.4342 40.104l-8.6688 2.818c-4.2784 1.39-8.6398 1.824-12.8522 1.418 3.6458 2.148 6.9194 5.064 9.5636 8.702l5.3576 7.374c10.325 14.212 7.17 34.132-7.0412 44.456-14.211 10.326-34.131 7.17-44.456-7.04l-5.3576001-7.374c-2.6442-3.64-4.4044-7.654-5.3212-11.786-.9166 4.132-2.6768 8.146-5.321 11.786l-5.3576 7.374c-10.325 14.21-30.245 17.366-44.4562 7.04-14.211-10.324-17.366-30.244-7.041-44.456l5.3576-7.374c2.6442-3.638 5.9178-6.554 9.5636-8.702z" fill="#ff6c89"/><path d="m90.7737879 51.854c22.5168001 0 40.7976001 18.28 40.7976001 40.798 0 22.516-18.2808 40.798-40.7976001 40.798-22.5166 0-40.7974-18.282-40.7974-40.798 0-22.518 18.2808-40.798 40.7974-40.798z" fill="#ffc9c4"/><g fill="#000"><path d="m70.6265879 91.88c0 1.702-1.3826 3.086-3.0856 3.086-1.7028 0-3.0854-1.384-3.0854-3.086 0-6.118 4.9664-11.084 11.0838-11.084 6.1172 0 11.0838 4.966 11.0838 11.084 0 1.702-1.3826 3.086-3.0856 3.086s-3.0856-1.384-3.0856-3.086c0-2.712-2.2012-4.912-4.9126-4.912s-4.9128 2.2-4.9128 4.912z"/><path d="m101.172988 91.88c0 1.702-1.3826001 3.086-3.0854001 3.086-1.703 0-3.0856-1.384-3.0856-3.086 0-6.118 4.9664-11.084 11.0838001-11.084 6.1174 0 11.0838 4.966 11.0838 11.084 0 1.702-1.3826 3.086-3.0856 3.086s-3.0856-1.384-3.0856-3.086c0-2.712-2.2012-4.912-4.9126-4.912s-4.9128 2.2-4.9128 4.912z"/></g></g></g></svg>