<svg height="224" viewBox="0 0 224 224" width="224" xmlns="http://www.w3.org/2000/svg" xmlns:xlink="http://www.w3.org/1999/xlink"><defs><path id="a" d="m0 0h224v224h-224z"/><path id="b" d="m98.567978 167.919191v9.514242c0 3.626454-2.9401096 6.566567-6.5671272 6.566567-3.6285301 0-6.5688288-2.940113-6.5688288-6.566567v-9.514242c0-3.628345 2.9402987-6.568457 6.5671272-6.568457h.0017016c3.6270176 0 6.5671272 2.940112 6.5671272 6.568457zm-33.1084703-11.847425c3.3522922 1.3897 4.9435438 5.229808 3.5555474 8.580213-1.1444684 2.764273-2.4961625 6.027704-3.64082 8.790086-1.3879964 3.352296-5.2294245 4.942414-8.5803932 3.554606-3.3522921-1.387809-4.9435437-5.229808-3.5555473-8.580213 1.1446575-2.764273 2.4961625-6.027704 3.64082-8.790086 1.3879964-3.350405 5.2294245-4.942415 8.5803931-3.554606zm61.6613773 3.554606c1.144658 2.762382 2.496352 6.025813 3.64082 8.790086 1.387997 3.350405-.203255 7.192404-3.554034 8.580213-3.352292 1.387808-7.19391-.20231-8.581906-3.554606-1.144468-2.762382-2.496163-6.025813-3.64082-8.790086-1.387996-3.350405.203255-7.190513 3.554035-8.580213 3.352481-1.387809 7.193909.204201 8.581905 3.554606zm-84.1606842-18.58794c2.5659311 2.565744 2.5659311 6.723498.0013236 9.287352-2.1149882 2.115747-4.6124742 4.613424-6.7274624 6.72728-2.5646075 2.565745-6.7227355 2.565745-9.287343 0-2.565742-2.565744-2.565742-6.723498-.0011345-9.287352 2.1149882-2.115747 4.6124742-4.613425 6.7274624-6.72728 2.5646075-2.565745 6.7225464-2.565745 9.2871539 0zm107.3669412 0c2.114799 2.113855 4.612474 4.611533 6.727273 6.72728 2.564608 2.563854 2.564608 6.721608 0 9.287352-2.565741 2.565745-6.723869 2.565745-9.288477 0-2.114799-2.113856-4.612474-4.611533-6.727273-6.72728-2.564608-2.563854-2.564608-6.721608 0-9.287352 2.565742-2.565745 6.72387-2.565745 9.288477 0zm6.362738-49.038432c0 35.659501-28.951099 64.610629-64.6109414 64.610629-35.6598425 0-64.610941-28.951128-64.610941-64.610629s28.9510985-64.61252 64.610941-64.61252c35.6598424 0 64.6109414 28.953019 64.6109414 64.61252zm-128.7629984 26.538534c1.3887527 3.352296-.2024989 7.194295-3.5532785 8.582104-2.7633248 1.143902-6.0265818 2.495787-8.7898878 3.639689-3.3508174 1.3897-7.19233998-.20231-8.5802986-3.552715-1.38860147-3.352295.20261231-7.194295 3.5534297-8.582103 2.7632871-1.143903 6.0265062-2.495787 8.7898311-3.64158 3.3507795-1.387809 7.1923967.2042 8.5802041 3.554605zm136.7264414-3.554605c2.763324 1.145793 6.026562 2.497677 8.789887 3.64158 3.35078 1.387808 4.942031 5.229808 3.554035 8.580213-1.388564 3.352295-5.229992 4.944305-8.58096 3.554605-2.763325-1.143902-6.026374-2.495787-8.789699-3.639689-3.35078-1.387809-4.942031-5.229808-3.554224-8.580213 1.388753-3.352296 5.230181-4.944305 8.580961-3.556496zm-142.0052144-22.9858197c0 3.6283447-2.9401096 6.5684573-6.5669948 6.5684573h-9.51402449c-3.62690408 0-6.56708931-2.9401126-6.56708931-6.5665666 0-3.6283448 2.94018523-6.5684574 6.56708931-6.5684574h9.51402449c3.6268852 0 6.5669948 2.9401126 6.5669948 6.5665667zm161.3518914 0c0 3.6283447-2.94011 6.5684573-6.566938 6.5684573h-9.514043c-3.627018 0-6.567128-2.9401126-6.567128-6.5665666 0-3.6283448 2.94011-6.5684574 6.567128-6.5684574h9.514043c3.626828 0 6.566938 2.9401126 6.566938 6.5665667zm-168.4162847-38.7603272c2.763306 1.1439023 6.026563 2.4957869 8.7898878 3.64158 3.3507796 1.3878088 4.9420312 5.2279173 3.5540348 8.5802129-1.3885637 3.3522956-5.2301809 4.9424144-8.5809604 3.5546056-2.7633249-1.1439023-6.026544-2.4957869-8.7898311-3.6396893-3.35081739-1.3896995-4.94203117-5.229808-3.55409146-8.5821036 1.38862038-3.3522956 5.23014296-4.9424144 8.58096036-3.5546056zm161.4129627 3.5546056c1.388563 3.3522956-.202688 7.1924041-3.553468 8.5821036-2.763325 1.1439024-6.026563 2.495787-8.789887 3.6396893-3.35078 1.3878088-7.192208-.20231-8.580205-3.5546056-1.388563-3.3522956.202688-7.1924041 3.553468-8.5802129 2.763325-1.1457931 6.026374-2.4976777 8.789699-3.64158 3.350968-1.3878088 7.192396.20231 8.580393 3.5546056zm-19.943397-29.8473427c2.565742 2.5657446 2.565742 6.7234987.001134 9.2892433-2.114799 2.1138559-4.612474 4.6115336-6.727273 6.7272802-2.564607 2.5638538-6.722735 2.5638538-9.287343 0-2.565742-2.5657446-2.565742-6.7253895-.001134-9.2892433 2.114799-2.1157466 4.612474-4.6115336 6.727273-6.7272802 2.564608-2.5638538 6.722736-2.5638538 9.287343 0zm-120.819219 0c2.1149882 2.1157466 4.6124742 4.6115336 6.7274624 6.7272802 2.5646075 2.5638538 2.5646075 6.7234987 0 9.2873526-2.5659311 2.5657445-6.72387 2.5657445-9.2884775.0018907-2.1149882-2.1157466-4.6124742-4.6134243-6.7274624-6.7272802-2.5646075-2.5657446-2.5646075-6.7234987 0-9.2873525 2.565742-2.5657446 6.72387-2.5657446 9.2884775-.0018908zm29.1401731-16.3890008c1.1446575 2.7642731 2.4963516 6.0258128 3.64082 8.7900859 1.3879964 3.3504049-.2032552 7.1924042-3.5540348 8.5802129-3.3524812 1.3878088-7.1939093-.20231-8.5819057-3.5527148-1.1446575-2.7642731-2.4961625-6.0277036-3.64082-8.7900859-1.3879964-3.3504049.2032552-7.19240415 3.5540347-8.58021294 3.3524813-1.38969954 7.1939094.20231 8.5819058 3.55271484zm61.8319229-3.55460559c3.352292 1.38969954 4.943544 5.23169879 3.555547 8.58210369-1.144468 2.7623823-2.496162 6.0258128-3.64082 8.7900859-1.387996 3.3504048-5.229424 4.9405236-8.580204 3.5527148-3.352481-1.3878087-4.943732-5.229808-3.555736-8.5802129 1.144657-2.7642731 2.496352-6.0258128 3.64082-8.7900859 1.387996-3.35040484 5.229614-4.94241438 8.580393-3.55460559zm-28.63818-.43487196v9.51424225c0 3.626454-2.9401096 6.5665667-6.5671272 6.5665667-3.6285301 0-6.5688288-2.9401127-6.5688288-6.5665667v-9.51424225c0-3.62645403 2.9402987-6.56656665 6.5671272-6.56656665h.0017016c3.6270176 0 6.5671272 2.94011262 6.5671272 6.56656665z"/></defs><g fill="none" fill-rule="evenodd" xlink:href="#a"><use fill="#fff9d7" xlink:href="#a"/><g transform="translate(19.9483 19.316)" xlink:href="#b"><path d="m92.0789386 27.38748c35.6598424 0 64.6109414 28.953019 64.6109414 64.61252s-28.951099 64.610629-64.6109414 64.610629c-35.6598425 0-64.610941-28.951128-64.610941-64.610629s28.9510985-64.61252 64.610941-64.61252z" fill="#ffd33b"/><path d="m51.5776526 85.0590653c2.9476726 0 5.3407895 2.3917958 5.3407895 5.3394714s-2.3931169 5.3413622-5.3407895 5.3413622-5.3407894-2.3936866-5.3407894-5.3413622 2.3931168-5.3394714 5.3407894-5.3394714z" fill="#ffea89"/><path d="m132.580225 85.0590653c2.947672 0 5.340789 2.3917958 5.340789 5.3394714s-2.393117 5.3413622-5.340789 5.3413622c-2.947673 0-5.34079-2.3936866-5.34079-5.3413622s2.393117-5.3394714 5.34079-5.3394714z" fill="#ffea89"/><path d="m70.5053408 72.0526121c3.7484034 0 6.7915587 3.0441038 6.7915587 6.7915656 0 3.7493527-3.0431553 6.7915657-6.7915587 6.7915657s-6.7915586-3.042213-6.7915586-6.7915657c0-3.7474618 3.0431552-6.7915656 6.7915586-6.7915656z" fill="#000"/><path d="m113.652536 72.0526121c3.748404 0 6.791559 3.0441038 6.791559 6.7915656 0 3.7493527-3.043155 6.7915657-6.791559 6.7915657-3.748403 0-6.791558-3.042213-6.791558-6.7915657 0-3.7474618 3.043155-6.7915656 6.791558-6.7915656z" fill="#000"/><path d="m107.060451 98.3340047c.854428-1.671421 2.90532-2.3350734 4.576929-1.4804554 1.671608.8546179 2.335071 2.9060791 1.480454 4.5774997-3.853151 7.538411-11.697099 12.702043-20.7371323 12.702043-9.6341058 0-17.9095217-5.865099-21.4444599-14.2184223-.7319077-1.7281433.0777096-3.7266636 1.8066075-4.458383 1.7288979-.7317193 3.7266599.0775207 4.4583785 1.8075548 2.502591 5.9123675 8.359554 10.0663405 15.1794739 10.0663405 6.3999852 0 11.9515923-3.658597 14.6797493-8.9961773z" fill="#000"/><g fill="#ffd33b"><path d="m92.0008508 0c3.6270176 0 6.5671272 2.94011262 6.5671272 6.56656665v9.51424225c0 3.626454-2.9401096 6.5665667-6.5671272 6.5665667h-.0017016c-3.6268285 0-6.5671272-2.9401127-6.5671272-6.5665667v-9.51424225c0-3.62645403 2.9402987-6.56656665 6.5671272-6.56656665z"/><path d="m56.7938419 7.00143861c3.3509687-1.38780879 7.1923968.20420075 8.5803932 3.55460559 1.1446575 2.7642731 2.4963516 6.0258128 3.64082 8.7900859 1.3879964 3.3504049-.2032552 7.1924042-3.5540348 8.5802129h-.0015126c-3.3509686 1.3878088-7.1923967-.20231-8.5803931-3.5527148-1.1446575-2.7642731-2.4961625-6.0277036-3.64082-8.7900859-1.3879964-3.3504049.2032552-7.19240415 3.5540347-8.58021294.0005673 0 .0011345-.00189075.0015126-.00189075z"/><path d="m26.946719 26.945045c2.5646075-2.5638538 6.7227355-2.5638538 9.287343 0 2.1149882 2.1157466 4.6124742 4.6115336 6.7274624 6.7272802 2.5646075 2.5638538 2.5646075 6.7234987 0 9.2873526-.0003782 0-.0007563 0-.0013236.0018907-2.5646075 2.5638538-6.7225464 2.5638538-9.2871539 0-2.1149882-2.1157466-4.6124742-4.6134243-6.7274624-6.7272802-2.5646075-2.5657446-2.5646075-6.7234987 0-9.2873525.0003782-.0018908.0007563-.0018908.0011345-.0018908z"/><path d="m7.0034167 56.7923877c1.38795862-3.3522956 5.2294812-4.9424144 8.5802986-3.5546056 2.763306 1.1439023 6.026563 2.4957869 8.7898878 3.64158 3.3507796 1.3878088 4.9420312 5.2279173 3.5540348 8.5802129h-.0007563c-1.3878074 3.3522956-5.2294246 4.9424144-8.5802041 3.5546056-2.7633249-1.1439023-6.026544-2.4957869-8.7898311-3.6396893-3.35081739-1.3896995-4.94203117-5.229808-3.55409146-8.5821036z"/><path d="m0 91.9981093c0-3.6264541 2.94018523-6.5665667 6.56708931-6.5665667h9.51402449c3.6268852 0 6.5669948 2.9401126 6.5669948 6.5665667v.0018907c0 3.626454-2.9401096 6.5665666-6.5669948 6.5665666h-9.51402449c-3.62690408 0-6.56708931-2.9401126-6.56708931-6.5665666z"/><path d="m7.00275494 127.205722c-1.38793971-3.350405.20327407-7.192405 3.55409146-8.580213 2.7632871-1.143903 6.0265062-2.495787 8.7898311-3.64158 3.3507795-1.387809 7.1923967.2042 8.5802041 3.554605.0003781 0 .0005672.001891.0007563.001891 1.3879964 3.350405-.2032552 7.192404-3.5540348 8.580213-2.7633248 1.143902-6.0265818 2.495787-8.7898878 3.639689-3.3508174 1.3897-7.19233998-.20231-8.5802986-3.552715-.00022689-.00189-.00043487-.00189-.00066176-.00189z"/><path d="m26.9455845 157.053064c-2.5646075-2.565744-2.5646075-6.723498 0-9.287352 2.1149882-2.115747 4.6124742-4.613425 6.7274624-6.72728 2.5646075-2.565745 6.7225464-2.565745 9.2871539 0h.0013236c2.5646075 2.565744 2.5646075 6.723498 0 9.287352-2.1149882 2.115747-4.6124742 4.613424-6.7274624 6.72728-2.5646075 2.565745-6.7227355 2.565745-9.287343 0z"/><path d="m56.7923293 176.996671c-3.3507795-1.387809-4.9420311-5.229808-3.5540347-8.580213 1.1446575-2.764273 2.4961625-6.027704 3.64082-8.790086 1.3879964-3.350405 5.2294245-4.942415 8.5803931-3.554606h.0015126c3.3507796 1.3897 4.9420312 5.229808 3.5540348 8.580213-1.1444684 2.764273-2.4961625 6.027704-3.64082 8.790086-1.3879964 3.352296-5.2294245 4.942414-8.5803932 3.554606z"/><path d="m91.9991492 184c-3.6268285 0-6.5671272-2.940113-6.5671272-6.566567v-9.514242c0-3.628345 2.9402987-6.568457 6.5671272-6.568457h.0017016c3.6270176 0 6.5671272 2.940112 6.5671272 6.568457v9.514242c0 3.626454-2.9401096 6.566567-6.5671272 6.566567z"/><path d="m127.206158 176.996671c-3.350779 1.387808-7.192397-.20231-8.580393-3.554606-1.144468-2.762382-2.496163-6.025813-3.64082-8.790086-1.387996-3.350405.203255-7.190513 3.554035-8.580213h.001701c3.35078-1.387809 7.192208.204201 8.580204 3.554606 1.144658 2.762382 2.496352 6.025813 3.64082 8.790086 1.387997 3.350405-.203255 7.192404-3.554034 8.580213z"/><path d="m157.053281 157.053064c-2.564607 2.565745-6.722735 2.565745-9.287343 0-2.114799-2.113856-4.612474-4.611533-6.727273-6.72728-2.564608-2.563854-2.564608-6.721608 0-9.287352h.001134c2.564608-2.565745 6.722736-2.565745 9.287343 0 2.114799 2.113855 4.612474 4.611533 6.727273 6.72728 2.564608 2.563854 2.564608 6.721608 0 9.287352z"/><path d="m176.996678 127.207612c-1.387997 3.350405-5.229425 4.942415-8.580393 3.552715-2.763325-1.143902-6.026374-2.495787-8.789699-3.639689-3.35078-1.387809-4.942031-5.229808-3.554224-8.580213.000378 0 .000567-.001891.000756-.001891 1.387997-3.350405 5.229425-4.942414 8.580205-3.554605 2.763324 1.145793 6.026562 2.497677 8.789887 3.64158 3.35078 1.387808 4.942031 5.229808 3.554035 8.580213-.000189 0-.000378 0-.000567.00189z"/><path d="m184 92c0 3.626454-2.94011 6.5665666-6.566938 6.5665666h-9.514043c-3.627018 0-6.567128-2.9401126-6.567128-6.5665666v-.0018907c0-3.6264541 2.94011-6.5665667 6.567128-6.5665667h9.514043c3.626828 0 6.566938 2.9401126 6.566938 6.5665667z"/><path d="m176.997245 56.7923877c1.387996 3.3522956-.203255 7.1924041-3.554035 8.5821036-2.763325 1.1439024-6.026563 2.495787-8.789887 3.6396893-3.35078 1.3878088-7.192208-.20231-8.580205-3.5546056h-.000756c-1.387807-3.3522956.203444-7.1924041 3.554224-8.5802129 2.763325-1.1457931 6.026374-2.4976777 8.789699-3.64158 3.350968-1.3878088 7.192396.20231 8.580393 3.5546056z"/><path d="m157.054415 26.9469358c2.564608 2.5638538 2.564608 6.7216079 0 9.2873525-2.114799 2.1138559-4.612474 4.6115336-6.727273 6.7272802-2.564607 2.5638538-6.722735 2.5638538-9.287343 0-.000378-.0018907-.000756-.0018907-.001134-.0018907-2.564608-2.5638539-2.564608-6.7234988 0-9.2873526 2.114799-2.1157466 4.612474-4.6115336 6.727273-6.7272802 2.564608-2.5638538 6.722736-2.5638538 9.287343 0 .000378 0 .000756 0 .001134.0018908z"/><path d="m127.207671 7.00332936c3.350779 1.38780879 4.942031 5.22980804 3.554034 8.58021294-1.144468 2.7623823-2.496162 6.0258128-3.64082 8.7900859-1.387996 3.3504048-5.229424 4.9405236-8.580204 3.5527148h-.001701c-3.35078-1.3878087-4.942031-5.229808-3.554035-8.5802129 1.144657-2.7642731 2.496352-6.0258128 3.64082-8.7900859 1.387996-3.35040484 5.229614-4.94241438 8.580393-3.55460559.000567 0 .000945.00189075.001513.00189075z"/></g></g></g></svg>