<svg height="94" viewBox="0 0 97 94" width="97" xmlns="http://www.w3.org/2000/svg" xmlns:xlink="http://www.w3.org/1999/xlink"><defs><path id="a" d="m64.8297542 16.8291609v4.8204183c0 2.3784819-.494627 4.6427459-1.3865841 6.6954953 1.6762533-1.4827175 3.6768644-2.6534509 5.9392248-3.3884642l4.5839449-1.489063c8.8340139-2.8702534 18.3364141 1.9713163 21.2066675 10.8052245 2.8703592 8.8339082-1.9713162 18.3362026-10.8053302 21.2064561l-4.5839449 1.4901205c-2.2623604.7350133-4.5686101.9645067-6.7960706.7498193 1.9278501 1.1358335 3.6588857 2.6777751 5.0571031 4.6015006l2.8330269 3.8992721c5.4597212 7.5151145 3.7913996 18.0485427-3.7232919 23.5077351-7.5145858 5.46025-18.0480139 3.7913996-23.5077351-3.7226573l-2.8330269-3.8992721c-1.3982174-1.9247831-2.3289875-4.0473323-2.813779-6.2322783-.4846858 2.184946-1.4154559 4.3074952-2.8136733 6.2322783l-2.8330268 3.8992721c-5.4597212 7.5140569-15.9931494 9.1829073-23.5078409 3.7226573-7.5145858-5.4591924-9.18290734-15.9926206-3.7231862-23.5077351l2.8330269-3.8992721c1.3982174-1.9237255 3.1292531-3.4656671 5.0571031-4.6015006-2.2274605.2146874-4.5337102-.014806-6.7960706-.7498193l-4.5839449-1.4901205c-8.8339822-2.8702535-13.67569996-12.3725479-10.80537251-21.2064561 2.87032746-8.8339082 12.37269591-13.6754779 21.20670981-10.8052245l4.5839449 1.489063c2.2623604.7350133 4.2629715 1.9057467 5.9391191 3.3884642-.8918514-2.0527494-1.3864783-4.3170134-1.3864783-6.6954953v-4.8204183c0-9.28866461 7.5411308-16.8291609 16.8296897-16.8291609 9.2886646 0 16.8297955 7.54049629 16.8297955 16.8291609z"/></defs><g fill="none" fill-rule="evenodd" transform="translate(.2864 .942)" xlink:href="#a"><path d="m23.0123615 57.7191677c-2.2274605.2146874-4.5337102-.014806-6.7960706-.7498193l-4.5839449-1.4901205c-8.8339822-2.8702535-13.67569996-12.3725479-10.80537251-21.2064561 2.87032746-8.8339082 12.37269591-13.6754779 21.20670981-10.8052245l4.5839449 1.489063c2.2623604.7350133 4.2629715 1.9057467 5.9391191 3.3884642-.8918514-2.0527494-1.3864783-4.3170134-1.3864783-6.6954953v-4.8204183c0-9.28866461 7.5411308-16.8291609 16.8296897-16.8291609 9.2886646 0 16.8297955 7.54049629 16.8297955 16.8291609v4.8204183c0 2.3784819-.494627 4.6427459-1.3865841 6.6954953 1.6762533-1.4827175 3.6768644-2.6534509 5.9392248-3.3884642l4.5839449-1.489063c8.8340139-2.8702534 18.3364141 1.9713163 21.2066675 10.8052245 2.8703592 8.8339082-1.9713162 18.3362026-10.8053302 21.2064561l-4.5839449 1.4901205c-2.2623604.7350133-4.5686101.9645067-6.7960706.7498193 1.9278501 1.1358335 3.6588857 2.6777751 5.0571031 4.6015006l2.8330269 3.8992721c5.4597212 7.5151145 3.7913996 18.0485427-3.7232919 23.5077351-7.5145858 5.46025-18.0480139 3.7913996-23.5077351-3.7226573l-2.8330269-3.8992721c-1.3982174-1.9247831-2.3289875-4.0473323-2.813779-6.2322783-.4846858 2.184946-1.4154559 4.3074952-2.8136733 6.2322783l-2.8330268 3.8992721c-5.4597212 7.5140569-15.9931494 9.1829073-23.5078409 3.7226573-7.5145858-5.4591924-9.18290734-15.9926206-3.7231862-23.5077351l2.8330269-3.8992721c1.3982174-1.9237255 3.1292531-3.4656671 5.0571031-4.6015006z" fill="#ff6c89"/><path d="m47.9999587 27.4196981c11.9065811 0 21.5732224 9.6662182 21.5732224 21.5734339 0 11.9061581-9.6666413 21.5734339-21.5732224 21.5734339-11.9064754 0-21.5731166-9.6672758-21.5731166-21.5734339 0-11.9072157 9.6666412-21.5734339 21.5731166-21.5734339z" fill="#ffc9c4"/></g></svg>