<?xml version="1.0" encoding="UTF-8"?>
<svg width="96px" height="96px" viewBox="0 0 96 96" version="1.1" xmlns="http://www.w3.org/2000/svg" xmlns:xlink="http://www.w3.org/1999/xlink">
    <title>hanakai_icon_sml</title>
    <defs>
        <path d="M51.3672297,81.4403003 C52.1382417,82.2115894 52.5715606,83.2576989 52.5715606,84.3484799 L52.5715606,91.8872308 C52.5715606,92.9780072 52.1382417,94.0241074 51.3672297,94.7954012 C50.5957557,95.5666927 49.5498773,96 48.4587267,96 L47.5412733,96 C46.4505847,96 45.4042905,95.5666927 44.6330013,94.7954012 C43.8617121,94.0241074 43.4283932,92.9780072 43.4283932,91.8872308 L43.4283932,84.3484799 C43.4283932,83.2576989 43.8617121,82.2115894 44.6330013,81.4403003 C45.4042905,80.6690111 46.4505847,80.2356922 47.5412733,80.2356922 L48.4587267,80.2356922 C49.5498773,80.2356922 50.5957557,80.6690111 51.3672297,81.4403003 Z M31.4847755,75.6875069 C31.7489245,75.84 32.0154295,75.993879 32.2795323,76.146326 C33.2241952,76.6917165 33.9134864,77.5900448 34.1957904,78.6436379 C34.4780944,79.6972311 34.3303133,80.8198412 33.7849228,81.7645041 L30.0155565,88.2932525 C29.470166,89.2379154 28.5718377,89.9272066 27.5182446,90.2095106 C26.4646514,90.4918146 25.3420413,90.3440335 24.3973784,89.798643 C24.1332756,89.6461498 23.8667706,89.4922708 23.6026216,89.3397777 C22.6580049,88.7943872 21.9687137,87.8961051 21.6864097,86.8425119 C21.4040595,85.7888725 21.5518868,84.6662625 22.0972773,83.7216457 L25.8666436,77.1928974 C26.4120341,76.2482344 27.3103162,75.5589433 28.3639555,75.2766392 C29.4175487,74.9943352 30.5401588,75.1421164 31.4847755,75.6875069 Z M67.6360907,75.2766392 C68.6898224,75.5589433 69.5878735,76.2482344 70.1334488,77.1928974 C71.2948174,79.2042731 72.7416775,81.71027 73.9025841,83.7216457 C74.4481594,84.6662625 74.5959867,85.7888725 74.3137289,86.8425119 C74.0314711,87.8961051 73.3422261,88.7943872 72.397517,89.3397777 C72.1332756,89.4922708 71.8667244,89.6461498 71.602483,89.798643 C70.6582359,90.3440335 69.53521,90.4918146 68.4819402,90.2095106 C67.4282085,89.9272066 66.5296954,89.2379154 65.9845821,88.2932525 C64.8232135,86.2818767 63.3763534,83.7758799 62.2149848,81.7645041 C61.6698715,80.8198412 61.5220442,79.6972311 61.804302,78.6436379 C62.0865598,77.5900448 62.7758048,76.6917165 63.7205139,76.146326 C63.9847553,75.993879 64.2513065,75.84 64.5150859,75.6875069 C65.459795,75.1421164 66.5823589,74.9943352 67.6360907,75.2766392 Z M76.5528512,48 C76.5528512,63.7394081 63.7741013,76.5178346 48.034647,76.5178346 C32.2954237,76.5178346 19.5169973,63.7394081 19.5169973,48 C19.5169973,32.2605457 32.2954237,19.4822578 48.034647,19.4822578 C63.7741013,19.4822578 76.5528512,32.2605457 76.5528512,48 Z M17.3563621,61.8042096 C18.4099552,62.0865136 19.3082835,62.7758048 19.853674,63.7204677 C20.006121,63.9845705 20.16,64.2510755 20.3124931,64.5152245 C20.8578836,65.4598412 21.0056648,66.5824513 20.7233608,67.6360445 C20.4410567,68.6896838 19.7517656,69.5879659 18.8071026,70.1333564 L12.2783543,73.9027227 C11.3337375,74.4481132 10.2111275,74.5959405 9.15748809,74.3135903 C8.1038949,74.0312863 7.20561282,73.3419951 6.66022232,72.3973784 C6.50772918,72.1332294 6.35385015,71.8667244 6.20135701,71.6026216 C5.65596651,70.6579587 5.50818536,69.5353486 5.79048939,68.4817554 C6.07279342,67.4281623 6.7620846,66.529834 7.70674751,65.9844435 L14.2354959,62.2150772 C15.1801588,61.6696867 16.3027689,61.5219056 17.3563621,61.8042096 Z M81.7646889,62.2150772 C83.7760647,63.3763534 86.2817381,64.8231673 88.2931139,65.9844435 C89.237823,66.529834 89.927068,67.4281623 90.2097878,68.4817554 C90.4920456,69.5353486 90.3442183,70.6579587 89.798643,71.6026216 C89.646196,71.8667244 89.4923632,72.1332294 89.3399163,72.3973784 C88.794341,73.3419951 87.8962899,74.0312863 86.8425581,74.3135903 C85.7888263,74.5959405 84.6662625,74.4481132 83.7215533,73.9027227 C81.7101776,72.7414465 79.2045041,71.2946326 77.1931283,70.1333564 C76.2484192,69.5879659 75.5591742,68.6896838 75.2764545,67.6360445 C74.9941966,66.5824513 75.142024,65.4598412 75.6875992,64.5152245 C75.8400462,64.2510755 75.993879,63.9845705 76.146326,63.7204677 C76.6919013,62.7758048 77.5899524,62.0865136 78.6436841,61.8042096 C79.6974159,61.5219056 80.8199798,61.6696867 81.7646889,62.2150772 Z M14.5596997,44.6327703 C15.3309889,45.4042443 15.7643078,46.4501227 15.7643078,47.5412733 L15.7643078,48.4587267 C15.7643078,49.5494153 15.3309889,50.5957095 14.5596997,51.3669987 C13.7884106,52.1382879 12.7423011,52.5716068 11.6515201,52.5716068 L4.11276916,52.5716068 C3.02199278,52.5716068 1.97589259,52.1382879 1.20459882,51.3669987 C0.433307348,50.5957095 0,49.5494153 0,48.4587267 L0,47.5412733 C0,46.4501227 0.433307348,45.4042443 1.20459882,44.6327703 C1.97589259,43.8617583 3.02199278,43.4284394 4.11276916,43.4284394 L11.6515201,43.4284394 C12.7423011,43.4284394 13.7884106,43.8617583 14.5596997,44.6327703 Z M94.7956691,44.6327703 C95.5666811,45.4042443 96,46.4501227 96,47.5412733 L96,48.4587267 C96,49.5494153 95.5666811,50.5957095 94.7956691,51.3669987 C94.0241952,52.1382879 92.9778548,52.5716068 91.8871662,52.5716068 L84.3484337,52.5716068 C83.2577451,52.5716068 82.2118666,52.1382879 81.4403927,51.3669987 C80.6689187,50.5957095 80.2355998,49.5494153 80.2355998,48.4587267 L80.2355998,47.5412733 C80.2355998,46.4501227 80.6689187,45.4042443 81.4403927,44.6327703 C82.2118666,43.8617583 83.2577451,43.4284394 84.3484337,43.4284394 L91.8871662,43.4284394 C92.9778548,43.4284394 94.0241952,43.8617583 94.7956691,44.6327703 Z M12.2783543,22.0974159 C14.28973,23.2583225 16.7957269,24.7051826 18.8071026,25.8665512 C19.7517656,26.4121265 20.4410567,27.3101776 20.7233608,28.3639093 C21.0056648,29.4176411 20.8578836,30.540205 20.3124931,31.4849141 C20.16,31.7486935 20.006121,32.0152447 19.853674,32.2794861 C19.3082835,33.2241952 18.4099552,33.9134402 17.3563621,34.195698 C16.3027689,34.4779558 15.1801588,34.3301285 14.2354959,33.7850152 C12.2241201,32.6236466 9.71812329,31.1767865 7.70674751,30.0154179 C6.7620846,29.4703046 6.07279342,28.5717915 5.79048939,27.5180598 C5.50818536,26.46479 5.65596651,25.3417641 6.20135701,24.397517 C6.35385015,24.1332756 6.50772918,23.8667244 6.66022232,23.602483 C7.20561282,22.6577739 8.1038949,21.9685289 9.15748809,21.6862711 C10.2111275,21.4040133 11.3337375,21.5518406 12.2783543,22.0974159 Z M86.8425581,21.6862711 C87.8962899,21.9685289 88.794341,22.6577739 89.3399163,23.602483 C89.4923632,23.8667244 89.646196,24.1332756 89.798643,24.397517 C90.3442183,25.3417641 90.4920456,26.46479 90.2097878,27.5180598 C89.927068,28.5717915 89.237823,29.4703046 88.2931139,30.0154179 C86.2817381,31.1767865 83.7760647,32.6236466 81.7646889,33.7850152 C80.8199798,34.3301285 79.6974159,34.4779558 78.6436841,34.195698 C77.5899524,33.9134402 76.6919013,33.2241952 76.146326,32.2794861 C75.993879,32.0152447 75.8400462,31.7486935 75.6875992,31.4849141 C75.142024,30.540205 74.9941966,29.4176411 75.2764545,28.3639093 C75.5591742,27.3101776 76.2484192,26.4121265 77.1931283,25.8665512 C79.2045041,24.7051826 81.7101776,23.2583225 83.7215533,22.0974159 C84.6662625,21.5518406 85.7888263,21.4040133 86.8425581,21.6862711 Z M27.5182446,5.79021221 C28.5718377,6.07293201 29.470166,6.76217699 30.0155565,7.7068861 C31.1768327,9.71826187 32.6236466,12.2239353 33.7849228,14.2353111 C34.3303133,15.1800202 34.4780944,16.3025841 34.1957904,17.3563159 C33.9134864,18.4100476 33.2241952,19.3080987 32.2795323,19.853674 C32.0154295,20.006121 31.7489245,20.1599538 31.4847755,20.3124008 C30.5401588,20.857976 29.4175487,21.0058034 28.3639555,20.7235455 C27.3103162,20.4408258 26.4120341,19.7515808 25.8666436,18.8068717 C24.7053674,16.7954959 23.2585535,14.2898224 22.0972773,12.2784467 C21.5518868,11.3337375 21.4040595,10.2111737 21.6864097,9.15744189 C21.9687137,8.10371012 22.6580049,7.20565902 23.6026216,6.66008373 C23.8667706,6.50763678 24.1332756,6.35380396 24.3973784,6.20135701 C25.3420413,5.65578172 26.4646514,5.50795438 27.5182446,5.79021221 Z M71.602483,6.20135701 C71.8667244,6.35380396 72.1332756,6.50763678 72.397517,6.66008373 C73.3422261,7.20565902 74.0314711,8.10371012 74.3137289,9.15744189 C74.5959867,10.2111737 74.4481594,11.3337375 73.9025841,12.2784467 C72.7416775,14.2898224 71.2948174,16.7954959 70.1334488,18.8068717 C69.5878735,19.7515808 68.6898224,20.4408258 67.6360907,20.7235455 C66.5823589,21.0058034 65.459795,20.857976 64.5150859,20.3124008 C64.2513065,20.1599538 63.9847553,20.006121 63.7205139,19.853674 C62.7758048,19.3080987 62.0865598,18.4100476 61.804302,17.3563159 C61.5220442,16.3025841 61.6698715,15.1800202 62.2149848,14.2353111 C63.3763534,12.2239353 64.8232135,9.71826187 65.9845821,7.7068861 C66.5296954,6.76217699 67.4282085,6.07293201 68.4819402,5.79021221 C69.53521,5.50795438 70.6582359,5.65578172 71.602483,6.20135701 Z M51.3672297,1.20433088 C52.1382417,1.97580482 52.5715606,3.02214523 52.5715606,4.11283384 L52.5715606,11.6515663 C52.5715606,12.7422549 52.1382417,13.7881334 51.3672297,14.5596073 C50.5957557,15.3310813 49.5498773,15.7644002 48.4587267,15.7644002 L47.5412733,15.7644002 C46.4505847,15.7644002 45.4042905,15.3310813 44.6330013,14.5596073 C43.8617121,13.7881334 43.4283932,12.7422549 43.4283932,11.6515663 L43.4283932,4.11283384 C43.4283932,3.02214523 43.8617121,1.97580482 44.6330013,1.20433088 C45.4042905,0.433318897 46.4505847,0 47.5412733,0 L48.4587267,0 C49.5498773,0 50.5957557,0.433318897 51.3672297,1.20433088 Z" id="path-1"></path>
    </defs>
    <g id="hanakai_icon_sml" stroke="none" fill="none" xlink:href="#path-1" fill-rule="evenodd">
        <path d="M48.034647,19.4822578 C63.7741013,19.4822578 76.5528512,32.2605457 76.5528512,48 C76.5528512,63.7394081 63.7741013,76.5178346 48.034647,76.5178346 C32.2954237,76.5178346 19.5169973,63.7394081 19.5169973,48 C19.5169973,32.2605457 32.2954237,19.4822578 48.034647,19.4822578 Z" id="Fill-1" fill="#FFD33B"></path>
        <path d="M48.4587267,0 C49.5498773,0 50.5957557,0.433318897 51.3672297,1.20433088 C52.1382417,1.97580482 52.5715606,3.02214523 52.5715606,4.11283384 L52.5715606,11.6515663 C52.5715606,12.7422549 52.1382417,13.7881334 51.3672297,14.5596073 C50.5957557,15.3310813 49.5498773,15.7644002 48.4587267,15.7644002 L47.5412733,15.7644002 C46.4505847,15.7644002 45.4042905,15.3310813 44.6330013,14.5596073 C43.8617121,13.7881334 43.4283932,12.7422549 43.4283932,11.6515663 L43.4283932,4.11283384 C43.4283932,3.02214523 43.8617121,1.97580482 44.6330013,1.20433088 C45.4042905,0.433318897 46.4505847,0 47.5412733,0 L48.4587267,0 Z" id="Fill-2" fill="#FFD33B"></path>
        <path d="M24.3973784,6.20135701 C25.3420413,5.65578172 26.4646514,5.50795438 27.5182446,5.79021221 C28.5718377,6.07293201 29.470166,6.76217699 30.0155565,7.7068861 C31.1768327,9.71826187 32.6236466,12.2239353 33.7849228,14.2353111 C34.3303133,15.1800202 34.4780944,16.3025841 34.1957904,17.3563159 C33.9134864,18.4100476 33.2241952,19.3080987 32.2795323,19.853674 C32.0154295,20.006121 31.7489245,20.1599538 31.4847755,20.3124008 C30.5401588,20.857976 29.4175487,21.0058034 28.3639555,20.7235455 C27.3103162,20.4408258 26.4120341,19.7515808 25.8666436,18.8068717 C24.7053674,16.7954959 23.2585535,14.2898224 22.0972773,12.2784467 C21.5518868,11.3337375 21.4040595,10.2111737 21.6864097,9.15744189 C21.9687137,8.10371012 22.6580049,7.20565902 23.6026216,6.66008373 C23.8667706,6.50763678 24.1332756,6.35380396 24.3973784,6.20135701 Z" id="Fill-3" fill="#FFD33B"></path>
        <path d="M6.66022232,23.602483 C7.20561282,22.6577739 8.1038949,21.9685289 9.15748809,21.6862711 C10.2111275,21.4040133 11.3337375,21.5518406 12.2783543,22.0974159 C14.28973,23.2583225 16.7957269,24.7051826 18.8071026,25.8665512 C19.7517656,26.4121265 20.4410567,27.3101776 20.7233608,28.3639093 C21.0056648,29.4176411 20.8578836,30.540205 20.3124931,31.4849141 C20.16,31.7486935 20.006121,32.0152447 19.853674,32.2794861 C19.3082835,33.2241952 18.4099552,33.9134402 17.3563621,34.195698 C16.3027689,34.4779558 15.1801588,34.3301285 14.2354959,33.7850152 C12.2241201,32.6236466 9.71812329,31.1767865 7.70674751,30.0154179 C6.7620846,29.4703046 6.07279342,28.5717915 5.79048939,27.5180598 C5.50818536,26.46479 5.65596651,25.3417641 6.20135701,24.397517 C6.35385015,24.1332756 6.50772918,23.8667244 6.66022232,23.602483 Z" id="Fill-4" fill="#FFD33B"></path>
        <path d="M0,47.5412733 C0,46.4501227 0.433307348,45.4042443 1.20459882,44.6327703 C1.97589259,43.8617583 3.02199278,43.4284394 4.11276916,43.4284394 L11.6515201,43.4284394 C12.7423011,43.4284394 13.7884106,43.8617583 14.5596997,44.6327703 C15.3309889,45.4042443 15.7643078,46.4501227 15.7643078,47.5412733 L15.7643078,48.4587267 C15.7643078,49.5494153 15.3309889,50.5957095 14.5596997,51.3669987 C13.7884106,52.1382879 12.7423011,52.5716068 11.6515201,52.5716068 L4.11276916,52.5716068 C3.02199278,52.5716068 1.97589259,52.1382879 1.20459882,51.3669987 C0.433307348,50.5957095 0,49.5494153 0,48.4587267 L0,47.5412733 Z" id="Fill-5" fill="#FFD33B"></path>
        <path d="M6.20135701,71.6026216 C5.65596651,70.6579587 5.50818536,69.5353486 5.79048939,68.4817554 C6.07279342,67.4281623 6.7620846,66.529834 7.70674751,65.9844435 L14.2354959,62.2150772 C15.1801588,61.6696867 16.3027689,61.5219056 17.3563621,61.8042096 C18.4099552,62.0865136 19.3082835,62.7758048 19.853674,63.7204677 C20.006121,63.9845705 20.16,64.2510755 20.3124931,64.5152245 C20.8578836,65.4598412 21.0056648,66.5824513 20.7233608,67.6360445 C20.4410567,68.6896838 19.7517656,69.5879659 18.8071026,70.1333564 L12.2783543,73.9027227 C11.3337375,74.4481132 10.2111275,74.5959405 9.15748809,74.3135903 C8.1038949,74.0312863 7.20561282,73.3419951 6.66022232,72.3973784 C6.50772918,72.1332294 6.35385015,71.8667244 6.20135701,71.6026216 Z" id="Fill-6" fill="#FFD33B"></path>
        <path d="M23.6026216,89.3397777 C22.6580049,88.7943872 21.9687137,87.8961051 21.6864097,86.8425119 C21.4040595,85.7888725 21.5518868,84.6662625 22.0972773,83.7216457 L25.8666436,77.1928974 C26.4120341,76.2482344 27.3103162,75.5589433 28.3639555,75.2766392 C29.4175487,74.9943352 30.5401588,75.1421164 31.4847755,75.6875069 C31.7489245,75.84 32.0154295,75.993879 32.2795323,76.146326 C33.2241952,76.6917165 33.9134864,77.5900448 34.1957904,78.6436379 C34.4780944,79.6972311 34.3303133,80.8198412 33.7849228,81.7645041 L30.0155565,88.2932525 C29.470166,89.2379154 28.5718377,89.9272066 27.5182446,90.2095106 C26.4646514,90.4918146 25.3420413,90.3440335 24.3973784,89.798643 C24.1332756,89.6461498 23.8667706,89.4922708 23.6026216,89.3397777 Z" id="Fill-7" fill="#FFD33B"></path>
        <path d="M47.5412733,96 C46.4505847,96 45.4042905,95.5666927 44.6330013,94.7954012 C43.8617121,94.0241074 43.4283932,92.9780072 43.4283932,91.8872308 L43.4283932,84.3484799 C43.4283932,83.2576989 43.8617121,82.2115894 44.6330013,81.4403003 C45.4042905,80.6690111 46.4505847,80.2356922 47.5412733,80.2356922 L48.4587267,80.2356922 C49.5498773,80.2356922 50.5957557,80.6690111 51.3672297,81.4403003 C52.1382417,82.2115894 52.5715606,83.2576989 52.5715606,84.3484799 L52.5715606,91.8872308 C52.5715606,92.9780072 52.1382417,94.0241074 51.3672297,94.7954012 C50.5957557,95.5666927 49.5498773,96 48.4587267,96 L47.5412733,96 Z" id="Fill-8" fill="#FFD33B"></path>
        <path d="M71.602483,89.798643 C70.6582359,90.3440335 69.53521,90.4918146 68.4819402,90.2095106 C67.4282085,89.9272066 66.5296954,89.2379154 65.9845821,88.2932525 C64.8232135,86.2818767 63.3763534,83.7758799 62.2149848,81.7645041 C61.6698715,80.8198412 61.5220442,79.6972311 61.804302,78.6436379 C62.0865598,77.5900448 62.7758048,76.6917165 63.7205139,76.146326 C63.9847553,75.993879 64.2513065,75.84 64.5150859,75.6875069 C65.459795,75.1421164 66.5823589,74.9943352 67.6360907,75.2766392 C68.6898224,75.5589433 69.5878735,76.2482344 70.1334488,77.1928974 C71.2948174,79.2042731 72.7416775,81.71027 73.9025841,83.7216457 C74.4481594,84.6662625 74.5959867,85.7888725 74.3137289,86.8425119 C74.0314711,87.8961051 73.3422261,88.7943872 72.397517,89.3397777 C72.1332756,89.4922708 71.8667244,89.6461498 71.602483,89.798643 Z" id="Fill-9" fill="#FFD33B"></path>
        <path d="M89.3399163,72.3973784 C88.794341,73.3419951 87.8962899,74.0312863 86.8425581,74.3135903 C85.7888263,74.5959405 84.6662625,74.4481132 83.7215533,73.9027227 C81.7101776,72.7414465 79.2045041,71.2946326 77.1931283,70.1333564 C76.2484192,69.5879659 75.5591742,68.6896838 75.2764545,67.6360445 C74.9941966,66.5824513 75.142024,65.4598412 75.6875992,64.5152245 C75.8400462,64.2510755 75.993879,63.9845705 76.146326,63.7204677 C76.6919013,62.7758048 77.5899524,62.0865136 78.6436841,61.8042096 C79.6974159,61.5219056 80.8199798,61.6696867 81.7646889,62.2150772 C83.7760647,63.3763534 86.2817381,64.8231673 88.2931139,65.9844435 C89.237823,66.529834 89.927068,67.4281623 90.2097878,68.4817554 C90.4920456,69.5353486 90.3442183,70.6579587 89.798643,71.6026216 C89.646196,71.8667244 89.4923632,72.1332294 89.3399163,72.3973784 Z" id="Fill-10" fill="#FFD33B"></path>
        <path d="M96,48.4587267 C96,49.5494153 95.5666811,50.5957095 94.7956691,51.3669987 C94.0241952,52.1382879 92.9778548,52.5716068 91.8871662,52.5716068 L84.3484337,52.5716068 C83.2577451,52.5716068 82.2118666,52.1382879 81.4403927,51.3669987 C80.6689187,50.5957095 80.2355998,49.5494153 80.2355998,48.4587267 L80.2355998,47.5412733 C80.2355998,46.4501227 80.6689187,45.4042443 81.4403927,44.6327703 C82.2118666,43.8617583 83.2577451,43.4284394 84.3484337,43.4284394 L91.8871662,43.4284394 C92.9778548,43.4284394 94.0241952,43.8617583 94.7956691,44.6327703 C95.5666811,45.4042443 96,46.4501227 96,47.5412733 L96,48.4587267 Z" id="Fill-11" fill="#FFD33B"></path>
        <path d="M89.798643,24.397517 C90.3442183,25.3417641 90.4920456,26.46479 90.2097878,27.5180598 C89.927068,28.5717915 89.237823,29.4703046 88.2931139,30.0154179 C86.2817381,31.1767865 83.7760647,32.6236466 81.7646889,33.7850152 C80.8199798,34.3301285 79.6974159,34.4779558 78.6436841,34.195698 C77.5899524,33.9134402 76.6919013,33.2241952 76.146326,32.2794861 C75.993879,32.0152447 75.8400462,31.7486935 75.6875992,31.4849141 C75.142024,30.540205 74.9941966,29.4176411 75.2764545,28.3639093 C75.5591742,27.3101776 76.2484192,26.4121265 77.1931283,25.8665512 C79.2045041,24.7051826 81.7101776,23.2583225 83.7215533,22.0974159 C84.6662625,21.5518406 85.7888263,21.4040133 86.8425581,21.6862711 C87.8962899,21.9685289 88.794341,22.6577739 89.3399163,23.602483 C89.4923632,23.8667244 89.646196,24.1332756 89.798643,24.397517 Z" id="Fill-12" fill="#FFD33B"></path>
        <path d="M72.397517,6.66008373 C73.3422261,7.20565902 74.0314711,8.10371012 74.3137289,9.15744189 C74.5959867,10.2111737 74.4481594,11.3337375 73.9025841,12.2784467 C72.7416775,14.2898224 71.2948174,16.7954959 70.1334488,18.8068717 C69.5878735,19.7515808 68.6898224,20.4408258 67.6360907,20.7235455 C66.5823589,21.0058034 65.459795,20.857976 64.5150859,20.3124008 C64.2513065,20.1599538 63.9847553,20.006121 63.7205139,19.853674 C62.7758048,19.3080987 62.0865598,18.4100476 61.804302,17.3563159 C61.5220442,16.3025841 61.6698715,15.1800202 62.2149848,14.2353111 C63.3763534,12.2239353 64.8232135,9.71826187 65.9845821,7.7068861 C66.5296954,6.76217699 67.4282085,6.07293201 68.4819402,5.79021221 C69.53521,5.50795438 70.6582359,5.65578172 71.602483,6.20135701 C71.8667244,6.35380396 72.1332756,6.50763678 72.397517,6.66008373 Z" id="Fill-13" fill="#FFD33B"></path>
    </g>
</svg>