<svg height="195" viewBox="0 0 859 195" width="859" xmlns="http://www.w3.org/2000/svg" xmlns:xlink="http://www.w3.org/1999/xlink"><defs><path id="a" d="m104.2636 177.622v10.064c0 3.836-3.11 6.946-6.9466 6.946-3.8382 0-6.9484-3.11-6.9484-6.946v-10.064c0-3.838 3.1102-6.948 6.9466-6.948h.0018c3.8366 0 6.9466 3.11 6.9466 6.948zm-35.0216-12.532c3.546 1.47 5.2292 5.532 3.761 9.076-1.2106 2.924-2.6404 6.376-3.8512 9.298-1.4682 3.546-5.5316 5.228-9.0762 3.76-3.546-1.468-5.2292-5.532-3.761-9.076 1.2108-2.924 2.6404-6.376 3.8512-9.298 1.4682-3.544 5.5316-5.228 9.0762-3.76zm65.2244 3.76c1.2108 2.922 2.6406 6.374 3.8512 9.298 1.4682 3.544-.215 7.608-3.7594 9.076-3.546 1.468-7.6096-.214-9.0778-3.76-1.2106-2.922-2.6404-6.374-3.8512-9.298-1.4682-3.544.215-7.606 3.7594-9.076 3.5462-1.468 7.6096.216 9.0778 3.76zm-89.0238-19.662c2.7142 2.714 2.7142 7.112.0014 9.824-2.2372 2.238-4.879 4.88-7.1162 7.116-2.7128 2.714-7.1112 2.714-9.824 0-2.714-2.714-2.714-7.112-.0012-9.824 2.2372-2.238 4.879-4.88 7.1162-7.116 2.7128-2.714 7.111-2.714 9.8238 0zm113.571 0c2.237 2.236 4.879 4.878 7.116 7.116 2.7128 2.712 2.7128 7.11 0 9.824-2.714 2.714-7.1124 2.714-9.8252 0-2.237-2.236-4.879-4.878-7.116-7.116-2.7128-2.712-2.7128-7.11 0-9.824 2.714-2.714 7.1124-2.714 9.8252 0zm6.7304-51.872c0 37.72-30.624 68.344-68.3444 68.344s-68.3444-30.624-68.3444-68.344 30.624-68.346 68.3444-68.346 68.3444 30.626 68.3444 68.346zm644.57 7.79v18.1c0 6.146 2.158 7.308 7.804 7.142v23.248c-4.65 1.164-7.14 1.828-13.95 1.828-11.79 0-18.764-4.816-21.92-12.124-4.816 7.142-13.452 12.29-27.734 12.29-18.1 0-30.058-8.802-30.058-24.412 0-17.936 15.112-26.57 41.186-29.726l12.786-1.494v-1.662c0-6.974-2.656-10.462-9.632-10.462-6.144 0-9.632 2.99-9.964 9.466h-31.386c0-21.92 15.444-30.058 42.18-30.058 31.554 0 40.688 17.936 40.688 37.864zm-379.796 0v18.1c0 6.146 2.16 7.308 7.806 7.142v23.248c-4.65 1.164-7.14 1.828-13.95 1.828-11.79 0-18.766-4.816-21.92-12.124-4.816 7.142-13.452 12.29-27.734 12.29-18.1 0-30.058-8.802-30.058-24.412 0-17.936 15.112-26.57 41.184-29.726l12.788-1.494v-1.662c0-6.974-2.658-10.462-9.632-10.462-6.144 0-9.632 2.99-9.964 9.466h-31.386c0-21.92 15.444-30.058 42.18-30.058 31.554 0 40.686 17.936 40.686 37.864zm191.974 0v18.1c0 6.146 2.158 7.308 7.806 7.142v23.248c-4.65 1.164-7.142 1.828-13.95 1.828-11.792 0-18.766-4.816-21.922-12.124-4.816 7.142-13.45 12.29-27.732 12.29-18.102 0-30.058-8.802-30.058-24.412 0-17.936 15.112-26.57 41.184-29.726l12.788-1.494v-1.662c0-6.974-2.658-10.462-9.632-10.462-6.146 0-9.632 2.99-9.964 9.466h-31.388c0-21.92 15.444-30.058 42.182-30.058 31.552 0 40.686 17.936 40.686 37.864zm-89.012-2.99v51.48h-33.214v-43.508c0-10.962-3.486-15.776-10.794-15.776-7.804 0-13.95 5.646-13.95 17.104v42.18h-33.212v-84.362h28.896l1.826 11.626c7.14-9.466 16.938-13.618 29.892-13.618 20.758 0 30.556 13.618 30.556 34.874zm134.016-1.992h4.65l22.918-30.89h33.876l-28.064 37.2 29.062 47.162h-39.524l-18.102-31.884h-4.816v31.884h-33.214v-124.55h33.214zm188.6514 53.472h-33.2134v-84.3618h33.2134zm-584.8874-69.914h36.038v-43.01h34.542v112.924h-34.542v-40.686h-36.038v40.686h-34.542v-112.924h34.542zm-241.7194 41.706c1.469 3.546-.2142 7.61-3.7586 9.078-2.923 1.21-6.37482 2.64-9.2978 3.85-3.54444 1.47-7.60794-.214-9.0761-3.758-1.46884-3.546.21432-7.61 3.75876-9.078 2.92296-1.21 6.37474-2.64 9.29774-3.852 3.5444-1.468 7.608.216 9.076 3.76zm144.627-3.76c2.923 1.212 6.3748 2.642 9.2978 3.852 3.5444 1.468 5.2276 5.532 3.7594 9.076-1.4688 3.546-5.5322 5.23-9.0768 3.76-2.923-1.21-6.3746-2.64-9.2976-3.85-3.5444-1.468-5.2276-5.532-3.7596-9.076 1.469-3.546 5.5324-5.23 9.0768-3.762zm596.4564-3.404c-9.798 1.164-13.618 4.152-13.618 8.636 0 4.318 2.656 6.808 8.304 6.808 7.638 0 13.118-6.144 13.118-14.946v-1.328zm-187.822 0c-9.798 1.164-13.618 4.152-13.618 8.636 0 4.318 2.658 6.808 8.304 6.808 7.638 0 13.12-6.144 13.12-14.946v-1.328zm-191.974 0c-9.798 1.164-13.616 4.152-13.616 8.636 0 4.318 2.656 6.808 8.302 6.808 7.64 0 13.12-6.144 13.12-14.946v-1.328zm-196.1958-20.91c0 3.838-3.11 6.948-6.9464 6.948h-10.0638c-3.8366 0-6.9466-3.11-6.9466-6.946 0-3.838 3.11-6.948 6.9466-6.948h10.0638c3.8364 0 6.9464 3.11 6.9464 6.946zm-170.6754 0c0 3.838-3.11 6.948-6.94646 6.948h-10.06378c-3.83648 0-6.94656-3.11-6.94656-6.946 0-3.838 3.11008-6.948 6.94656-6.948h10.06378c3.83646 0 6.94646 3.11 6.94646 6.946zm163.2674-37.24c1.4688 3.546-.2144 7.608-3.7588 9.078-2.923 1.21-6.3748 2.64-9.2978 3.85-3.5444 1.468-7.6078-.214-9.076-3.76-1.4688-3.546.2144-7.608 3.7588-9.076 2.923-1.212 6.3746-2.642 9.2976-3.852 3.5446-1.468 7.608.214 9.0762 3.76zm-170.74-3.76c2.92298 1.21 6.3748 2.64 9.2978 3.852 3.5444 1.468 5.2276 5.53 3.7594 9.076-1.4688 3.546-5.5324 5.228-9.0768 3.76-2.923-1.21-6.37478-2.64-9.29774-3.85-3.54444-1.47-5.2276-5.532-3.75946-9.078 1.46886-3.546 5.53236-5.228 9.0768-3.76zm841.9878-13.65c0 9.964-7.804 16.108-18.93 16.108-11.128 0-18.932-6.144-18.932-16.108 0-10.13 7.804-16.108 18.932-16.108 11.126 0 18.93 5.978 18.93 16.108zm-692.3436-14.162c2.714 2.714 2.714 7.112.0012 9.826-2.237 2.236-4.879 4.878-7.116 7.116-2.7128 2.712-7.1112 2.712-9.824 0-2.714-2.714-2.714-7.114-.0012-9.826 2.237-2.238 4.879-4.878 7.116-7.116 2.7128-2.712 7.1112-2.712 9.824 0zm-127.8006 0c2.2372 2.238 4.879 4.878 7.1162 7.116 2.7128 2.712 2.7128 7.112 0 9.824-2.7142 2.714-7.1124 2.714-9.8252.002-2.2372-2.238-4.879-4.88-7.1162-7.116-2.7128-2.714-2.7128-7.112 0-9.824 2.714-2.714 7.1124-2.714 9.8252-.002zm30.824-17.336c1.2108 2.924 2.6406 6.374 3.8512 9.298 1.4682 3.544-.215 7.608-3.7594 9.076-3.5462 1.468-7.6096-.214-9.0778-3.758-1.2108-2.924-2.6404-6.376-3.8512-9.298-1.4682-3.544.215-7.608 3.7594-9.076 3.5462-1.47 7.6096.214 9.0778 3.758zm65.4048-3.76c3.546 1.47 5.2292 5.534 3.761 9.078-1.2106 2.922-2.6404 6.374-3.8512 9.298-1.4682 3.544-5.5316 5.226-9.076 3.758-3.5462-1.468-5.2294-5.532-3.7612-9.076 1.2108-2.924 2.6406-6.374 3.8512-9.298 1.4682-3.544 5.5318-5.228 9.0762-3.76zm-30.293-.46v10.064c0 3.836-3.11 6.946-6.9466 6.946-3.8382 0-6.9484-3.11-6.9484-6.946v-10.064c0-3.836 3.1102-6.946 6.9466-6.946h.0018c3.8366 0 6.9466 3.11 6.9466 6.946z"/></defs><g fill="none" fill-rule="evenodd" xlink:href="#a"><path d="m97.3996 28.97c37.7204 0 68.3444 30.626 68.3444 68.346s-30.624 68.344-68.3444 68.344-68.3444-30.624-68.3444-68.344 30.624-68.346 68.3444-68.346z" fill="#ffd33b"/><path d="m54.558 89.974c3.118 0 5.6494 2.53 5.6494 5.648s-2.5314 5.65-5.6494 5.65-5.6494-2.532-5.6494-5.65 2.5314-5.648 5.6494-5.648z" fill="#ffea89"/><path d="m140.2412 89.974c3.118 0 5.6494 2.53 5.6494 5.648s-2.5314 5.65-5.6494 5.65-5.6494-2.532-5.6494-5.65 2.5314-5.648 5.6494-5.648z" fill="#ffea89"/><path d="m74.5794 76.216c3.965 0 7.184 3.22 7.184 7.184 0 3.966-3.219 7.184-7.184 7.184s-7.184-3.218-7.184-7.184c0-3.964 3.219-7.184 7.184-7.184z" fill="#000"/><path d="m120.2198 76.216c3.965 0 7.184 3.22 7.184 7.184 0 3.966-3.219 7.184-7.184 7.184s-7.184-3.218-7.184-7.184c0-3.964 3.219-7.184 7.184-7.184z" fill="#000"/><path d="m113.2468 104.016c.9038-1.768 3.0732-2.47 4.8414-1.566s2.47 3.074 1.566 4.842c-4.0758 7.974-12.373 13.436-21.9354 13.436-10.1908 0-18.9444-6.204-22.6836-15.04-.7742-1.828.0822-3.942 1.911-4.716s3.942.082 4.716 1.912c2.6472 6.254 8.8426 10.648 16.0566 10.648 6.7698 0 12.6422-3.87 15.528-9.516z" fill="#000"/><g fill="#ffd33b"><path d="m97.317 0c3.8366 0 6.9466 3.11 6.9466 6.946v10.064c0 3.836-3.11 6.946-6.9466 6.946h-.0018c-3.8364 0-6.9466-3.11-6.9466-6.946v-10.064c0-3.836 3.1102-6.946 6.9466-6.946z"/><path d="m60.0756 7.406c3.5446-1.468 7.608.216 9.0762 3.76 1.2108 2.924 2.6406 6.374 3.8512 9.298 1.4682 3.544-.215 7.608-3.7594 9.076h-.0016c-3.5446 1.468-7.608-.214-9.0762-3.758-1.2108-2.924-2.6404-6.376-3.8512-9.298-1.4682-3.544.215-7.608 3.7594-9.076.0006 0 .0012-.002.0016-.002z"/><path d="m28.5038 28.502c2.7128-2.712 7.1112-2.712 9.824 0 2.2372 2.238 4.879 4.878 7.1162 7.116 2.7128 2.712 2.7128 7.112 0 9.824-.0004 0-.0008 0-.0014.002-2.7128 2.712-7.111 2.712-9.8238 0-2.2372-2.238-4.879-4.88-7.1162-7.116-2.7128-2.714-2.7128-7.112 0-9.824.0004-.002.0008-.002.0012-.002z"/><path d="m7.4081 60.074c1.46816-3.546 5.53166-5.228 9.0761-3.76 2.92298 1.21 6.3748 2.64 9.2978 3.852 3.5444 1.468 5.2276 5.53 3.7594 9.076h-.0008c-1.468 3.546-5.5316 5.228-9.076 3.76-2.923-1.21-6.37478-2.64-9.29774-3.85-3.54444-1.47-5.2276-5.532-3.75946-9.078z"/><path d="m0 97.314c0-3.836 3.11008-6.946 6.94656-6.946h10.06378c3.83646 0 6.94646 3.11 6.94646 6.946v.002c0 3.836-3.11 6.946-6.94646 6.946h-10.06378c-3.83648 0-6.94656-3.11-6.94656-6.946z"/><path d="m7.4074 134.556c-1.46814-3.544.21502-7.608 3.75946-9.076 2.92296-1.21 6.37474-2.64 9.29774-3.852 3.5444-1.468 7.608.216 9.076 3.76.0004 0 .0006.002.0008.002 1.4682 3.544-.215 7.608-3.7594 9.076-2.923 1.21-6.37482 2.64-9.2978 3.85-3.54444 1.47-7.60794-.214-9.0761-3.758-.00024-.002-.00046-.002-.0007-.002z"/><path d="m28.5026 166.128c-2.7128-2.714-2.7128-7.112 0-9.824 2.2372-2.238 4.879-4.88 7.1162-7.116 2.7128-2.714 7.111-2.714 9.8238 0h.0014c2.7128 2.714 2.7128 7.112 0 9.824-2.2372 2.238-4.879 4.88-7.1162 7.116-2.7128 2.714-7.1112 2.714-9.824 0z"/><path d="m60.074 187.224c-3.5444-1.468-5.2276-5.532-3.7594-9.076 1.2108-2.924 2.6404-6.376 3.8512-9.298 1.4682-3.544 5.5316-5.228 9.0762-3.76h.0016c3.5444 1.47 5.2276 5.532 3.7594 9.076-1.2106 2.924-2.6404 6.376-3.8512 9.298-1.4682 3.546-5.5316 5.228-9.0762 3.76z"/><path d="m97.3152 194.632c-3.8364 0-6.9466-3.11-6.9466-6.946v-10.064c0-3.838 3.1102-6.948 6.9466-6.948h.0018c3.8366 0 6.9466 3.11 6.9466 6.948v10.064c0 3.836-3.11 6.946-6.9466 6.946z"/><path d="m134.5566 187.224c-3.5444 1.468-7.608-.214-9.0762-3.76-1.2106-2.922-2.6404-6.374-3.8512-9.298-1.4682-3.544.215-7.606 3.7594-9.076h.0018c3.5444-1.468 7.6078.216 9.076 3.76 1.2108 2.922 2.6406 6.374 3.8512 9.298 1.4682 3.544-.215 7.608-3.7594 9.076z"/><path d="m166.1284 166.128c-2.7128 2.714-7.1112 2.714-9.824 0-2.237-2.236-4.879-4.878-7.116-7.116-2.7128-2.712-2.7128-7.11 0-9.824h.0012c2.7128-2.714 7.1112-2.714 9.824 0 2.237 2.236 4.879 4.878 7.116 7.116 2.7128 2.712 2.7128 7.11 0 9.824z"/><path d="m187.2242 134.558c-1.4682 3.544-5.5316 5.228-9.0762 3.758-2.923-1.21-6.3746-2.64-9.2976-3.85-3.5444-1.468-5.2276-5.532-3.7596-9.076.0004 0 .0006-.002.0008-.002 1.4682-3.544 5.5316-5.228 9.076-3.76 2.923 1.212 6.3748 2.642 9.2978 3.852 3.5444 1.468 5.2276 5.532 3.7594 9.076-.0002 0-.0004 0-.0006.002z"/><path d="m194.6322 97.316c0 3.836-3.11 6.946-6.9464 6.946h-10.0638c-3.8366 0-6.9466-3.11-6.9466-6.946v-.002c0-3.836 3.11-6.946 6.9466-6.946h10.0638c3.8364 0 6.9464 3.11 6.9464 6.946z"/><path d="m187.2248 60.074c1.4682 3.546-.215 7.608-3.7594 9.078-2.923 1.21-6.3748 2.64-9.2978 3.85-3.5444 1.468-7.6078-.214-9.076-3.76h-.0008c-1.468-3.546.2152-7.608 3.7596-9.076 2.923-1.212 6.3746-2.642 9.2976-3.852 3.5446-1.468 7.608.214 9.0762 3.76z"/><path d="m166.1296 28.504c2.7128 2.712 2.7128 7.11 0 9.824-2.237 2.236-4.879 4.878-7.116 7.116-2.7128 2.712-7.1112 2.712-9.824 0-.0004-.002-.0008-.002-.0012-.002-2.7128-2.712-2.7128-7.112 0-9.824 2.237-2.238 4.879-4.878 7.116-7.116 2.7128-2.712 7.1112-2.712 9.824 0 .0004 0 .0008 0 .0012.002z"/><path d="m134.5582 7.408c3.5444 1.468 5.2276 5.532 3.7594 9.076-1.2106 2.922-2.6404 6.374-3.8512 9.298-1.4682 3.544-5.5316 5.226-9.076 3.758h-.0018c-3.5444-1.468-5.2276-5.532-3.7594-9.076 1.2108-2.924 2.6406-6.374 3.8512-9.298 1.4682-3.544 5.5318-5.228 9.0762-3.76.0006 0 .001.002.0016.002z"/></g><g fill="#000" transform="translate(236.718 26.556)"><path d="m70.58 127.04h34.542v-112.924h-34.542v43.01h-36.038v-43.01h-34.542v112.924h34.542v-40.686h36.038z"/><path d="m138.002 129.034c14.282 0 22.918-5.148 27.734-12.29 3.154 7.308 10.13 12.124 21.92 12.124 6.81 0 9.3-.664 13.95-1.828v-23.248c-5.646.166-7.806-.996-7.806-7.142v-18.1c0-19.928-9.132-37.864-40.686-37.864-26.736 0-42.18 8.138-42.18 30.058h31.386c.332-6.476 3.82-9.466 9.964-9.466 6.974 0 9.632 3.488 9.632 10.462v1.662l-12.788 1.494c-26.072 3.156-41.184 11.79-41.184 29.726 0 15.61 11.958 24.412 30.058 24.412zm2.492-28.73c0-4.484 3.818-7.472 13.616-8.636l7.806-.83v1.328c0 8.802-5.48 14.946-13.12 14.946-5.646 0-8.302-2.49-8.302-6.808z"/><path d="m205.592 127.04h33.212v-42.18c0-11.458 6.146-17.104 13.95-17.104 7.308 0 10.794 4.814 10.794 15.776v43.508h33.214v-51.48c0-21.256-9.798-34.874-30.556-34.874-12.954 0-22.752 4.152-29.892 13.618l-1.826-11.626h-28.896z"/><path d="m329.976 129.034c14.282 0 22.916-5.148 27.732-12.29 3.156 7.308 10.13 12.124 21.922 12.124 6.808 0 9.3-.664 13.95-1.828v-23.248c-5.648.166-7.806-.996-7.806-7.142v-18.1c0-19.928-9.134-37.864-40.686-37.864-26.738 0-42.182 8.138-42.182 30.058h31.388c.332-6.476 3.818-9.466 9.964-9.466 6.974 0 9.632 3.488 9.632 10.462v1.662l-12.788 1.494c-26.072 3.156-41.184 11.79-41.184 29.726 0 15.61 11.956 24.412 30.058 24.412zm2.49-28.73c0-4.484 3.82-7.472 13.618-8.636l7.806-.83v1.328c0 8.802-5.482 14.946-13.12 14.946-5.646 0-8.304-2.49-8.304-6.808z"/><path d="m453.696 127.04h39.524l-29.062-47.162 28.064-37.2h-33.876l-22.918 30.89h-4.65v-71.078h-33.214v124.55h33.214v-31.884h4.816z"/><path d="m517.796 129.034c14.282 0 22.918-5.148 27.734-12.29 3.156 7.308 10.13 12.124 21.92 12.124 6.81 0 9.3-.664 13.95-1.828v-23.248c-5.646.166-7.804-.996-7.804-7.142v-18.1c0-19.928-9.134-37.864-40.688-37.864-26.736 0-42.18 8.138-42.18 30.058h31.386c.332-6.476 3.82-9.466 9.964-9.466 6.976 0 9.632 3.488 9.632 10.462v1.662l-12.786 1.494c-26.074 3.156-41.186 11.79-41.186 29.726 0 15.61 11.958 24.412 30.058 24.412zm2.492-28.73c0-4.484 3.82-7.472 13.618-8.636l7.804-.83v1.328c0 8.802-5.48 14.946-13.118 14.946-5.648 0-8.304-2.49-8.304-6.808z"/><path d="m586.216 127.04h33.2134v-84.3618h-33.2134zm16.608-94.824c11.126 0 18.93-6.144 18.93-16.108 0-10.13-7.804-16.108-18.93-16.108-11.128 0-18.932 5.978-18.932 16.108 0 9.964 7.804 16.108 18.932 16.108z"/></g></g></svg>