<?xml version="1.0" encoding="UTF-8"?>
<svg width="224px" height="224px" viewBox="0 0 224 224" version="1.1" xmlns="http://www.w3.org/2000/svg" xmlns:xlink="http://www.w3.org/1999/xlink">
    <title>hanakai_social_icon</title>
    <defs>
        <path d="M118.516278,187.235191 L118.516278,196.749433 C118.516278,200.375887 115.576168,203.316 111.949151,203.316 C108.320621,203.316 105.380322,200.375887 105.380322,196.749433 L105.380322,187.235191 C105.380322,183.606846 108.320621,180.666734 111.947449,180.666734 L111.949151,180.666734 C115.576168,180.666734 118.516278,183.606846 118.516278,187.235191 Z M85.4078077,175.387766 C88.7600999,176.777466 90.3513515,180.617574 88.9633551,183.967979 C87.8188867,186.732252 86.4671926,189.995683 85.3225351,192.758065 C83.9345387,196.110361 80.0931106,197.700479 76.7421419,196.312671 C73.3898498,194.924862 71.7985982,191.082863 73.1865946,187.732458 C74.3312521,184.968185 75.6827571,181.704754 76.8274146,178.942372 C78.215411,175.591967 82.0568391,173.999957 85.4078077,175.387766 Z M147.069185,178.942372 C148.213843,181.704754 149.565537,184.968185 150.710005,187.732458 C152.098002,191.082863 150.50675,194.924862 147.155971,196.312671 C143.803679,197.700479 139.962061,196.110361 138.574065,192.758065 C137.429597,189.995683 136.077902,186.732252 134.933245,183.967979 C133.545249,180.617574 135.1365,176.777466 138.48728,175.387766 C141.839761,173.999957 145.681189,175.591967 147.069185,178.942372 Z M62.9085008,160.354432 C65.4744319,162.920176 65.4744319,167.07793 62.9098244,169.641784 C60.7948362,171.757531 58.2973502,174.255208 56.182362,176.369064 C53.6177545,178.934809 49.4596265,178.934809 46.895019,176.369064 C44.329277,173.80332 44.329277,169.645566 46.8938845,167.081712 C49.0088727,164.965965 51.5063587,162.468287 53.6213469,160.354432 C56.1859544,157.788687 60.3438933,157.788687 62.9085008,160.354432 Z M170.275442,160.354432 C172.390241,162.468287 174.887916,164.965965 177.002715,167.081712 C179.567323,169.645566 179.567323,173.80332 177.002715,176.369064 C174.436974,178.934809 170.278846,178.934809 167.714238,176.369064 C165.599439,174.255208 163.101764,171.757531 160.986965,169.641784 C158.422357,167.07793 158.422357,162.920176 160.986965,160.354432 C163.552707,157.788687 167.710835,157.788687 170.275442,160.354432 Z M176.63818,111.316 C176.63818,146.975501 147.687081,175.926629 112.027239,175.926629 C76.3673961,175.926629 47.4162976,146.975501 47.4162976,111.316 C47.4162976,75.656499 76.3673961,46.70348 112.027239,46.70348 C147.687081,46.70348 176.63818,75.656499 176.63818,111.316 Z M47.8751816,137.854534 C49.2639343,141.20683 47.6726827,145.048829 44.3219031,146.436638 C41.5585783,147.58054 38.2953213,148.932425 35.5320153,150.076327 C32.1811979,151.466027 28.3396753,149.874017 26.9517167,146.523612 C25.5631152,143.171317 27.154329,139.329317 30.5051464,137.941509 C33.2684335,136.797606 36.5316526,135.445722 39.2949775,134.299929 C42.645757,132.91212 46.4873742,134.504129 47.8751816,137.854534 Z M184.601623,134.299929 C187.364947,135.445722 190.628185,136.797606 193.39151,137.941509 C196.74229,139.329317 198.333541,143.171317 196.945545,146.521722 C195.556981,149.874017 191.715553,151.466027 188.364585,150.076327 C185.60126,148.932425 182.338211,147.58054 179.574886,146.436638 C176.224106,145.048829 174.632855,141.20683 176.020662,137.856425 C177.409415,134.504129 181.250843,132.91212 184.601623,134.299929 Z M42.5964086,111.314109 C42.5964086,114.942454 39.656299,117.882567 36.0294138,117.882567 L26.5153893,117.882567 C22.8884852,117.882567 19.9483,114.942454 19.9483,111.316 C19.9483,107.687655 22.8884852,104.747543 26.5153893,104.747543 L36.0294138,104.747543 C39.656299,104.747543 42.5964086,107.687655 42.5964086,111.314109 Z M203.9483,111.314109 C203.9483,114.942454 201.00819,117.882567 197.381362,117.882567 L187.867319,117.882567 C184.240301,117.882567 181.300191,114.942454 181.300191,111.316 C181.300191,107.687655 184.240301,104.747543 187.867319,104.747543 L197.381362,104.747543 C201.00819,104.747543 203.9483,107.687655 203.9483,111.314109 Z M35.5320153,72.5537821 C38.2953213,73.6976844 41.5585783,75.049569 44.3219031,76.1953621 C47.6726827,77.5831709 49.2639343,81.4232794 47.8759379,84.775575 C46.4873742,88.1278706 42.645757,89.7179894 39.2949775,88.3301806 C36.5316526,87.1862783 33.2684335,85.8343937 30.5051464,84.6904913 C27.154329,83.3007918 25.5631152,79.4606833 26.9510549,76.1083877 C28.3396753,72.7560921 32.1811979,71.1659733 35.5320153,72.5537821 Z M196.944978,76.1083877 C198.333541,79.4606833 196.74229,83.3007918 193.39151,84.6904913 C190.628185,85.8343937 187.364947,87.1862783 184.601623,88.3301806 C181.250843,89.7179894 177.409415,88.1278706 176.021418,84.775575 C174.632855,81.4232794 176.224106,77.5831709 179.574886,76.1953621 C182.338211,75.049569 185.60126,73.6976844 188.364585,72.5537821 C191.715553,71.1659733 195.556981,72.7560921 196.944978,76.1083877 Z M177.001581,46.261045 C179.567323,48.8267896 179.567323,52.9845437 177.002715,55.5502883 C174.887916,57.6641442 172.390241,60.1618219 170.275442,62.2775685 C167.710835,64.8414223 163.552707,64.8414223 160.988099,62.2775685 C158.422357,59.7118239 158.422357,55.552179 160.986965,52.9883252 C163.101764,50.8725786 165.599439,48.3767916 167.714238,46.261045 C170.278846,43.6971912 174.436974,43.6971912 177.001581,46.261045 Z M56.182362,46.261045 C58.2973502,48.3767916 60.7948362,50.8725786 62.9098244,52.9883252 C65.4744319,55.552179 65.4744319,59.7118239 62.9098244,62.2756778 C60.3438933,64.8414223 56.1859544,64.8414223 53.6213469,62.2775685 C51.5063587,60.1618219 49.0088727,57.6641442 46.8938845,55.5502883 C44.329277,52.9845437 44.329277,48.8267896 46.8938845,46.2629358 C49.4596265,43.6971912 53.6177545,43.6971912 56.182362,46.261045 Z M85.3225351,29.8720442 C86.4671926,32.6363173 87.8188867,35.897857 88.9633551,38.6621301 C90.3513515,42.012535 88.7600999,45.8545343 85.4093203,47.242343 C82.0568391,48.6301518 78.215411,47.040033 76.8274146,43.6896282 C75.6827571,40.9253551 74.3312521,37.6619246 73.1865946,34.8995423 C71.7985982,31.5491374 73.3898498,27.7071381 76.7406293,26.3193294 C80.0931106,24.9296298 83.9345387,26.5216394 85.3225351,29.8720442 Z M147.154458,26.3174386 C150.50675,27.7071381 152.098002,31.5491374 150.710005,34.8995423 C149.565537,37.6619246 148.213843,40.9253551 147.069185,43.6896282 C145.681189,47.040033 141.839761,48.6301518 138.488981,47.242343 C135.1365,45.8545343 133.545249,42.012535 134.933245,38.6621301 C136.077902,35.897857 137.429597,32.6363173 138.574065,29.8720442 C139.962061,26.5216394 143.803679,24.9296298 147.154458,26.3174386 Z M118.516278,25.8825666 L118.516278,35.3968089 C118.516278,39.0232629 115.576168,41.9633756 111.949151,41.9633756 C108.320621,41.9633756 105.380322,39.0232629 105.380322,35.3968089 L105.380322,25.8825666 C105.380322,22.2561126 108.320621,19.316 111.947449,19.316 L111.949151,19.316 C115.576168,19.316 118.516278,22.2561126 118.516278,25.8825666 Z" id="path-1"></path>
        <path d="M98.567978,167.919191 L98.567978,177.433433 C98.567978,181.059887 95.6278684,184 92.0008508,184 C88.3723207,184 85.432022,181.059887 85.432022,177.433433 L85.432022,167.919191 C85.432022,164.290846 88.3723207,161.350734 91.9991492,161.350734 L92.0008508,161.350734 C95.6278684,161.350734 98.567978,164.290846 98.567978,167.919191 Z M65.4595077,156.071766 C68.8117999,157.461466 70.4030515,161.301574 69.0150551,164.651979 C67.8705867,167.416252 66.5188926,170.679683 65.3742351,173.442065 C63.9862387,176.794361 60.1448106,178.384479 56.7938419,176.996671 C53.4415498,175.608862 51.8502982,171.766863 53.2382946,168.416458 C54.3829521,165.652185 55.7344571,162.388754 56.8791146,159.626372 C58.267111,156.275967 62.1085391,154.683957 65.4595077,156.071766 Z M127.120885,159.626372 C128.265543,162.388754 129.617237,165.652185 130.761705,168.416458 C132.149702,171.766863 130.55845,175.608862 127.207671,176.996671 C123.855379,178.384479 120.013761,176.794361 118.625765,173.442065 C117.481297,170.679683 116.129602,167.416252 114.984945,164.651979 C113.596949,161.301574 115.1882,157.461466 118.53898,156.071766 C121.891461,154.683957 125.732889,156.275967 127.120885,159.626372 Z M42.9602008,141.038432 C45.5261319,143.604176 45.5261319,147.76193 42.9615244,150.325784 C40.8465362,152.441531 38.3490502,154.939208 36.234062,157.053064 C33.6694545,159.618809 29.5113265,159.618809 26.946719,157.053064 C24.380977,154.48732 24.380977,150.329566 26.9455845,147.765712 C29.0605727,145.649965 31.5580587,143.152287 33.6730469,141.038432 C36.2376544,138.472687 40.3955933,138.472687 42.9602008,141.038432 Z M150.327142,141.038432 C152.441941,143.152287 154.939616,145.649965 157.054415,147.765712 C159.619023,150.329566 159.619023,154.48732 157.054415,157.053064 C154.488674,159.618809 150.330546,159.618809 147.765938,157.053064 C145.651139,154.939208 143.153464,152.441531 141.038665,150.325784 C138.474057,147.76193 138.474057,143.604176 141.038665,141.038432 C143.604407,138.472687 147.762535,138.472687 150.327142,141.038432 Z M156.68988,92 C156.68988,127.659501 127.738781,156.610629 92.0789386,156.610629 C56.4190961,156.610629 27.4679976,127.659501 27.4679976,92 C27.4679976,56.340499 56.4190961,27.38748 92.0789386,27.38748 C127.738781,27.38748 156.68988,56.340499 156.68988,92 Z M27.9268816,118.538534 C29.3156343,121.89083 27.7243827,125.732829 24.3736031,127.120638 C21.6102783,128.26454 18.3470213,129.616425 15.5837153,130.760327 C12.2328979,132.150027 8.39137532,130.558017 7.0034167,127.207612 C5.61481523,123.855317 7.20602901,120.013317 10.5568464,118.625509 C13.3201335,117.481606 16.5833526,116.129722 19.3466775,114.983929 C22.697457,113.59612 26.5390742,115.188129 27.9268816,118.538534 Z M164.653323,114.983929 C167.416647,116.129722 170.679885,117.481606 173.44321,118.625509 C176.79399,120.013317 178.385241,123.855317 176.997245,127.205722 C175.608681,130.558017 171.767253,132.150027 168.416285,130.760327 C165.65296,129.616425 162.389911,128.26454 159.626586,127.120638 C156.275806,125.732829 154.684555,121.89083 156.072362,118.540425 C157.461115,115.188129 161.302543,113.59612 164.653323,114.983929 Z M22.6481086,91.9981093 C22.6481086,95.626454 19.707999,98.5665666 16.0811138,98.5665666 L6.56708931,98.5665666 C2.94018523,98.5665666 0,95.626454 0,92 C0,88.3716552 2.94018523,85.4315426 6.56708931,85.4315426 L16.0811138,85.4315426 C19.707999,85.4315426 22.6481086,88.3716552 22.6481086,91.9981093 Z M184,91.9981093 C184,95.626454 181.05989,98.5665666 177.433062,98.5665666 L167.919019,98.5665666 C164.292001,98.5665666 161.351891,95.626454 161.351891,92 C161.351891,88.3716552 164.292001,85.4315426 167.919019,85.4315426 L177.433062,85.4315426 C181.05989,85.4315426 184,88.3716552 184,91.9981093 Z M15.5837153,53.2377821 C18.3470213,54.3816844 21.6102783,55.733569 24.3736031,56.8793621 C27.7243827,58.2671709 29.3156343,62.1072794 27.9276379,65.459575 C26.5390742,68.8118706 22.697457,70.4019894 19.3466775,69.0141806 C16.5833526,67.8702783 13.3201335,66.5183937 10.5568464,65.3744913 C7.20602901,63.9847918 5.61481523,60.1446833 7.00275494,56.7923877 C8.39137532,53.4400921 12.2328979,51.8499733 15.5837153,53.2377821 Z M176.996678,56.7923877 C178.385241,60.1446833 176.79399,63.9847918 173.44321,65.3744913 C170.679885,66.5183937 167.416647,67.8702783 164.653323,69.0141806 C161.302543,70.4019894 157.461115,68.8118706 156.073118,65.459575 C154.684555,62.1072794 156.275806,58.2671709 159.626586,56.8793621 C162.389911,55.733569 165.65296,54.3816844 168.416285,53.2377821 C171.767253,51.8499733 175.608681,53.4400921 176.996678,56.7923877 Z M157.053281,26.945045 C159.619023,29.5107896 159.619023,33.6685437 157.054415,36.2342883 C154.939616,38.3481442 152.441941,40.8458219 150.327142,42.9615685 C147.762535,45.5254223 143.604407,45.5254223 141.039799,42.9615685 C138.474057,40.3958239 138.474057,36.236179 141.038665,33.6723252 C143.153464,31.5565786 145.651139,29.0607916 147.765938,26.945045 C150.330546,24.3811912 154.488674,24.3811912 157.053281,26.945045 Z M36.234062,26.945045 C38.3490502,29.0607916 40.8465362,31.5565786 42.9615244,33.6723252 C45.5261319,36.236179 45.5261319,40.3958239 42.9615244,42.9596778 C40.3955933,45.5254223 36.2376544,45.5254223 33.6730469,42.9615685 C31.5580587,40.8458219 29.0605727,38.3481442 26.9455845,36.2342883 C24.380977,33.6685437 24.380977,29.5107896 26.9455845,26.9469358 C29.5113265,24.3811912 33.6694545,24.3811912 36.234062,26.945045 Z M65.3742351,10.5560442 C66.5188926,13.3203173 67.8705867,16.581857 69.0150551,19.3461301 C70.4030515,22.696535 68.8117999,26.5385343 65.4610203,27.926343 C62.1085391,29.3141518 58.267111,27.724033 56.8791146,24.3736282 C55.7344571,21.6093551 54.3829521,18.3459246 53.2382946,15.5835423 C51.8502982,12.2331374 53.4415498,8.39113815 56.7923293,7.00332936 C60.1448106,5.61362982 63.9862387,7.20563936 65.3742351,10.5560442 Z M127.206158,7.00143861 C130.55845,8.39113815 132.149702,12.2331374 130.761705,15.5835423 C129.617237,18.3459246 128.265543,21.6093551 127.120885,24.3736282 C125.732889,27.724033 121.891461,29.3141518 118.540681,27.926343 C115.1882,26.5385343 113.596949,22.696535 114.984945,19.3461301 C116.129602,16.581857 117.481297,13.3203173 118.625765,10.5560442 C120.013761,7.20563936 123.855379,5.61362982 127.206158,7.00143861 Z M98.567978,6.56656665 L98.567978,16.0808089 C98.567978,19.7072629 95.6278684,22.6473756 92.0008508,22.6473756 C88.3723207,22.6473756 85.432022,19.7072629 85.432022,16.0808089 L85.432022,6.56656665 C85.432022,2.94011262 88.3723207,0 91.9991492,0 L92.0008508,0 C95.6278684,0 98.567978,2.94011262 98.567978,6.56656665 Z" id="path-2"></path>
    </defs>
    <g id="hanakai_social_icon" stroke="none" fill="none" xlink:href="#path-1" fill-rule="evenodd">
        <g id="hanakai_icon" transform="translate(19.9483, 19.316)" xlink:href="#path-2">
            <path d="M92.0789386,27.38748 C127.738781,27.38748 156.68988,56.340499 156.68988,92 C156.68988,127.659501 127.738781,156.610629 92.0789386,156.610629 C56.4190961,156.610629 27.4679976,127.659501 27.4679976,92 C27.4679976,56.340499 56.4190961,27.38748 92.0789386,27.38748 Z" id="Fill-16" fill="#FFD33B"></path>
            <path d="M51.5776526,85.0590653 C54.5253252,85.0590653 56.9184421,87.4508611 56.9184421,90.3985367 C56.9184421,93.3462123 54.5253252,95.7398989 51.5776526,95.7398989 C48.62998,95.7398989 46.2368632,93.3462123 46.2368632,90.3985367 C46.2368632,87.4508611 48.62998,85.0590653 51.5776526,85.0590653 Z" id="Fill-17" fill="#FFEA89"></path>
            <path d="M132.580225,85.0590653 C135.527897,85.0590653 137.921014,87.4508611 137.921014,90.3985367 C137.921014,93.3462123 135.527897,95.7398989 132.580225,95.7398989 C129.632552,95.7398989 127.239435,93.3462123 127.239435,90.3985367 C127.239435,87.4508611 129.632552,85.0590653 132.580225,85.0590653 Z" id="Fill-18" fill="#FFEA89"></path>
            <path d="M70.5053408,72.0526121 C74.2537442,72.0526121 77.2968995,75.0967159 77.2968995,78.8441777 C77.2968995,82.5935304 74.2537442,85.6357434 70.5053408,85.6357434 C66.7569374,85.6357434 63.7137822,82.5935304 63.7137822,78.8441777 C63.7137822,75.0967159 66.7569374,72.0526121 70.5053408,72.0526121 Z" id="Fill-19" fill="#000000"></path>
            <path d="M113.652536,72.0526121 C117.40094,72.0526121 120.444095,75.0967159 120.444095,78.8441777 C120.444095,82.5935304 117.40094,85.6357434 113.652536,85.6357434 C109.904133,85.6357434 106.860978,82.5935304 106.860978,78.8441777 C106.860978,75.0967159 109.904133,72.0526121 113.652536,72.0526121 Z" id="Fill-20" fill="#000000"></path>
            <path d="M107.060451,98.3340047 C107.914879,96.6625837 109.965771,95.9989313 111.63738,96.8535493 C113.308988,97.7081672 113.972451,99.7596284 113.117834,101.431049 C109.264683,108.96946 101.420735,114.133092 92.3807017,114.133092 C82.7465959,114.133092 74.47118,108.267993 70.9362418,99.9146697 C70.2043341,98.1865264 71.0139514,96.1880061 72.7428493,95.4562867 C74.4717472,94.7245674 76.4695092,95.5338074 77.2012278,97.2638415 C79.7038188,103.176209 85.5607818,107.330182 92.3807017,107.330182 C98.7806869,107.330182 104.332294,103.671585 107.060451,98.3340047 Z" id="Fill-21" fill="#000000"></path>
            <path d="M92.0008508,0 C95.6278684,0 98.567978,2.94011262 98.567978,6.56656665 L98.567978,16.0808089 C98.567978,19.7072629 95.6278684,22.6473756 92.0008508,22.6473756 L91.9991492,22.6473756 C88.3723207,22.6473756 85.432022,19.7072629 85.432022,16.0808089 L85.432022,6.56656665 C85.432022,2.94011262 88.3723207,0 91.9991492,0 L92.0008508,0 Z" id="Fill-38" fill="#FFD33B"></path>
            <path d="M56.7938419,7.00143861 C60.1448106,5.61362982 63.9862387,7.20563936 65.3742351,10.5560442 C66.5188926,13.3203173 67.8705867,16.581857 69.0150551,19.3461301 C70.4030515,22.696535 68.8117999,26.5385343 65.4610203,27.926343 L65.4595077,27.926343 C62.1085391,29.3141518 58.267111,27.724033 56.8791146,24.3736282 C55.7344571,21.6093551 54.3829521,18.3459246 53.2382946,15.5835423 C51.8502982,12.2331374 53.4415498,8.39113815 56.7923293,7.00332936 C56.7928966,7.00332936 56.7934638,7.00143861 56.7938419,7.00143861 Z" id="Fill-39" fill="#FFD33B"></path>
            <path d="M26.946719,26.945045 C29.5113265,24.3811912 33.6694545,24.3811912 36.234062,26.945045 C38.3490502,29.0607916 40.8465362,31.5565786 42.9615244,33.6723252 C45.5261319,36.236179 45.5261319,40.3958239 42.9615244,42.9596778 C42.9611462,42.9596778 42.9607681,42.9596778 42.9602008,42.9615685 C40.3955933,45.5254223 36.2376544,45.5254223 33.6730469,42.9615685 C31.5580587,40.8458219 29.0605727,38.3481442 26.9455845,36.2342883 C24.380977,33.6685437 24.380977,29.5107896 26.9455845,26.9469358 C26.9459627,26.945045 26.9463408,26.945045 26.946719,26.945045 Z" id="Fill-40" fill="#FFD33B"></path>
            <path d="M7.0034167,56.7923877 C8.39137532,53.4400921 12.2328979,51.8499733 15.5837153,53.2377821 C18.3470213,54.3816844 21.6102783,55.733569 24.3736031,56.8793621 C27.7243827,58.2671709 29.3156343,62.1072794 27.9276379,65.459575 L27.9268816,65.459575 C26.5390742,68.8118706 22.697457,70.4019894 19.3466775,69.0141806 C16.5833526,67.8702783 13.3201335,66.5183937 10.5568464,65.3744913 C7.20602901,63.9847918 5.61481523,60.1446833 7.00275494,56.7923877 L7.0034167,56.7923877 Z" id="Fill-41" fill="#FFD33B"></path>
            <path d="M0,91.9981093 C0,88.3716552 2.94018523,85.4315426 6.56708931,85.4315426 L16.0811138,85.4315426 C19.707999,85.4315426 22.6481086,88.3716552 22.6481086,91.9981093 L22.6481086,92 C22.6481086,95.626454 19.707999,98.5665666 16.0811138,98.5665666 L6.56708931,98.5665666 C2.94018523,98.5665666 0,95.626454 0,92 L0,91.9981093 Z" id="Fill-42" fill="#FFD33B"></path>
            <path d="M7.00275494,127.205722 C5.61481523,123.855317 7.20602901,120.013317 10.5568464,118.625509 C13.3201335,117.481606 16.5833526,116.129722 19.3466775,114.983929 C22.697457,113.59612 26.5390742,115.188129 27.9268816,118.538534 C27.9272597,118.538534 27.9274488,118.540425 27.9276379,118.540425 C29.3156343,121.89083 27.7243827,125.732829 24.3736031,127.120638 C21.6102783,128.26454 18.3470213,129.616425 15.5837153,130.760327 C12.2328979,132.150027 8.39137532,130.558017 7.0034167,127.207612 C7.00318981,127.205722 7.00298183,127.205722 7.00275494,127.205722 Z" id="Fill-43" fill="#FFD33B"></path>
            <path d="M26.9455845,157.053064 C24.380977,154.48732 24.380977,150.329566 26.9455845,147.765712 C29.0605727,145.649965 31.5580587,143.152287 33.6730469,141.038432 C36.2376544,138.472687 40.3955933,138.472687 42.9602008,141.038432 L42.9615244,141.038432 C45.5261319,143.604176 45.5261319,147.76193 42.9615244,150.325784 C40.8465362,152.441531 38.3490502,154.939208 36.234062,157.053064 C33.6694545,159.618809 29.5113265,159.618809 26.946719,157.053064 L26.9455845,157.053064 Z" id="Fill-44" fill="#FFD33B"></path>
            <path d="M56.7923293,176.996671 C53.4415498,175.608862 51.8502982,171.766863 53.2382946,168.416458 C54.3829521,165.652185 55.7344571,162.388754 56.8791146,159.626372 C58.267111,156.275967 62.1085391,154.683957 65.4595077,156.071766 L65.4610203,156.071766 C68.8117999,157.461466 70.4030515,161.301574 69.0150551,164.651979 C67.8705867,167.416252 66.5188926,170.679683 65.3742351,173.442065 C63.9862387,176.794361 60.1448106,178.384479 56.7938419,176.996671 L56.7923293,176.996671 Z" id="Fill-45" fill="#FFD33B"></path>
            <path d="M91.9991492,184 C88.3723207,184 85.432022,181.059887 85.432022,177.433433 L85.432022,167.919191 C85.432022,164.290846 88.3723207,161.350734 91.9991492,161.350734 L92.0008508,161.350734 C95.6278684,161.350734 98.567978,164.290846 98.567978,167.919191 L98.567978,177.433433 C98.567978,181.059887 95.6278684,184 92.0008508,184 L91.9991492,184 Z" id="Fill-46" fill="#FFD33B"></path>
            <path d="M127.206158,176.996671 C123.855379,178.384479 120.013761,176.794361 118.625765,173.442065 C117.481297,170.679683 116.129602,167.416252 114.984945,164.651979 C113.596949,161.301574 115.1882,157.461466 118.53898,156.071766 L118.540681,156.071766 C121.891461,154.683957 125.732889,156.275967 127.120885,159.626372 C128.265543,162.388754 129.617237,165.652185 130.761705,168.416458 C132.149702,171.766863 130.55845,175.608862 127.207671,176.996671 L127.206158,176.996671 Z" id="Fill-47" fill="#FFD33B"></path>
            <path d="M157.053281,157.053064 C154.488674,159.618809 150.330546,159.618809 147.765938,157.053064 C145.651139,154.939208 143.153464,152.441531 141.038665,150.325784 C138.474057,147.76193 138.474057,143.604176 141.038665,141.038432 L141.039799,141.038432 C143.604407,138.472687 147.762535,138.472687 150.327142,141.038432 C152.441941,143.152287 154.939616,145.649965 157.054415,147.765712 C159.619023,150.329566 159.619023,154.48732 157.054415,157.053064 L157.053281,157.053064 Z" id="Fill-48" fill="#FFD33B"></path>
            <path d="M176.996678,127.207612 C175.608681,130.558017 171.767253,132.150027 168.416285,130.760327 C165.65296,129.616425 162.389911,128.26454 159.626586,127.120638 C156.275806,125.732829 154.684555,121.89083 156.072362,118.540425 C156.07274,118.540425 156.072929,118.538534 156.073118,118.538534 C157.461115,115.188129 161.302543,113.59612 164.653323,114.983929 C167.416647,116.129722 170.679885,117.481606 173.44321,118.625509 C176.79399,120.013317 178.385241,123.855317 176.997245,127.205722 C176.997056,127.205722 176.996867,127.205722 176.996678,127.207612 Z" id="Fill-49" fill="#FFD33B"></path>
            <path d="M184,92 C184,95.626454 181.05989,98.5665666 177.433062,98.5665666 L167.919019,98.5665666 C164.292001,98.5665666 161.351891,95.626454 161.351891,92 L161.351891,91.9981093 C161.351891,88.3716552 164.292001,85.4315426 167.919019,85.4315426 L177.433062,85.4315426 C181.05989,85.4315426 184,88.3716552 184,91.9981093 L184,92 Z" id="Fill-50" fill="#FFD33B"></path>
            <path d="M176.997245,56.7923877 C178.385241,60.1446833 176.79399,63.9847918 173.44321,65.3744913 C170.679885,66.5183937 167.416647,67.8702783 164.653323,69.0141806 C161.302543,70.4019894 157.461115,68.8118706 156.073118,65.459575 L156.072362,65.459575 C154.684555,62.1072794 156.275806,58.2671709 159.626586,56.8793621 C162.389911,55.733569 165.65296,54.3816844 168.416285,53.2377821 C171.767253,51.8499733 175.608681,53.4400921 176.996678,56.7923877 L176.997245,56.7923877 Z" id="Fill-51" fill="#FFD33B"></path>
            <path d="M157.054415,26.9469358 C159.619023,29.5107896 159.619023,33.6685437 157.054415,36.2342883 C154.939616,38.3481442 152.441941,40.8458219 150.327142,42.9615685 C147.762535,45.5254223 143.604407,45.5254223 141.039799,42.9615685 C141.039421,42.9596778 141.039043,42.9596778 141.038665,42.9596778 C138.474057,40.3958239 138.474057,36.236179 141.038665,33.6723252 C143.153464,31.5565786 145.651139,29.0607916 147.765938,26.945045 C150.330546,24.3811912 154.488674,24.3811912 157.053281,26.945045 C157.053659,26.945045 157.054037,26.945045 157.054415,26.9469358 Z" id="Fill-52" fill="#FFD33B"></path>
            <path d="M127.207671,7.00332936 C130.55845,8.39113815 132.149702,12.2331374 130.761705,15.5835423 C129.617237,18.3459246 128.265543,21.6093551 127.120885,24.3736282 C125.732889,27.724033 121.891461,29.3141518 118.540681,27.926343 L118.53898,27.926343 C115.1882,26.5385343 113.596949,22.696535 114.984945,19.3461301 C116.129602,16.581857 117.481297,13.3203173 118.625765,10.5560442 C120.013761,7.20563936 123.855379,5.61362982 127.206158,7.00143861 C127.206725,7.00143861 127.207103,7.00332936 127.207671,7.00332936 Z" id="Fill-53" fill="#FFD33B"></path>
        </g>
    </g>
</svg>