<?xml version="1.0" encoding="UTF-8"?>
<svg width="97px" height="109px" viewBox="0 0 97 109" version="1.1" xmlns="http://www.w3.org/2000/svg" xmlns:xlink="http://www.w3.org/1999/xlink">
    <title>rom_icon_sml</title>
    <defs>
        <path d="M63.3652013,24.7425157 C63.3652013,25.6468801 63.3350093,26.5399805 63.2761351,27.4193784 C64.0082893,26.9287596 64.7666873,26.4560237 65.5499355,26.0038415 C77.376113,19.1759374 90.4199541,19.5950246 94.6601778,26.9392106 C98.9002855,34.2833967 92.7413648,45.7893075 80.9150712,52.6170955 C80.131823,53.0693937 79.3433492,53.4897582 78.5523207,53.8784212 C79.3433492,54.2672003 80.131823,54.6875649 80.9150712,55.139747 C92.7413648,61.9676511 98.9002855,73.4735619 94.6601778,80.817748 C90.4199541,88.1618179 77.376113,88.5810212 65.5499355,81.7531171 C64.7666873,81.3009349 64.0082893,80.828199 63.2761351,80.3375802 C63.3350093,81.2169781 63.3652013,82.1100785 63.3652013,83.0144428 C63.3652013,96.6702162 56.4802809,107.756959 47.9999494,107.756959 C39.5197341,107.756959 32.6348137,96.6702162 32.6348137,83.0144428 C32.6348137,82.1100785 32.6650056,81.2169781 32.7237638,80.3375802 C31.9917257,80.828199 31.2333277,81.3009349 30.4500795,81.7531171 C18.623902,88.5810212 5.57994479,88.1618179 1.33983712,80.817748 C-2.90030538,73.4735619 3.25865015,61.9676511 15.0848276,55.139747 C15.8680759,54.6875649 16.6566658,54.2672003 17.4476942,53.8784212 C16.6566658,53.4897582 15.8680759,53.0693937 15.0848276,52.6170955 C3.25865015,45.7893075 -2.90030538,34.2833967 1.33983712,26.9392106 C5.57994479,19.5950246 18.623902,19.1759374 30.4500795,26.0038415 C31.2333277,26.4560237 31.9917257,26.9287596 32.7237638,27.4193784 C32.6650056,26.5399805 32.6348137,25.6468801 32.6348137,24.7425157 C32.6348137,11.0867075 39.5197341,0 47.9999494,0 C56.4802809,0 63.3652013,11.0867075 63.3652013,24.7425157 Z" id="path-1"></path>
    </defs>
    <g id="rom_icon_sml" stroke="none" fill="none" transform="translate(0.7964, 0.9286)" xlink:href="#path-1" fill-rule="evenodd">
        <path d="M17.4476942,53.8784212 C16.6566658,53.4897582 15.8680759,53.0693937 15.0848276,52.6170955 C3.25865015,45.7893075 -2.90030538,34.2833967 1.33983712,26.9392106 C5.57994479,19.5950246 18.623902,19.1759374 30.4500795,26.0038415 C31.2333277,26.4560237 31.9917257,26.9287596 32.7237638,27.4193784 C32.6650056,26.5399805 32.6348137,25.6468801 32.6348137,24.7425157 C32.6348137,11.0867075 39.5197341,0 47.9999494,0 C56.4802809,0 63.3652013,11.0867075 63.3652013,24.7425157 C63.3652013,25.6468801 63.3350093,26.5399805 63.2761351,27.4193784 C64.0082893,26.9287596 64.7666873,26.4560237 65.5499355,26.0038415 C77.376113,19.1759374 90.4199541,19.5950246 94.6601778,26.9392106 C98.9002855,34.2833967 92.7413648,45.7893075 80.9150712,52.6170955 C80.131823,53.0693937 79.3433492,53.4897582 78.5523207,53.8784212 C79.3433492,54.2672003 80.131823,54.6875649 80.9150712,55.139747 C92.7413648,61.9676511 98.9002855,73.4735619 94.6601778,80.817748 C90.4199541,88.1618179 77.376113,88.5810212 65.5499355,81.7531171 C64.7666873,81.3009349 64.0082893,80.828199 63.2761351,80.3375802 C63.3350093,81.2169781 63.3652013,82.1100785 63.3652013,83.0144428 C63.3652013,96.6702162 56.4802809,107.756959 47.9999494,107.756959 C39.5197341,107.756959 32.6348137,96.6702162 32.6348137,83.0144428 C32.6348137,82.1100785 32.6650056,81.2169781 32.7237638,80.3375802 C31.9917257,80.828199 31.2333277,81.3009349 30.4500795,81.7531171 C18.623902,88.5810212 5.57994479,88.1618179 1.33983712,80.817748 C-2.90030538,73.4735619 3.25865015,61.9676511 15.0848276,55.139747 C15.8680759,54.6875649 16.6566658,54.2672003 17.4476942,53.8784212 Z" id="Fill-1" fill="#0063FF"></path>
        <path d="M47.9999494,30.1908811 C61.0735179,30.1908811 71.6876057,40.8049688 71.6876057,53.8784212 C71.6876057,66.9519898 61.0735179,77.5660775 47.9999494,77.5660775 C34.926497,77.5660775 24.3124093,66.9519898 24.3124093,53.8784212 C24.3124093,40.8049688 34.926497,30.1908811 47.9999494,30.1908811 Z" id="Fill-3" fill="#99CCFF"></path>
    </g>
</svg>