<svg height="217" viewBox="0 0 193 217" width="193" xmlns="http://www.w3.org/2000/svg" xmlns:xlink="http://www.w3.org/1999/xlink"><defs><path id="a" d="m126.730403 49.4850315c0 1.8087286-.060384 3.5949294-.178133 5.3537252 1.464309-.9812376 2.981105-1.9267093 4.547601-2.8310737 23.652355-13.6558082 49.740037-12.8176338 58.220485 1.8707382 8.480215 14.6883721-3.837626 37.7001938-27.490214 51.3557698-1.566496.904596-3.143444 1.745325-4.725501 2.522651 1.582057.777559 3.159005 1.618288 4.725501 2.522652 23.652588 13.655808 35.970429 36.66763 27.490214 51.356002-8.480448 14.68814-34.56813 15.526546-58.220485 1.870738-1.566496-.904364-3.083292-1.849836-4.547601-2.831074.117749 1.758796.178133 3.544997.178133 5.353726 0 27.311546-13.769841 49.485031-30.7305042 49.485031-16.9604306 0-30.7302714-22.173485-30.7302714-49.485031 0-1.808729.0603839-3.59493.1779001-5.353726-1.4640761.981238-2.9808721 1.92671-4.5473685 2.831074-23.652355 13.655808-49.7402694 12.817402-58.22048475-1.870738-8.480285-14.688372 3.83762606-37.700194 27.48998105-51.356002 1.5664964-.904364 3.1436762-1.745093 4.7257332-2.522652-1.582057-.777326-3.1592368-1.618055-4.7257332-2.522651-23.65235499-13.655576-35.97026605-36.6673977-27.48998105-51.3557698 8.48021535-14.688372 34.56812975-15.5265464 58.22048475-1.8707382 1.5664964.9043644 3.0832924 1.8498361 4.5473685 2.8310737-.1175162-1.7587958-.1779001-3.5449966-.1779001-5.3537252 0-27.3116164 13.7698408-49.4850315 30.7302714-49.4850315 16.9606632 0 30.7305042 22.1734151 30.7305042 49.4850315z"/></defs><g fill="none" fill-rule="evenodd" transform="translate(.7964 .9286)" xlink:href="#a"><path d="m34.8953885 107.756842c-1.582057-.777326-3.1592368-1.618055-4.7257332-2.522651-23.65235499-13.655576-35.97026605-36.6673977-27.48998105-51.3557698 8.48021535-14.688372 34.56812975-15.5265464 58.22048475-1.8707382 1.5664964.9043644 3.0832924 1.8498361 4.5473685 2.8310737-.1175162-1.7587958-.1779001-3.5449966-.1779001-5.3537252 0-27.3116164 13.7698408-49.4850315 30.7302714-49.4850315 16.9606632 0 30.7305042 22.1734151 30.7305042 49.4850315 0 1.8087286-.060384 3.5949294-.178133 5.3537252 1.464309-.9812376 2.981105-1.9267093 4.547601-2.8310737 23.652355-13.6558082 49.740037-12.8176338 58.220485 1.8707382 8.480215 14.6883721-3.837626 37.7001938-27.490214 51.3557698-1.566496.904596-3.143444 1.745325-4.725501 2.522651 1.582057.777559 3.159005 1.618288 4.725501 2.522652 23.652588 13.655808 35.970429 36.66763 27.490214 51.356002-8.480448 14.68814-34.56813 15.526546-58.220485 1.870738-1.566496-.904364-3.083292-1.849836-4.547601-2.831074.117749 1.758796.178133 3.544997.178133 5.353726 0 27.311546-13.769841 49.485031-30.7305042 49.485031-16.9604306 0-30.7302714-22.173485-30.7302714-49.485031 0-1.808729.0603839-3.59493.1779001-5.353726-1.4640761.981238-2.9808721 1.92671-4.5473685 2.831074-23.652355 13.655808-49.7402694 12.817402-58.22048475-1.870738-8.480285-14.688372 3.83762606-37.700194 27.48998105-51.356002 1.5664964-.904364 3.1436762-1.745093 4.7257332-2.522652z" fill="#0063ff"/><path d="m95.9998988 60.3817621c26.1471372 0 47.3753122 21.2281756 47.3753122 47.3750799 0 26.147138-21.228175 47.375313-47.3753122 47.375313-26.1469048 0-47.3750803-21.228175-47.3750803-47.375313 0-26.1469043 21.2281755-47.3750799 47.3750803-47.3750799z" fill="#9cf"/><g fill="#000"><path d="m79.4586715 88.6051747c3.9609484 0 7.1770853 5.6233624 7.1770853 12.5498543 0 6.926493-3.2161369 12.550087-7.1770853 12.550087-3.9611807 0-7.1770854-5.623594-7.1770854-12.550087 0-6.9264919 3.2159047-12.5498543 7.1770854-12.5498543z"/><path d="m112.541358 88.6051747c3.961181 0 7.177086 5.6233624 7.177086 12.5498543 0 6.926493-3.215905 12.550087-7.177086 12.550087-3.96118 0-7.177085-5.623594-7.177085-12.550087 0-6.9264919 3.215905-12.5498543 7.177085-12.5498543z"/></g></g></svg>