<?xml version="1.0" encoding="UTF-8"?>
<svg width="224px" height="224px" viewBox="0 0 224 224" version="1.1" xmlns="http://www.w3.org/2000/svg" xmlns:xlink="http://www.w3.org/1999/xlink">
    <title>rom_social_icon_BG</title>
    <defs>
        <path d="M0,0 L224,0 L224,224 L0,224 L0,0 Z" id="path-1"></path>
        <path d="M109.134821,42.6144 C109.134821,44.172 109.082821,45.7102 108.981421,47.2248 C110.242421,46.3798 111.548621,45.5656 112.897621,44.7868 C133.266021,33.027 155.731621,33.7488 163.034621,46.3978 C170.337421,59.0468 159.729821,78.8636 139.361221,90.6232 C138.012221,91.4022 136.654221,92.1262 135.291821,92.7956 C136.654221,93.4652 138.012221,94.1892 139.361221,94.968 C159.729821,106.7278 170.337421,126.5446 163.034621,139.1936 C155.731621,151.8424 133.266021,152.5644 112.897621,140.8046 C111.548621,140.0258 110.242421,139.2116 108.981421,138.3666 C109.082821,139.8812 109.134821,141.4194 109.134821,142.977 C109.134821,166.49654 97.2768212,185.5914 82.6710212,185.5914 C68.0654212,185.5914 56.2074212,166.49654 56.2074212,142.977 C56.2074212,141.4194 56.2594212,139.8812 56.3606212,138.3666 C55.0998212,139.2116 53.7936212,140.0258 52.4446212,140.8046 C32.0762212,152.5644 9.61042125,151.8424 2.30762125,139.1936 C-4.99523875,126.5446 5.61242125,106.7278 25.9808212,94.968 C27.3298212,94.1892 28.6880212,93.4652 30.0504212,92.7956 C28.6880212,92.1262 27.3298212,91.4022 25.9808212,90.6232 C5.61242125,78.8636 -4.99523875,59.0468 2.30762125,46.3978 C9.61042125,33.7488 32.0762212,33.027 52.4446212,44.7868 C53.7936212,45.5656 55.0998212,46.3798 56.3606212,47.2248 C56.2594212,45.7102 56.2074212,44.172 56.2074212,42.6144 C56.2074212,19.0948 68.0654212,0 82.6710212,0 C97.2768212,0 109.134821,19.0948 109.134821,42.6144 Z" id="path-2"></path>
    </defs>
    <g id="rom_social_icon_BG" stroke="none" fill="none" xlink:href="#path-1" fill-rule="evenodd">
        <use fill="#CCE7FF" xlink:href="#path-1"></use>
        <g id="rom_icon" transform="translate(29.7964, 18.9286)" xlink:href="#path-2">
            <path d="M30.0504212,92.7956 C28.6880212,92.1262 27.3298212,91.4022 25.9808212,90.6232 C5.61242125,78.8636 -4.99523875,59.0468 2.30762125,46.3978 C9.61042125,33.7488 32.0762212,33.027 52.4446212,44.7868 C53.7936212,45.5656 55.0998212,46.3798 56.3606212,47.2248 C56.2594212,45.7102 56.2074212,44.172 56.2074212,42.6144 C56.2074212,19.0948 68.0654212,0 82.6710212,0 C97.2768212,0 109.134821,19.0948 109.134821,42.6144 C109.134821,44.172 109.082821,45.7102 108.981421,47.2248 C110.242421,46.3798 111.548621,45.5656 112.897621,44.7868 C133.266021,33.027 155.731621,33.7488 163.034621,46.3978 C170.337421,59.0468 159.729821,78.8636 139.361221,90.6232 C138.012221,91.4022 136.654221,92.1262 135.291821,92.7956 C136.654221,93.4652 138.012221,94.1892 139.361221,94.968 C159.729821,106.7278 170.337421,126.5446 163.034621,139.1936 C155.731621,151.8424 133.266021,152.5644 112.897621,140.8046 C111.548621,140.0258 110.242421,139.2116 108.981421,138.3666 C109.082821,139.8812 109.134821,141.4194 109.134821,142.977 C109.134821,166.49654 97.2768212,185.5914 82.6710212,185.5914 C68.0654212,185.5914 56.2074212,166.49654 56.2074212,142.977 C56.2074212,141.4194 56.2594212,139.8812 56.3606212,138.3666 C55.0998212,139.2116 53.7936212,140.0258 52.4446212,140.8046 C32.0762212,152.5644 9.61042125,151.8424 2.30762125,139.1936 C-4.99523875,126.5446 5.61242125,106.7278 25.9808212,94.968 C27.3298212,94.1892 28.6880212,93.4652 30.0504212,92.7956 Z" id="Fill-1" fill="#0063FF"></path>
            <path d="M82.6710212,51.9982 C105.187821,51.9982 123.468621,70.279 123.468621,92.7956 C123.468621,115.3124 105.187821,133.5932 82.6710212,133.5932 C60.1544212,133.5932 41.8736212,115.3124 41.8736212,92.7956 C41.8736212,70.279 60.1544212,51.9982 82.6710212,51.9982 Z" id="Fill-3" fill="#99CCFF"></path>
            <path d="M68.4264212,76.303 C71.8374212,76.303 74.6070212,81.1456 74.6070212,87.1104 C74.6070212,93.0752 71.8374212,97.918 68.4264212,97.918 C65.0152212,97.918 62.2458212,93.0752 62.2458212,87.1104 C62.2458212,81.1456 65.0152212,76.303 68.4264212,76.303 Z" id="Fill-4" fill="#000000"></path>
            <path d="M96.9158212,76.303 C100.327021,76.303 103.096421,81.1456 103.096421,87.1104 C103.096421,93.0752 100.327021,97.918 96.9158212,97.918 C93.5046212,97.918 90.7352212,93.0752 90.7352212,87.1104 C90.7352212,81.1456 93.5046212,76.303 96.9158212,76.303 Z" id="Fill-5" fill="#000000"></path>
        </g>
    </g>
</svg>