<?xml version="1.0" encoding="UTF-8"?>
<svg width="193px" height="217px" viewBox="0 0 193 217" version="1.1" xmlns="http://www.w3.org/2000/svg" xmlns:xlink="http://www.w3.org/1999/xlink">
    <title>rom_icon</title>
    <defs>
        <path d="M126.730403,49.4850315 C126.730403,51.2937601 126.670019,53.0799609 126.55227,54.8387567 C128.016579,53.8575191 129.533375,52.9120474 131.099871,52.007683 C154.752226,38.3518748 180.839908,39.1900492 189.320356,53.8784212 C197.800571,68.5667933 185.48273,91.578615 161.830142,105.234191 C160.263646,106.138787 158.686698,106.979516 157.104641,107.756842 C158.686698,108.534401 160.263646,109.37513 161.830142,110.279494 C185.48273,123.935302 197.800571,146.947124 189.320356,161.635496 C180.839908,176.323636 154.752226,177.162042 131.099871,163.506234 C129.533375,162.60187 128.016579,161.656398 126.55227,160.67516 C126.670019,162.433956 126.730403,164.220157 126.730403,166.028886 C126.730403,193.340432 112.960562,215.513917 95.9998988,215.513917 C79.0394682,215.513917 65.2696274,193.340432 65.2696274,166.028886 C65.2696274,164.220157 65.3300113,162.433956 65.4475275,160.67516 C63.9834514,161.656398 62.4666554,162.60187 60.900159,163.506234 C37.247804,177.162042 11.1598896,176.323636 2.67967425,161.635496 C-5.80061075,146.947124 6.51730031,123.935302 30.1696553,110.279494 C31.7361517,109.37513 33.3133315,108.534401 34.8953885,107.756842 C33.3133315,106.979516 31.7361517,106.138787 30.1696553,105.234191 C6.51730031,91.578615 -5.80061075,68.5667933 2.67967425,53.8784212 C11.1598896,39.1900492 37.247804,38.3518748 60.900159,52.007683 C62.4666554,52.9120474 63.9834514,53.8575191 65.4475275,54.8387567 C65.3300113,53.0799609 65.2696274,51.2937601 65.2696274,49.4850315 C65.2696274,22.1734151 79.0394682,0 95.9998988,0 C112.960562,0 126.730403,22.1734151 126.730403,49.4850315 Z" id="path-1"></path>
    </defs>
    <g id="rom_icon" stroke="none" fill="none" transform="translate(0.7964, 0.9286)" xlink:href="#path-1" fill-rule="evenodd">
        <path d="M34.8953885,107.756842 C33.3133315,106.979516 31.7361517,106.138787 30.1696553,105.234191 C6.51730031,91.578615 -5.80061075,68.5667933 2.67967425,53.8784212 C11.1598896,39.1900492 37.247804,38.3518748 60.900159,52.007683 C62.4666554,52.9120474 63.9834514,53.8575191 65.4475275,54.8387567 C65.3300113,53.0799609 65.2696274,51.2937601 65.2696274,49.4850315 C65.2696274,22.1734151 79.0394682,0 95.9998988,0 C112.960562,0 126.730403,22.1734151 126.730403,49.4850315 C126.730403,51.2937601 126.670019,53.0799609 126.55227,54.8387567 C128.016579,53.8575191 129.533375,52.9120474 131.099871,52.007683 C154.752226,38.3518748 180.839908,39.1900492 189.320356,53.8784212 C197.800571,68.5667933 185.48273,91.578615 161.830142,105.234191 C160.263646,106.138787 158.686698,106.979516 157.104641,107.756842 C158.686698,108.534401 160.263646,109.37513 161.830142,110.279494 C185.48273,123.935302 197.800571,146.947124 189.320356,161.635496 C180.839908,176.323636 154.752226,177.162042 131.099871,163.506234 C129.533375,162.60187 128.016579,161.656398 126.55227,160.67516 C126.670019,162.433956 126.730403,164.220157 126.730403,166.028886 C126.730403,193.340432 112.960562,215.513917 95.9998988,215.513917 C79.0394682,215.513917 65.2696274,193.340432 65.2696274,166.028886 C65.2696274,164.220157 65.3300113,162.433956 65.4475275,160.67516 C63.9834514,161.656398 62.4666554,162.60187 60.900159,163.506234 C37.247804,177.162042 11.1598896,176.323636 2.67967425,161.635496 C-5.80061075,146.947124 6.51730031,123.935302 30.1696553,110.279494 C31.7361517,109.37513 33.3133315,108.534401 34.8953885,107.756842 Z" id="Fill-1" fill="#0063FF"></path>
        <path d="M95.9998988,60.3817621 C122.147036,60.3817621 143.375211,81.6099377 143.375211,107.756842 C143.375211,133.90398 122.147036,155.132155 95.9998988,155.132155 C69.852994,155.132155 48.6248185,133.90398 48.6248185,107.756842 C48.6248185,81.6099377 69.852994,60.3817621 95.9998988,60.3817621 Z" id="Fill-3" fill="#99CCFF"></path>
        <path d="M79.4586715,88.6051747 C83.4196199,88.6051747 86.6357568,94.2285371 86.6357568,101.155029 C86.6357568,108.081522 83.4196199,113.705116 79.4586715,113.705116 C75.4974908,113.705116 72.2815861,108.081522 72.2815861,101.155029 C72.2815861,94.2285371 75.4974908,88.6051747 79.4586715,88.6051747 Z" id="Fill-4" fill="#000000"></path>
        <path d="M112.541358,88.6051747 C116.502539,88.6051747 119.718444,94.2285371 119.718444,101.155029 C119.718444,108.081522 116.502539,113.705116 112.541358,113.705116 C108.580178,113.705116 105.364273,108.081522 105.364273,101.155029 C105.364273,94.2285371 108.580178,88.6051747 112.541358,88.6051747 Z" id="Fill-5" fill="#000000"></path>
    </g>
</svg>